<?xml version="1.0" encoding="utf-8"?>
<!-- Generator: Adobe Illustrator 22.0.1, SVG Export Plug-In . SVG Version: 6.00 Build 0)  -->
<svg version="1.1" id="Group_3105" xmlns="http://www.w3.org/2000/svg" xmlns:xlink="http://www.w3.org/1999/xlink" x="0px" y="0px"
	 viewBox="0 0 1356.3 166.7" style="enable-background:new 0 0 1356.3 166.7;" xml:space="preserve">
<style type="text/css">
	.st0{fill:#0E4194;stroke:#FFFFFF;stroke-width:9.319;stroke-linecap:round;}
	.st1{fill:#5192C5;}
	.st2{fill:#FFFFFF;}
	.st3{fill:#BE1E2D;}
	.st4{fill:#0E4194;}
	.st5{fill:#0E4194;stroke:#FFFFFF;stroke-width:4.66;}
</style>
<g id="EA_Logo" transform="translate(-2436.6 -11757)">
	<path id="Path_1" class="st0" d="M2882.9,11784.8l-17.7,40.4l-25.7-33.6L2882.9,11784.8z"/>
	<g id="Group_3">
		<g id="Group_2">
			<path id="Path_2" class="st1" d="M2508.3,11842.9c0,44.3,36,80.2,80.3,80.2s80.2-36,80.2-80.3s-36-80.2-80.3-80.2
				c-21.3,0-41.6,8.5-56.7,23.5C2516.8,11801.2,2508.3,11821.6,2508.3,11842.9z"/>
			<g id="Group_1">
				<path id="Path_3" class="st2" d="M2602.7,11853.9c-0.2,0.6-0.6,1.1-1,1.6c-0.2,0-0.3,0.1-0.4,0.3c-0.9,0.5-1.9,0.8-2.9,0.6
					c-0.3-0.2-0.6-0.4-0.9-0.4c-0.3-0.1-0.5-0.3-0.7-0.5c0-0.1-0.1-0.1-0.1-0.2c0-0.1-0.1-0.1-0.1-0.2l-0.2-0.2l0,0
					c0-0.2-0.1-0.5-0.3-0.6v-0.1c-0.1-0.1-0.1-0.1-0.1-0.2c-0.1-0.8,0-1.7,0.2-2.5c0.2-0.1,0.3-0.2,0.3-0.4c0.1-0.1,0.1-0.2,0.2-0.3
					c0.2-0.1,0.3-0.2,0.3-0.4l0,0c0.2,0,0.3-0.2,0.4-0.3c0.1-0.1,0.2-0.1,0.3-0.2c0.4,0,0.7-0.2,0.9-0.5c0.8-0.1,1.6,0,2.3,0.2
					c0.1,0.2,0.2,0.3,0.4,0.3h0.1c0.1,0.2,0.3,0.4,0.5,0.5l0,0c0,0.2,0.2,0.4,0.4,0.5c0,0.1,0,0.1,0.1,0.1l0,0
					c0.1,0.3,0.1,0.6,0.4,0.7c0,0.7,0.4,1.4,0,2.1l0,0C2602.6,11853.8,2602.7,11853.8,2602.7,11853.9z"/>
				<path id="Path_4" class="st3" d="M2592.3,11820.3v0.3c0,0.2,0,0.4,0.2,0.5v1.3c-0.2,0.1-0.2,0.3-0.2,0.5
					c-0.1,0.2-0.2,0.4-0.2,0.6c-0.3,0.2-0.4,0.5-0.7,0.7c-1.2,1-2.8,1.1-4.1,0.5c0-0.1-0.1-0.3-0.2-0.3h-0.1
					c-0.1-0.1-0.2-0.1-0.3-0.2c-0.1-0.1-0.1-0.2-0.2-0.2c-0.1-0.2-0.2-0.3-0.3-0.4c-0.2-0.4-0.4-0.8-0.5-1.2v-1.5
					c0.2-0.1,0.2-0.3,0.2-0.5v-0.1l0.2-0.2c0,0,0.1-0.1,0-0.1c0.7-0.8,1.6-1.4,2.7-1.6c0.5,0,1,0.1,1.4,0.1c0.2,0.1,0.3,0.3,0.6,0.3
					c0.2,0.1,0.4,0.2,0.6,0.4l0.5,0.5c0,0.1,0.1,0.1,0.1,0.2C2592.1,11820.1,2592.2,11820.2,2592.3,11820.3z"/>
				<path id="Path_5" class="st2" d="M2567.2,11855.9h-0.2l-0.2-0.2c-0.1-0.2-0.2-0.4-0.4-0.4c-0.1-0.1-0.2-0.2-0.2-0.3
					s0-0.1-0.1-0.2c0-0.1-0.1-0.1-0.1-0.2c-0.1-0.3-0.4-0.6-0.4-1c0-0.2,0.1-0.5-0.2-0.7v-0.7c0.3-0.4,0.2-0.9,0.4-1.3
					c0-0.1,0.1-0.1,0.1-0.2c0.1,0,0.1-0.1,0.1-0.2c0.1-0.1,0.1-0.2,0.2-0.3c0.2,0,0.3-0.1,0.4-0.3c0.1-0.1,0.2-0.1,0.3-0.2
					c0.1,0,0.1-0.1,0.2-0.1c0.9-0.5,2.1-0.5,3,0c0,0.1,0.1,0.1,0.2,0.1c0.3,0.2,0.6,0.5,0.9,0.7c0,0.1,0.1,0.3,0.2,0.3h0.1
					c0.1,0.2,0.1,0.3,0.2,0.5c0.1,0.3,0.1,0.7,0.4,0.9c0,0.7-0.1,1.3-0.2,2c-0.2,0.1-0.3,0.2-0.3,0.4v0.1c-0.3,0.2-0.5,0.5-0.7,0.8
					c-0.2,0.1-0.3,0.2-0.5,0.3c-0.2,0-0.4,0.1-0.5,0.3l0,0c-0.1,0-0.2,0.1-0.3,0.1h-1.6c-0.1,0-0.2-0.1-0.3-0.1h-0.2
					C2567.4,11856,2567.3,11855.9,2567.2,11855.9L2567.2,11855.9z"/>
				<path id="Path_6" class="st2" d="M2565.6,11830.8v-0.2c0.1-0.1,0.2-0.3,0.2-0.5l0,0c0.2-0.1,0.3-0.2,0.3-0.4h0.1v-0.1l0.4-0.4
					h0.1v-0.1c0.1-0.1,0.2-0.1,0.3-0.2c0.1-0.1,0.1-0.1,0.2-0.1h0.2c0.3-0.1,0.7-0.1,0.9-0.4h1.3c0.2,0.3,0.6,0.4,0.9,0.4h0.1
					c0.1,0.2,0.2,0.3,0.4,0.3l0.2,0.2c0.1,0.2,0.3,0.4,0.5,0.5v0.1c0,0.1,0,0.3,0.1,0.3c0,0.1,0.1,0.2,0.1,0.3
					c-0.1,0.2,0,0.2,0.2,0.3c0,0.4,0,0.7,0.1,1.1c-0.2,0.8-0.5,1.5-0.9,2.1l-0.3,0.3l-0.2,0.2c-0.1,0.1-0.2,0.1-0.2,0.2
					c-0.7,0.4-1.6,0.6-2.4,0.5c-0.3-0.1-0.6-0.2-1-0.3c0-0.2-0.2-0.2-0.4-0.2c-0.3-0.2-0.5-0.4-0.7-0.7c0-0.1,0-0.3-0.2-0.3
					c-0.1-0.3-0.2-0.6-0.4-0.9c0-0.2,0-0.3-0.1-0.5v-1.2C2565.7,11831.2,2565.6,11831,2565.6,11830.8z"/>
				<path id="Path_7" class="st2" d="M2596.3,11861.1l0.1-0.1c0.1,0,0.3-0.1,0.3-0.2v-0.1c0.2-0.1,0.3-0.3,0.5-0.4
					c0.9-0.6,2.1-0.8,3.2-0.4c1.1,0.4,1.8,1.3,2,2.4v1.6c-0.1,0.1-0.2,0.2-0.1,0.3c-0.2,0.4-0.5,0.8-0.9,1.2c-0.1,0-0.2,0-0.2,0.1
					c-0.2,0.2-0.5,0.3-0.7,0.4c-0.2,0-0.3,0.1-0.4,0.3c-0.1,0-0.3,0.1-0.4,0.1c-0.1,0-0.1,0-0.2,0.1h-1c-0.3-0.3-0.7-0.4-1.1-0.5
					c-0.7-0.5-1.5-1-1.5-2v-2c0.1-0.1,0.2-0.2,0.2-0.4C2596.3,11861.4,2596.3,11861.3,2596.3,11861.1L2596.3,11861.1z"/>
				<path id="Path_8" class="st2" d="M2580.6,11818.7c0.5,0.3,1,0.7,1.3,1.2c0,0.2,0.1,0.3,0.3,0.4c0,0.2,0,0.4,0.1,0.6v1.5
					c-0.1,0.3-0.2,0.5-0.2,0.8c-0.2,0.1-0.3,0.2-0.3,0.4v0.1c-0.3,0.1-0.4,0.2-0.5,0.5l0,0c-0.2,0-0.4,0.1-0.5,0.3
					c-0.8,0.5-1.8,0.6-2.7,0.5c-0.1-0.2-0.4-0.3-0.6-0.3h-0.1c-0.1-0.2-0.2-0.3-0.4-0.3l-0.2-0.2v-0.1h-0.1l-0.3-0.3l-0.1-0.1l0,0
					c0-0.2-0.1-0.3-0.3-0.4c-0.1-0.3-0.2-0.5-0.2-0.8v-1.5c0.1-0.3,0-0.6,0.2-0.9l0.2-0.2c0-0.1,0-0.1,0.1-0.2
					c0.2-0.1,0.2-0.2,0.2-0.3h0.1c0-0.1,0.1-0.1,0.2-0.2l0,0c0.2,0,0.4-0.1,0.5-0.3c0.2-0.1,0.3-0.2,0.5-0.2c0.4,0,0.8-0.2,1.1-0.4
					h0.5c0.2,0.2,0.4,0.3,0.6,0.2c0.1,0,0.2,0.1,0.4,0.1C2580.3,11818.7,2580.4,11818.7,2580.6,11818.7z"/>
				<path id="Path_9" class="st2" d="M2582.3,11864.3C2582.2,11864.3,2582.2,11864.4,2582.3,11864.3c-0.1,0.2-0.1,0.3-0.2,0.3
					c-0.2,0.3-0.4,0.6-0.7,0.8c-0.1,0-0.2,0.1-0.2,0.2c-0.2,0.2-0.5,0.3-0.7,0.4c-0.4,0-0.8,0.2-1.1,0.4h-0.8
					c-0.1-0.2-0.2-0.2-0.4-0.2c-0.1,0-0.2-0.1-0.4-0.1c0-0.1-0.2-0.2-0.3-0.2c-0.1-0.1-0.3-0.1-0.4-0.2c-0.1-0.2-0.2-0.3-0.4-0.3
					l0,0l-0.2-0.2l0,0c0-0.1-0.1-0.3-0.2-0.3h-0.1c0-0.1,0-0.1-0.1-0.1c0-0.2-0.1-0.4-0.3-0.5l0,0c0-0.1,0-0.3-0.1-0.3
					c0-0.2,0-0.3-0.1-0.5v-1.2c0-0.2,0-0.4,0.1-0.6c0.3-0.2,0.5-0.5,0.5-0.8l0,0c0.2-0.1,0.3-0.2,0.3-0.3l0.2-0.2
					c0.4-0.2,0.9-0.5,1.3-0.7c0.5,0,1.1-0.1,1.6-0.1c0.1,0.2,0.2,0.3,0.4,0.3c0.2,0.1,0.4,0.2,0.6,0.2c0.1,0.2,0.2,0.3,0.4,0.3
					l0.2,0.2l0.3,0.3c0.1,0.1,0.1,0.2,0.2,0.2c0,0.2,0.1,0.3,0.3,0.4c0.1,0.3,0.1,0.5,0.2,0.8
					C2582.3,11863,2582.3,11863.7,2582.3,11864.3L2582.3,11864.3z"/>
				<path id="Path_10" class="st2" d="M2556.6,11830.4c0.1-0.2,0.2-0.4,0.2-0.6c0.2-0.1,0.3-0.2,0.3-0.4c0-0.1,0.1-0.1,0.2-0.2
					c0.2,0,0.3-0.1,0.4-0.3c0.5-0.2,1-0.4,1.5-0.7h0.1l0.1-0.1c0.5,0.1,0.9,0.1,1.4,0.2c0.1,0.2,0.2,0.3,0.4,0.3h0.1
					c0.3,0.4,0.6,0.7,1,1v0.1c0,0.1,0,0.3,0.2,0.3c0.3,0.8,0.3,1.7,0.1,2.6c-0.2,0.1-0.3,0.2-0.3,0.4c-0.3,0.5-0.7,1-1.2,1.5
					c-0.4,0.1-0.7,0.2-1,0.5c-0.6,0.1-1.2,0-1.8-0.2l-0.9-0.6c-0.2-0.4-0.6-0.6-0.7-1.1c0-0.2-0.1-0.3-0.2-0.4v-0.3
					c0.1-0.2,0.1-0.3-0.1-0.5v-0.7c0.1-0.1,0.1-0.2,0.1-0.4s0.1-0.3,0.1-0.5C2556.6,11830.7,2556.6,11830.6,2556.6,11830.4z"/>
				<path id="Path_11" class="st2" d="M2556.6,11851.2c0.5-1,1.5-1.7,2.7-1.9c0.3,0,0.5,0,0.8,0.1c0.2,0.3,0.6,0.4,0.9,0.5
					c1.3,1.1,1.8,2.8,1.5,4.4c-0.4,0.3-0.4,0.7-0.7,1.1c-0.2,0.2-0.4,0.4-0.6,0.5c-0.3,0.1-0.7,0.2-0.9,0.5c-0.5,0-1.1,0-1.6-0.1
					c-0.1-0.1-0.2-0.2-0.4-0.1l0,0l-0.1-0.1c-0.2-0.1-0.3-0.2-0.5-0.2c0-0.1-0.1-0.3-0.2-0.3h-0.1l-0.2-0.2c0-0.2-0.1-0.3-0.3-0.4
					c-0.1-0.2-0.1-0.4-0.2-0.6c0-0.2,0-0.4-0.2-0.4v-0.4c0.1-0.5,0.1-0.9,0-1.4c0-0.2,0.1-0.3,0.1-0.5
					S2556.6,11851.4,2556.6,11851.2z"/>
				<path id="Path_12" class="st2" d="M2586.5,11814.2c-0.1-0.2-0.2-0.3-0.3-0.5c-0.1-0.3-0.2-0.5-0.4-0.7v-1.5
					c0.1-0.3,0.1-0.6,0.2-0.9l0.2-0.2c0-0.1,0-0.1,0.1-0.2c0.2-0.1,0.4-0.3,0.5-0.5c0.8-0.7,1.9-0.9,3-0.7c0.1,0.2,0.3,0.2,0.5,0.2
					c0.2,0.1,0.4,0.2,0.6,0.2c0.1,0.2,0.2,0.3,0.4,0.3l0,0c0.1,0,0.1,0.1,0.2,0.1l0.2,0.2c0,0.1,0.1,0.1,0.1,0.2l0,0
					c0,0.2,0.1,0.3,0.3,0.4c0.1,0.3,0.2,0.6,0.2,0.9v1.3c-0.1,0.2-0.2,0.5-0.2,0.7c-0.3,0.1-0.3,0.4-0.5,0.6l0,0
					c-0.2,0-0.3,0.1-0.4,0.3l0,0c-0.5,0.2-0.9,0.4-1.3,0.7h-1.5c-0.6-0.2-1.1-0.4-1.6-0.7
					C2586.8,11814.3,2586.7,11814.2,2586.5,11814.2z"/>
				<path id="Path_13" class="st2" d="M2547.3,11842.5v-0.9c0.2-0.2,0.2-0.4,0.2-0.7v-0.5c0.1-0.1,0.1-0.1,0.1-0.2
					c0.2-0.1,0.3-0.3,0.4-0.5c0.3-0.1,0.4-0.2,0.5-0.5l0,0c0.1,0,0.3,0,0.3-0.2c0.8-0.5,1.8-0.6,2.6-0.1c0.1,0.3,0.3,0.3,0.6,0.4
					v0.1c0,0.1,0.1,0.3,0.2,0.3h0.1c0.1,0.1,0.1,0.2,0.2,0.3c0,0.2,0.1,0.3,0.3,0.4c0.1,0.3,0.1,0.5,0.2,0.8v2.3
					c0,0.1-0.1,0.1-0.1,0.2c0,0-0.1,0,0,0.1h-0.1c-0.1,0.1-0.1,0.3-0.2,0.4c-0.2,0-0.2,0.2-0.2,0.3c-0.2,0.2-0.4,0.5-0.6,0.7
					c-0.2,0-0.3,0.1-0.4,0.3c-0.2,0.1-0.4,0.2-0.6,0.2h-1.3c-0.4-0.1-0.8-0.3-1.1-0.5c0-0.1,0-0.2-0.1-0.2l-0.2-0.2l-0.2-0.2l0,0
					c0-0.2-0.1-0.4-0.3-0.4c-0.2-0.2-0.2-0.4-0.2-0.7c0-0.2,0.1-0.5-0.2-0.7C2547.3,11842.9,2547.3,11842.7,2547.3,11842.5z"/>
				<path id="Path_14" class="st2" d="M2598.3,11815.2c-1.3-0.1-2.5-1.1-2.8-2.4c0-0.3,0-0.6-0.2-0.8c0.1-0.4,0.2-0.9,0.3-1.3
					c0-0.1,0.1-0.1,0.1-0.2c0.3-0.6,0.8-1.1,1.5-1.4c0.2,0,0.5,0,0.6-0.3h1.3c0.2,0.2,0.5,0.4,0.8,0.3c0.5,0.4,0.9,0.8,1.4,1.2
					c0,0.2,0.1,0.3,0.3,0.4c0.1,0.3,0.2,0.6,0.2,0.9v1.5c0,0.1,0,0.1-0.1,0.2c0,0.1-0.1,0.2-0.1,0.3c-0.2,0.1-0.3,0.2-0.3,0.4
					c-0.5,0.6-1.2,1-2,1.2L2598.3,11815.2L2598.3,11815.2z"/>
				<path id="Path_15" class="st2" d="M2551.5,11835.1L2551.5,11835.1c-0.4,0.1-0.9,0.2-1.3,0.2c-0.3-0.1-0.7-0.1-1-0.2h-0.1
					c0-0.2-0.2-0.3-0.4-0.3c-0.4-0.2-0.5-0.6-0.7-1c0-0.2-0.1-0.3-0.3-0.4v-0.2c0-0.3,0-0.5-0.2-0.7c0.1-0.6,0.1-1.2,0.2-1.7
					c0.2-0.1,0.3-0.2,0.3-0.4c0.2-0.7,0.8-1,1.2-1.5c0.2,0,0.3-0.1,0.4-0.2c0.7-0.3,1.4-0.4,2.1-0.1c0.2,0.2,0.4,0.3,0.7,0.4
					c0.2,0.3,0.5,0.6,0.7,0.9c0,0.4,0.2,0.8,0.4,1.1v1.5c-0.3,0.2-0.3,0.6-0.4,0.9c-0.1,0.2-0.1,0.3-0.2,0.5c0,0.1-0.1,0.1-0.1,0.2
					l-0.9,0.9C2551.7,11834.8,2551.6,11834.9,2551.5,11835.1z"/>
				<path id="Path_16" class="st2" d="M2580.2,11815.2h-1.7c-0.3-0.2-0.6-0.4-1-0.5c-0.7-0.4-1.2-1.2-1.2-2v-1
					c0.2-0.5,0.2-1.1,0.7-1.5c0.3-0.3,0.6-0.5,0.9-0.8c0.2-0.1,0.4-0.1,0.6-0.2c0.2,0,0.4,0,0.5-0.2c0.9,0,1.7,0.1,2.5,0.4
					c0.1,0.2,0.2,0.3,0.4,0.3l0,0c0,0.1,0.1,0.1,0.2,0.2l0.2,0.2l0.2,0.2v0.1c0,0.3,0.2,0.4,0.3,0.6c0.2,0.7,0.2,1.5,0,2.2
					c-0.3,0.4-0.5,0.7-0.8,1.1l0,0c-0.2,0.1-0.4,0.3-0.5,0.5h-0.1c-0.2,0-0.3,0.1-0.4,0.3h-0.2
					C2580.3,11815.1,2580.3,11815.1,2580.2,11815.2z"/>
				<path id="Path_17" class="st2" d="M2600.8,11875c-0.6,0.2-1.1,0.5-1.6,0.8c-0.5,0-1.1,0-1.6-0.1c-0.1-0.3-0.4-0.2-0.6-0.3
					c-0.4-0.3-0.7-0.6-1-0.9c-0.6-0.7-0.8-1.6-0.6-2.5c0.1-0.3,0.4-0.7,0.4-1c0.2-0.2,0.4-0.5,0.5-0.7c0.2-0.2,0.4-0.4,0.7-0.5
					c0.4-0.1,0.8-0.2,1.2-0.5c1.2-0.2,2.4,0.3,3.2,1.2c0,0.2,0.1,0.3,0.3,0.4c0.1,0.3,0.2,0.6,0.2,0.9c0,0.5,0,1.1-0.1,1.6
					C2601.7,11873.7,2600.9,11874.8,2600.8,11875C2600.5,11875.2,2600.9,11874.8,2600.8,11875z"/>
				<path id="Path_18" class="st2" d="M2605.4,11813.7c0-0.2-0.1-0.4-0.3-0.5l-0.2-0.2c0.1-0.6-0.3-1.2,0-1.8
					c0.6-1.8,1.3-2.3,3.2-2.2h0.4c0.1,0.2,0.3,0.2,0.5,0.2c0.1,0.1,0.2,0.3,0.5,0.2c0.1,0.2,0.2,0.3,0.4,0.3
					c0.1,0.1,0.2,0.2,0.3,0.2l0.2,0.2c0.1,0.1,0.1,0.2,0.2,0.2c0,0.2,0.1,0.3,0.3,0.4c0,0.1,0.1,0.2,0.1,0.3s0.1,0.1,0.1,0.2v2.5
					l-0.2,0.2v0.1l-0.2,0.2l-0.6,0.6c-0.2,0-0.3,0.1-0.4,0.3c-0.3,0.2-0.7,0.2-1.1,0.2h-0.5c-0.3-0.1-0.6-0.1-0.9-0.2
					c-0.1-0.1-0.2-0.3-0.4-0.3h-0.2c-0.1-0.1-0.2-0.2-0.3-0.2c0-0.1-0.1-0.3-0.2-0.3h-0.1
					C2605.7,11814,2605.6,11813.8,2605.4,11813.7z"/>
				<path id="Path_19" class="st2" d="M2610.1,11870.1c0.1,0.2,0.3,0.3,0.4,0.5c0.1,0.1,0.1,0.2,0.2,0.2l0,0
					c0.1,0.1,0.1,0.2,0.2,0.2c0,0.1,0,0.3,0.1,0.4v1.7c0,0.3-0.3,0.5-0.2,0.8c-0.2,0.1-0.3,0.2-0.3,0.4l-0.7,0.7
					c-0.2,0-0.3,0.1-0.4,0.3c-0.2,0.1-0.3,0.1-0.5,0.2c-0.2,0-0.4,0-0.5,0.2c-0.5,0-1,0.1-1.4,0.1c-0.1-0.2-0.4-0.3-0.6-0.3
					c-0.1-0.1-0.2-0.2-0.4-0.2c-0.1-0.3-0.3-0.3-0.5-0.4v-0.1c-0.1-0.3-0.2-0.7-0.5-0.9c-0.4-1.1-0.1-2.4,0.7-3.3
					c0.2-0.1,0.4-0.3,0.5-0.5h0.1c0.1,0,0.1-0.1,0.2-0.1h0.2c0.2,0,0.3-0.1,0.4-0.3c0.7-0.2,1.6-0.2,2.3,0
					C2609.6,11869.8,2609.9,11869.9,2610.1,11870.1L2610.1,11870.1C2610,11870,2610,11870,2610.1,11870.1z"/>
				<path id="Path_20" class="st2" d="M2567.7,11810.5c0.1-0.1,0.1-0.2,0.2-0.3c0.2,0,0.3-0.1,0.3-0.4c0.3-0.3,0.7-0.6,1.2-0.7
					c0.2,0,0.4,0,0.5-0.2h1.4c0.1,0.2,0.3,0.2,0.5,0.2c0.8,0.4,1.4,1.1,1.5,2v1.3c-0.3,0.7-0.7,1.4-1.2,2c-0.3,0.1-0.7,0.2-0.9,0.5
					c-0.8,0.3-1.8,0.3-2.6,0c-0.1-0.2-0.2-0.3-0.4-0.3l0,0l-0.1-0.1c-0.1-0.1-0.2-0.3-0.4-0.4c-0.1-0.2-0.2-0.4-0.4-0.6
					c0-0.2-0.1-0.3-0.1-0.5v-1.5c0-0.1,0-0.3,0.1-0.4c0.1-0.1,0.1-0.2,0.2-0.2C2567.5,11810.8,2567.6,11810.7,2567.7,11810.5
					C2567.6,11810.7,2567.7,11810.6,2567.7,11810.5z"/>
				<path id="Path_21" class="st2" d="M2551.3,11818.4c0.5-0.1,1.1-0.1,1.6,0.1c0.1,0.2,0.3,0.3,0.5,0.3c0.1,0,0.1,0.1,0.2,0.1
					c0,0.2,0.1,0.3,0.3,0.4c0.1,0.1,0.1,0.2,0.2,0.3c0,0.2,0,0.4,0.2,0.5c0,0.1,0.1,0.2,0.1,0.4c-0.1,0.1-0.1,0.2,0.1,0.3v1
					c-0.1,0.1-0.1,0.2-0.1,0.3s-0.1,0.2-0.1,0.4c-0.3,0.2-0.2,0.5-0.3,0.7c0,0.1-0.1,0.1-0.2,0.2c-0.2,0.1-0.3,0.2-0.3,0.4l0,0
					c0,0.1-0.1,0.1-0.1,0.2l-0.2,0.2c-0.1,0-0.1,0-0.1,0.1c-0.3,0.1-0.5,0.3-0.7,0.5c-0.2,0-0.4,0-0.5,0.2c-0.2,0-0.5,0.1-0.7,0.1
					c-0.2-0.1-0.3-0.1-0.5,0c-0.1,0-0.2-0.1-0.3-0.1c0-0.2-0.2-0.2-0.3-0.2c-0.2-0.1-0.4-0.2-0.5-0.4c0-0.1,0-0.1-0.1-0.1
					c-0.1-0.2-0.2-0.4-0.4-0.5c0-0.1,0-0.3-0.2-0.3c0-0.1-0.1-0.2-0.1-0.3c0.2-0.2-0.1-0.3-0.2-0.4c0.1-0.5-0.1-1.1,0.2-1.6
					c0.2-0.1,0.3-0.4,0.3-0.6v-0.2c0-0.1,0.1-0.1,0.1-0.2c0.4-0.7,0.9-1.2,1.6-1.6C2551,11818.7,2551.1,11818.5,2551.3,11818.4z"/>
				<path id="Path_22" class="st3" d="M2542.1,11828.3c1.7-0.1,2.6,0.7,3,2.5v1.5c-0.1,0.4-0.1,0.7-0.2,1.1
					c-0.2,0.1-0.3,0.2-0.3,0.4c-0.2,0.1-0.2,0.2-0.2,0.4c-0.5,0.3-0.9,0.7-1.3,1.1l0,0c-0.4,0-0.7,0-1.1,0.1h-0.3
					c-0.3-0.2-0.5-0.5-0.8-0.5c-0.4-0.3-0.4-0.8-0.7-1.2c0-0.2,0-0.4-0.2-0.5c0-0.3,0-0.6-0.1-0.9v-0.3c0-0.3,0.1-0.6,0.1-0.9
					c0.2-0.2,0.2-0.4,0.2-0.7v-0.1c0.2-0.2,0.4-0.4,0.5-0.7c0.1-0.1,0.1-0.2,0.2-0.3c0.2,0,0.3-0.1,0.4-0.3c0.1-0.1,0.2-0.1,0.3-0.2
					C2541.6,11828.7,2541.9,11828.5,2542.1,11828.3z"/>
				<path id="Path_23" class="st2" d="M2558.4,11812.9v-0.5c0.3-0.2,0.2-0.5,0.2-0.8s0.3-0.4,0.2-0.7c0.2,0,0.3-0.2,0.3-0.4
					c0-0.1,0.1-0.1,0.1-0.2c0.2,0,0.3-0.1,0.3-0.4l0.2-0.2c0.2,0,0.3-0.1,0.4-0.3c0.2-0.1,0.4-0.2,0.6-0.2c0.2,0,0.4-0.1,0.4-0.3
					h1.3c0.1,0.2,0.2,0.3,0.4,0.3c0.5,0.4,1.1,0.7,1.2,1.4c0,0.2,0,0.4,0.2,0.5v1.2c-0.2,0.1-0.1,0.3-0.1,0.5v0.3
					c0,0.1-0.1,0.1-0.1,0.2c-0.2,0.3-0.5,0.7-0.7,1c-0.1,0-0.2,0.1-0.2,0.2c-0.2,0.1-0.3,0.3-0.5,0.4c-0.3,0-0.5,0.2-0.6,0.4
					c-0.2,0-0.5,0.1-0.7,0.1h-1.2c-0.3-0.2-0.6-0.4-0.9-0.5l-0.2-0.2c0-0.2-0.1-0.3-0.3-0.4c-0.1-0.2-0.1-0.3-0.2-0.5
					C2558.6,11813.4,2558.7,11813.1,2558.4,11812.9z"/>
				<path id="Path_24" class="st2" d="M2589.6,11800.1c0.4,0.1,0.7,0.2,1.1,0.2c0,0.2,0.1,0.3,0.3,0.3c0.4,0.3,0.7,0.6,0.9,1
					l0.1,0.1c0.3,0.6,0.4,1.3,0.3,1.9c0,0.1-0.1,0.1-0.1,0.2c0,0.1-0.1,0.2-0.1,0.3c-0.1,0.1-0.3,0.2-0.2,0.4
					c-0.2,0.3-0.4,0.6-0.7,0.8c-0.2,0-0.3,0.1-0.4,0.3h-0.1c-0.2,0-0.4,0-0.5,0.2c-0.2,0-0.3,0.1-0.5,0.1c-0.4-0.1-0.8-0.1-1.2,0
					c-0.1,0-0.2-0.1-0.3-0.1c-0.1-0.1-0.2-0.2-0.3-0.2c-0.2-0.1-0.3-0.1-0.5-0.2c-0.1-0.1-0.1-0.1-0.2-0.1c-0.2-0.2-0.4-0.4-0.6-0.5
					l-0.1-0.1c-0.1-0.1-0.1-0.2-0.2-0.4c0-0.1,0-0.3-0.2-0.3c0-0.1-0.1-0.2-0.1-0.3c0.1-0.3,0.1-0.7,0-1c0.1-0.7,0.4-1.4,1-1.8
					c0.3-0.1,0.6-0.2,0.8-0.5c0.3-0.2,0.7-0.2,1.1-0.2C2589.2,11800.1,2589.4,11800.1,2589.6,11800.1z"/>
				<path id="Path_25" class="st2" d="M2619.7,11871.3c0.2,1-0.1,2-0.6,2.9c-0.2,0-0.2,0.2-0.2,0.3l-0.2,0.2
					c-0.2,0.2-0.5,0.4-0.7,0.6l-0.6,0.3c-0.1,0-0.3,0-0.3,0.2c-0.6,0-1.1,0-1.7,0c-0.1-0.2-0.2-0.2-0.3-0.2h-0.1
					c-0.1-0.2-0.3-0.4-0.5-0.5c0-0.1-0.1-0.1-0.1-0.2v-0.1h-0.1c-0.1-0.3-0.2-0.6-0.4-0.8v-1.7c0.1-0.3,0.2-0.7,0.4-1
					c0.1,0,0.1-0.1,0.1-0.2c0-0.1,0-0.1,0.1-0.2l0.2-0.2l0.5-0.5c0.2,0,0.3-0.1,0.4-0.3c0.9-0.5,1.9-0.7,2.9-0.3
					c0.1,0.2,0.2,0.3,0.4,0.3c0.2,0.3,0.5,0.6,0.7,0.9C2619.5,11871,2619.5,11871.2,2619.7,11871.3z"/>
				<path id="Path_26" class="st2" d="M2579.4,11835.3c-0.9,0.1-1.9,0-2.7-0.5c-0.8-1-1.7-1.9-1.5-3.3c0.2-1.3,1-2.3,2.2-2.8
					c0.1,0,0.2-0.1,0.2-0.2c0.3-0.1,0.6-0.1,0.9-0.2c0.3,0,0.7,0.1,1,0.1c0.1,0,0.1,0.1,0.2,0.1c0.1,0.1,0.2,0.2,0.4,0.1l0.1,0.1
					c0,0.1,0.1,0.1,0.2,0.1c0.6,0.3,1.1,0.8,1.4,1.4c0,0.3,0.1,0.5,0.3,0.7c0.2,0.8,0.1,1.6-0.1,2.4c-0.2,0-0.2,0.2-0.2,0.3
					c-0.2,0.2-0.4,0.5-0.5,0.8c-0.2,0-0.4,0.2-0.5,0.4l-0.2,0.2C2580.2,11835,2579.8,11835.1,2579.4,11835.3z"/>
				<path id="Path_27" class="st2" d="M2600.1,11805.5h-0.1c-0.1,0-0.1,0.1-0.2,0.1h-0.2c-0.2,0-0.4,0-0.5,0.2c-0.3,0-0.7,0-1,0.1
					c-0.1-0.1-0.2-0.1-0.3,0l0,0c-0.5-0.1-1-0.2-1.4-0.5c-0.1-0.2-0.2-0.3-0.4-0.3l0,0c-0.1-0.2-0.2-0.4-0.4-0.5
					c-0.1-0.2-0.3-0.5-0.4-0.7c0-0.2,0-0.4-0.2-0.5c0.1-0.4,0-0.9-0.1-1.3c0.2-0.1,0.3-0.2,0.2-0.4c0.1-0.2,0.2-0.4,0.2-0.6
					c0.2-0.1,0.3-0.2,0.4-0.4c0.2-0.1,0.4-0.3,0.6-0.4c0.2,0,0.4-0.1,0.4-0.2c0.2,0,0.4,0,0.6-0.1h0.8c0.2,0,0.4,0,0.6,0.1
					c0.1,0,0.1,0,0.2,0.1c0,0,0.1,0.1,0.1,0c0.2,0.3,0.5,0.4,0.8,0.5c0.2,0.3,0.5,0.6,0.8,1c0,0.2,0.1,0.4,0.3,0.4
					c0,0.4,0.1,0.8,0.1,1.3c-0.1,0.1-0.2,0.3-0.1,0.5c0,0.1-0.1,0.2-0.1,0.3c-0.2,0-0.2,0.2-0.2,0.3c-0.2,0.2-0.3,0.4-0.5,0.6
					C2600.3,11805.3,2600.2,11805.4,2600.1,11805.5z"/>
				<path id="Path_28" class="st2" d="M2579.2,11805.9c-0.2,0-0.3-0.1-0.5-0.1c-0.1-0.2-0.2-0.2-0.3-0.1h-0.1c0-0.2-0.2-0.3-0.4-0.3
					l-0.2-0.2c0-0.2-0.1-0.3-0.3-0.4l0,0l-0.2-0.2v-0.3c0-0.2,0-0.5-0.3-0.6v-1c0.3-0.1,0.3-0.4,0.3-0.6c0.1-0.2,0-0.4,0.2-0.5
					c0.1,0,0.3-0.1,0.3-0.2c0,0,0,0,0-0.1l0.2-0.2l0.1-0.1l0,0c0.1-0.1,0.1-0.1,0.2-0.1l0.2-0.2c0.2,0,0.3,0,0.4-0.2
					c0.1,0,0.1,0,0.1-0.1l0,0c0.2,0,0.4,0,0.5-0.2h1.3c0.3,0.1,0.6,0.2,0.9,0.2c0.1,0.3,0.6,0.3,0.8,0.6l0,0
					c0.1,0.1,0.1,0.1,0.1,0.2c0.4,0.8,0.6,1.7,0.5,2.6c-0.2,0.1-0.3,0.2-0.2,0.4c-0.1,0.2-0.1,0.3-0.2,0.5c-0.3,0-0.3,0.3-0.4,0.5
					h-0.1c-0.2,0-0.3,0.1-0.4,0.3c-0.2,0.1-0.3,0.1-0.4,0.2c-0.2,0-0.5,0-0.6,0.3h-0.4C2580,11805.9,2579.6,11805.9,2579.2,11805.9
					L2579.2,11805.9z"/>
				<path id="Path_29" class="st2" d="M2596.3,11879.4c0.1,0,0.1-0.1,0.2-0.1h0.1v-0.1c0.1-0.1,0.3-0.1,0.4-0.2
					c0.6-0.1,1.2-0.2,1.9-0.3c0.2,0,0.3,0.1,0.5,0.1c0.1,0.2,0.2,0.2,0.3,0.1c0.2,0.1,0.3,0.1,0.5,0.2l0.2,0.2
					c0.2,0.2,0.3,0.4,0.5,0.6c0,0.2,0.1,0.4,0.3,0.4c0,0.3,0,0.6,0.1,0.9c-0.1,0.2-0.1,0.3-0.1,0.5c-0.1,0.4-0.2,0.8-0.4,1.1
					c-0.2,0.1-0.3,0.2-0.2,0.4c-0.5,0.6-1.2,1-1.9,1.2h-1.3c-0.2,0-0.3-0.1-0.5-0.1c-0.4-0.3-0.9-0.7-1.3-1
					c-0.1-0.1-0.1-0.3-0.2-0.4c0-0.2,0-0.4-0.2-0.5v-1.5c0.2-0.1,0.1-0.2,0.1-0.3c0.1-0.1,0.1-0.3,0.2-0.4h0.1
					c0-0.1,0.1-0.1,0.2-0.2c0.1,0,0.1-0.1,0.1-0.2C2596,11879.7,2596.2,11879.6,2596.3,11879.4
					C2596.3,11879.5,2596.3,11879.5,2596.3,11879.4z"/>
				<path id="Path_30" class="st2" d="M2607.4,11884.6h-0.3c-0.6,0-1.1,0-1.7-0.1l0,0c-0.1-0.2-0.3-0.3-0.5-0.3l0,0
					c-0.3-0.4-0.6-0.9-0.9-1.3c-0.1-0.6-0.1-1.3,0.1-1.9c0.1-0.1,0.2-0.2,0.1-0.3c0.2-0.1,0.3-0.4,0.4-0.7c0.1,0,0.3-0.1,0.3-0.2
					v-0.1c0.2-0.4,0.7-0.5,1-0.7c0.2,0,0.4,0,0.5-0.2c0.2,0,0.3-0.1,0.5-0.1c0.2,0.1,0.5,0.1,0.7,0c0.2,0,0.4,0,0.5,0.1
					c0.1,0.2,0.3,0.2,0.5,0.2c0.1,0.1,0.2,0.1,0.3,0.2c0,0.2,0.2,0.2,0.3,0.3s0.1,0.2,0.2,0.2c0,0.2,0.1,0.4,0.3,0.4
					c0.1,0.6,0.2,1.2,0.2,1.8c-0.1,0.1-0.1,0.2-0.2,0.3v0.2c-0.2,0.1-0.3,0.2-0.3,0.4c-0.1,0.2-0.2,0.4-0.4,0.5
					c0,0.1-0.1,0.1-0.1,0.2c-0.2,0.2-0.4,0.3-0.5,0.5c-0.1,0-0.2,0.1-0.3,0.1s-0.2,0.1-0.2,0.2
					C2607.7,11884.4,2607.5,11884.4,2607.4,11884.6z"/>
				<path id="Path_31" class="st3" d="M2606.9,11800.1c0.3,0.1,0.6,0.1,0.9,0.2c0.1,0.2,0.2,0.3,0.4,0.3c0.2,0.1,0.3,0.3,0.5,0.4
					c0.2,0.2,0.3,0.4,0.5,0.6l0.2,0.2c0,0.2,0.1,0.4,0.3,0.4c0.2,0.8,0.2,1.5,0,2.3c-0.2,0.1-0.3,0.2-0.3,0.4
					c-0.3,0.2-0.6,0.5-0.9,0.7c-0.1,0-0.3,0-0.3,0.2c-0.1,0-0.2,0.1-0.4,0.1c-0.4-0.1-0.8-0.1-1.2,0h-0.2c-0.1-0.2-0.4-0.3-0.6-0.3
					c-0.1-0.1-0.2-0.2-0.4-0.2c-0.1-0.2-0.2-0.3-0.4-0.3h-0.1c0-0.4-0.3-0.5-0.5-0.7v-0.1c0-0.1,0-0.2-0.2-0.2
					c-0.5-0.9-0.5-1.9,0-2.8c0-0.1,0.1-0.1,0.1-0.2c0.1-0.3,0.5-0.4,0.7-0.7c0.2,0,0.4-0.1,0.5-0.3
					C2605.5,11800.1,2606.9,11800.1,2606.9,11800.1z"/>
				<path id="Path_32" class="st2" d="M2555.4,11813.5l-0.1,0.1c-0.1,0-0.2,0.1-0.2,0.2c-0.1,0.1-0.1,0.2-0.2,0.3
					c-0.2,0-0.3,0.2-0.4,0.4c-0.1,0.1-0.2,0.1-0.3,0.2c-0.1,0-0.3,0-0.3,0.2c-0.4,0.2-0.8,0.3-1.2,0.4h-0.7
					c-0.2-0.1-0.4-0.1-0.6-0.2c-0.2-0.2-0.4-0.4-0.7-0.6c-0.1-0.2-0.2-0.4-0.2-0.6c0-0.2,0-0.4-0.2-0.5v-1c0.3-0.2,0.2-0.4,0.2-0.7
					c0.2-0.4,0.4-0.8,0.5-1.2l1.1-1.1l0,0c0.2,0,0.4-0.1,0.5-0.2h0.2c0.1,0,0.3,0,0.3-0.2h1.4c0.1,0.2,0.3,0.2,0.5,0.2
					c0.1,0.1,0.3,0.2,0.4,0.3l0.1,0.1c0.4,0.6,0.6,1.4,0.6,2.1c-0.2,0.1-0.2,0.2-0.1,0.4v0.4c-0.2,0.1-0.3,0.2-0.3,0.4v0.2
					C2555.6,11813.2,2555.5,11813.4,2555.4,11813.5z"/>
				<path id="Path_33" class="st2" d="M2573.5,11800.6L2573.5,11800.6c0.1,0.2,0.2,0.5,0.5,0.6c0.1,0.3,0.2,0.6,0.2,0.9v1.5
					c-0.1,0.1-0.2,0.2-0.2,0.3v0.1c-0.2,0.1-0.3,0.2-0.3,0.4c-0.4,0.4-0.8,0.7-1.2,1.1c-0.2,0.1-0.5,0-0.7,0.3
					c-0.8,0.1-1.6,0.1-2.3-0.2c-0.4-0.2-0.7-0.6-0.9-1c0-0.1,0-0.3-0.1-0.3c0-0.4-0.1-0.9-0.1-1.3c0.1-0.2,0.3-0.4,0.2-0.7
					c0.1-0.2,0.2-0.4,0.2-0.6c0.2-0.1,0.3-0.2,0.3-0.4c0-0.1,0.1-0.1,0.2-0.2c0.2,0,0.3-0.1,0.4-0.3c0.1-0.1,0.2-0.1,0.3-0.2
					c0.1,0,0.2,0,0.2-0.1c0.1,0,0.1,0,0.1-0.1l0,0c0.2,0.1,0.3,0,0.4-0.2c0.2,0,0.4-0.1,0.6-0.1h0.8c0.3,0.1,0.6,0.2,0.9,0.2
					C2573.2,11800.5,2573.3,11800.6,2573.5,11800.6z"/>
				<path id="Path_34" class="st2" d="M2541.9,11824.6l-0.2-0.2c0-0.1-0.1-0.1-0.1-0.2l0,0c0-0.2-0.1-0.3-0.3-0.4
					c-0.4-0.7-0.5-1.6-0.2-2.4c0.1,0,0.1-0.1,0-0.1c0.1-0.1,0.2-0.3,0.2-0.5c0.2-0.1,0.3-0.2,0.2-0.4c0.1-0.2,0.2-0.3,0.2-0.5
					c0.3-0.1,0.4-0.4,0.5-0.7l0,0c0.2,0,0.3-0.1,0.4-0.3c0.3-0.1,0.5-0.3,0.8-0.4c0.2,0,0.4,0,0.5-0.1h0.7c0.3,0.1,0.5,0.3,0.8,0.4
					c0.2,0.3,0.5,0.7,0.7,1c0,0.2,0,0.4,0.2,0.5v1.7c-0.2,0.6-0.5,1.1-0.7,1.7c-0.5,0.4-0.8,1-1.5,1.2c-0.1,0-0.3,0-0.3,0.2
					c-0.1,0-0.3,0-0.4,0.1h-0.3c-0.2,0-0.4,0-0.5-0.1c-0.1-0.2-0.3-0.2-0.5-0.2l0,0C2542,11824.7,2541.9,11824.7,2541.9,11824.6z"/>
				<path id="Path_35" class="st2" d="M2612.4,11803.4v-1.8c0.1-0.2,0.2-0.4,0.2-0.6c0.2-0.1,0.3-0.2,0.3-0.4c0.1,0,0.3-0.1,0.3-0.2
					c0.1,0,0.1-0.1,0.2-0.1c0.6-0.3,1.3-0.4,2-0.2c0.1,0,0.1,0.1,0.2,0.1s0.2,0.1,0.3,0.1c0.1,0.2,0.2,0.3,0.4,0.3h0.1
					c0,0.2,0.2,0.3,0.4,0.3l0.3,0.3c0,0.2,0.1,0.3,0.3,0.4l0,0c0,0.2,0.1,0.5,0.3,0.6l0,0c0,0.2,0.1,0.3,0.2,0.4v1.7
					c-0.2,0.6-0.5,1.1-1,1.4c-0.2,0-0.3,0.1-0.4,0.3c-0.5,0-1.1,0-1.6-0.1c-0.1-0.2-0.3-0.2-0.5-0.2c-0.4,0-0.8-0.3-1-0.7
					c0-0.1-0.1-0.3-0.2-0.3h-0.1c0-0.1-0.1-0.1-0.1-0.2c0-0.2-0.1-0.4-0.3-0.4v-0.2C2612.6,11803.8,2612.5,11803.6,2612.4,11803.4z"
					/>
				<path id="Path_36" class="st2" d="M2612.4,11881.6c0.1-0.3,0.2-0.7,0.4-1c0.1,0,0.1-0.1,0.1-0.2c0.2-0.3,0.4-0.6,0.7-0.8
					c0.3,0,0.4-0.2,0.6-0.4c0.1,0,0.1,0,0.1-0.1c0.1,0,0.1,0,0.1-0.1l0,0h0.2c0.1,0,0.3,0,0.3-0.2c0.6-0.1,1.2-0.1,1.7,0.1
					c0.7,0.2,1.2,0.9,1.3,1.6v1c-0.1,0.3-0.2,0.6-0.2,0.9c-0.2,0.1-0.3,0.4-0.3,0.6c-0.1,0.1-0.2,0.2-0.3,0.4l-0.1,0.1
					c-0.1,0.1-0.2,0.2-0.4,0.3l-0.2,0.2l0,0c-0.1,0-0.3,0-0.3,0.2c-0.1,0-0.1,0.1-0.2,0.1c-0.2,0-0.4,0.1-0.5,0.2h-1.5
					c-0.2-0.1-0.3-0.1-0.5-0.2c-0.1-0.2-0.3-0.3-0.5-0.4c-0.1-0.4-0.5-0.7-0.5-1.1C2612.4,11882.5,2612.4,11882,2612.4,11881.6z"/>
				<path id="Path_37" class="st3" d="M2536.4,11818.4h1.3l0.2,0.2c0.3,0.2,0.4,0.5,0.6,0.7c0,0.1,0,0.3,0.2,0.3
					c0,0.8,0,1.6,0.1,2.4c-0.2,0.1-0.3,0.2-0.3,0.4c-0.1,0.3-0.2,0.6-0.4,0.8c-0.1,0-0.1,0.1-0.1,0.2c-0.2,0.3-0.4,0.6-0.7,0.8
					c-0.3,0.3-0.7,0.3-0.9,0.6h-1c-0.1-0.2-0.2-0.3-0.4-0.3l-0.1-0.1l-0.2-0.2c-0.1-0.2-0.2-0.3-0.3-0.5c0-0.1,0-0.1-0.1-0.2
					c-0.3-0.4-0.1-0.9-0.2-1.3v-1.1c0-0.1,0.1-0.2,0.1-0.3v-0.4c0.1,0,0.3-0.1,0.2-0.3c0-0.1,0-0.2,0.1-0.3c0.2-0.1,0.2-0.2,0.2-0.4
					l0.1-0.1c0.1,0,0.2-0.1,0.2-0.2c0.1-0.1,0.1-0.2,0.2-0.3c0.2,0,0.3-0.2,0.4-0.4c0.1-0.1,0.2-0.2,0.4-0.2
					C2536.2,11818.7,2536.3,11818.6,2536.4,11818.4z"/>
				<path id="Path_38" class="st2" d="M2560.3,11803c-0.1-0.5,0.1-1,0.5-1.3c0.2-0.1,0.3-0.2,0.3-0.4c0-0.1,0.1-0.1,0.2-0.2
					c0.2,0,0.3-0.1,0.4-0.3c0.5-0.4,1-0.6,1.6-0.7c1.1-0.2,2.1,0.5,2.5,1.5v1.5c-0.2,0.1-0.2,0.3-0.2,0.5c-0.1,0.3-0.3,0.5-0.4,0.8
					l0,0c0,0.1-0.1,0.1-0.1,0.2c-0.2,0.1-0.4,0.3-0.5,0.5c-0.4,0.1-0.6,0.5-1,0.5c-0.1,0-0.3,0-0.3,0.2c-0.2,0-0.4,0.1-0.7,0.1
					c-0.2-0.1-0.3-0.1-0.5,0c-0.3-0.1-0.6-0.2-1-0.3c-0.1-0.2-0.3-0.4-0.5-0.5v-0.1c-0.1-0.3-0.2-0.5-0.3-0.8v-0.9
					C2560.4,11803.3,2560.4,11803.2,2560.3,11803C2560.4,11803.1,2560.3,11803,2560.3,11803z"/>
				<path id="Path_39" class="st2" d="M2546,11815c-0.4,0.1-0.7,0.2-1.1,0.2h-0.3c-0.2,0-0.3,0-0.4-0.1c-0.1-0.2-0.2-0.3-0.4-0.3
					c-0.2-0.2-0.3-0.4-0.5-0.5c-0.1-0.1-0.1-0.2-0.2-0.3c0-0.1,0-0.3-0.1-0.4v-1.8c0.2-0.3,0.4-0.6,0.5-1v-0.1
					c0.3-0.1,0.4-0.3,0.5-0.6c0.4-0.3,0.8-0.7,1.2-1c0.2,0,0.4,0,0.5-0.2c1.1-0.1,2.1,0.1,2.4,1.4v1.7c-0.1,0.2-0.1,0.5-0.2,0.7
					c-0.2,0.2-0.3,0.4-0.3,0.6c-0.4,0.4-0.8,0.9-1.2,1.4C2546.2,11814.7,2546,11814.8,2546,11815z"/>
				<path id="Path_40" class="st2" d="M2587.1,11796.6c-0.1-0.1-0.2-0.2-0.3-0.4c0-0.2-0.2-0.3-0.3-0.4v-0.1
					c-0.1-0.1-0.1-0.2-0.2-0.4c-0.1-0.6,0-1.3,0.2-1.9c0.2-0.1,0.3-0.2,0.3-0.4c0.1-0.1,0.2-0.2,0.3-0.4l0.1-0.1l0,0
					c0.2,0,0.3-0.1,0.4-0.3c0.2-0.2,0.4-0.1,0.6-0.2h1.7c0.2,0.1,0.4,0.1,0.6,0.2c0.2,0.2,0.4,0.3,0.6,0.4l0.2,0.2
					c0,0.2,0.1,0.3,0.3,0.4c0,0.2,0.1,0.3,0.2,0.4c0,0.2,0,0.5,0.3,0.6c0,0.4,0,0.7-0.1,1.1c-0.2,0.1-0.2,0.3-0.2,0.5
					c-0.1,0.1-0.1,0.3-0.2,0.4l-0.1,0.1c-0.1,0-0.2,0.2-0.2,0.3c-0.2,0-0.3,0.1-0.4,0.3l-0.6,0.3c-0.2,0-0.4,0-0.5,0.2h-1.4
					c-0.1-0.2-0.3-0.2-0.5-0.2c-0.3-0.1-0.5-0.2-0.7-0.4C2587.2,11796.7,2587.2,11796.7,2587.1,11796.6z"/>
				<path id="Path_41" class="st2" d="M2552.8,11805c-0.3-0.7-0.3-1.6,0-2.3c0.4-0.4,0.7-0.9,0.9-1.4l0.1-0.1c0.3,0,0.4-0.2,0.5-0.5
					c0.3,0,0.4-0.2,0.6-0.4c0.5-0.2,1.1-0.2,1.7-0.2c0.2,0.1,0.3,0.1,0.5,0.2c0.1,0.2,0.3,0.3,0.5,0.4c0.5,0.9,0.5,1.9,0.2,2.8
					c-0.1,0-0.1,0-0.1,0.1l0,0c0,0.1-0.1,0.1-0.1,0.2c-0.1,0.1-0.1,0.3-0.2,0.4c-0.2,0.1-0.3,0.2-0.3,0.4l0,0l-0.2,0.2l-0.3,0.3
					c-0.2,0-0.3,0.1-0.4,0.3c-0.1,0.1-0.3,0.1-0.4,0.2c-0.2,0-0.4,0-0.5,0.2c-0.1,0-0.2,0.1-0.4,0.1c-0.3-0.1-0.6-0.1-0.9,0
					c-0.3-0.2-0.6-0.3-0.9-0.5C2553.1,11805.2,2553,11805.1,2552.8,11805z"/>
				<path id="Path_42" class="st2" d="M2581.2,11797.4c-0.5,0-1-0.1-1.4-0.1c-0.1-0.2-0.2-0.2-0.3-0.2c-0.7,0-0.9-0.6-1.2-1
					c0-0.2,0-0.4-0.2-0.5v-1.2c0.2-0.1,0.2-0.3,0.2-0.5c0.3-0.9,1.1-1.6,2-1.9h1.5c0.2,0,0.3,0,0.5,0.1l0.2,0.2c0.1,0,0.2,0,0.2,0.1
					s0,0.1,0.1,0.1c0.3,0.3,0.6,0.8,0.8,1.2c0,0.2,0,0.4,0.2,0.6c0.1,0.5-0.2,0.9-0.2,1.3c-0.2,0.1-0.2,0.2-0.2,0.3
					c-0.1,0.1-0.1,0.3-0.2,0.4l-0.2,0.2c-0.1,0.1-0.2,0.2-0.3,0.2c-0.2,0-0.3,0.1-0.4,0.3c-0.2,0.1-0.3,0.1-0.5,0.2
					C2581.5,11797.1,2581.3,11797.1,2581.2,11797.4z"/>
				<path id="Path_43" class="st2" d="M2594.8,11889.4c0.2-0.6,0.5-1.1,1-1.5c0.2-0.1,0.4-0.1,0.5-0.4h0.3c0.2,0,0.4,0,0.5-0.2
					c0.4,0,0.7-0.1,1.1-0.1c0.1,0.3,0.4,0.3,0.6,0.3c0.1,0.1,0.2,0.3,0.5,0.2c0.3,0.3,0.6,0.6,0.8,0.9c0.2,0.6,0.2,1.1,0.2,1.7
					c0,0.1-0.1,0.1-0.1,0.2c-0.1,0.1-0.1,0.3-0.1,0.4c-0.2,0.1-0.3,0.2-0.3,0.4c-0.4,0.5-0.9,0.9-1.5,1.2c-0.2,0-0.5-0.1-0.7,0.2
					c-0.3-0.1-0.6,0-0.8,0.1c-0.1-0.3-0.4-0.3-0.6-0.3c-0.7-0.2-1.3-0.8-1.5-1.5C2594.8,11890.5,2594.9,11890,2594.8,11889.4z"/>
				<path id="Path_44" class="st2" d="M2557.7,11839l0.9-0.3h1.5c0.1,0.1,0.1,0.1,0.2,0.1h0.2c0.3,0.3,0.6,0.6,0.9,0.8
					c0,0.1,0.1,0.1,0.1,0.2c0,0.1,0,0.3,0.2,0.3c0,0.1,0.1,0.1,0.1,0.2c-0.1,0.3-0.4,0.4-0.6,0.7c-0.6,0.5-0.7,1.5-0.2,2.1
					c0.2,0.3,0.5,0.6,0.7,0.9c-0.1,0.2-0.2,0.3-0.2,0.5l-0.3,0.3c-0.2-0.4-0.4-0.7-0.7-1c-0.9-1.1-1.8-1-2.8,0
					c-0.3,0.4-0.4,0.9-0.7,1.2c0-0.2-0.1-0.3-0.4-0.3c-0.1-0.1-0.1-0.2-0.2-0.3c0-0.1,0-0.2-0.2-0.2c-0.1-0.3-0.2-0.7-0.4-1v-2
					c0-0.1,0-0.3,0.1-0.4C2556.6,11840.2,2557.1,11839.6,2557.7,11839z"/>
				<path id="Path_45" class="st2" d="M2625.7,11880.4v1.1c-0.2,0.1-0.2,0.3-0.2,0.5c-0.4,1.3-1.4,2.3-2.7,2.7h-1.2
					c-0.2-0.1-0.4-0.2-0.6-0.2c-0.1-0.2-0.2-0.3-0.4-0.4c-0.1-0.1-0.1-0.3-0.2-0.4c0-0.2,0-0.5-0.2-0.6v-0.9
					c0.2-0.1,0.2-0.3,0.2-0.5c0-0.1,0-0.3,0.1-0.4c0.1-0.1,0.1-0.2,0.2-0.2c0.1-0.3,0.3-0.5,0.5-0.8c0.1,0,0.3-0.1,0.3-0.2
					c0,0,0,0,0-0.1l0.2-0.2c0.2,0,0.4-0.1,0.4-0.3c0.2-0.1,0.4-0.2,0.6-0.2c0.1,0,0.3,0,0.3-0.2c0.2,0,0.3-0.1,0.5-0.1
					c0.2,0.1,0.3,0.1,0.5,0c0.2,0,0.3,0.1,0.5,0.1c0,0.2,0.2,0.2,0.3,0.2s0.1,0,0.2,0.1c0.1,0.3,0.2,0.4,0.5,0.5v0.3
					C2625.5,11880.1,2625.5,11880.3,2625.7,11880.4z"/>
				<path id="Path_46" class="st2" d="M2596.7,11797.1c-0.4-0.1-0.7-0.3-1-0.5l-0.3-0.3c0-0.1-0.1-0.1-0.1-0.2l-0.2-0.2v-0.1
					c-0.1-0.1-0.1-0.1-0.1-0.2v-1.9c0.1-0.3,0.2-0.5,0.4-0.7l0.1-0.1c0.4-0.2,0.6-0.6,1.1-0.7h1.7c0.3,0.1,0.5,0.2,0.8,0.2
					c0.1,0.2,0.2,0.3,0.4,0.3c0.1,0.1,0.2,0.2,0.4,0.3l0.1,0.1c0.1,0.1,0.1,0.2,0.2,0.4c0,0.1,0,0.2,0.1,0.2
					c0.1,0.1,0.1,0.1,0.1,0.2c-0.1,0.2,0,0.3,0.2,0.4c0.1,0.6,0,1.3-0.2,1.9c-0.2,0.1-0.3,0.2-0.3,0.4l-0.2,0.2
					c-0.2,0-0.3,0.1-0.4,0.3c-0.2,0.1-0.3,0.1-0.5,0.2c-0.2,0-0.5,0-0.6,0.2h-1C2597.1,11797.1,2596.9,11797.1,2596.7,11797.1z"/>
				<path id="Path_47" class="st2" d="M2602.8,11889.9c0.1-0.3,0.2-0.5,0.2-0.8c0.2-0.1,0.3-0.2,0.3-0.4l0.1-0.1
					c0.2-0.1,0.4-0.3,0.5-0.5c0.1,0,0.1,0,0.1-0.1l0,0c0.2,0,0.2-0.1,0.3-0.3c0.2-0.1,0.4-0.1,0.6-0.2c0.2,0,0.4,0,0.5-0.2h1.2
					c0.2,0.2,0.4,0.2,0.7,0.2c0.1,0.1,0.2,0.1,0.3,0.2c0.1,0.2,0.2,0.3,0.4,0.3c0.4,0.7,0.5,1.6,0.3,2.4c-0.2,0.1-0.3,0.2-0.3,0.4
					v0.2c-0.2,0.1-0.3,0.3-0.4,0.5c-0.2,0.2-0.5,0.4-0.7,0.6c-0.3,0.1-0.5,0.2-0.7,0.4h-2.3c-0.1-0.2-0.2-0.3-0.4-0.3l0,0
					c-0.1,0-0.1-0.1-0.2-0.2l0,0c0-0.2-0.2-0.3-0.3-0.4c-0.1-0.2-0.2-0.4-0.2-0.6C2602.8,11890.7,2602.8,11890.3,2602.8,11889.9z"/>
				<path id="Path_48" class="st2" d="M2602.8,11793.6c0.1-0.2,0.2-0.4,0.2-0.6c0-0.1,0-0.1,0.1-0.2l0,0c0-0.1,0.1-0.1,0.2-0.2
					l0.2-0.2c0.2,0,0.3-0.1,0.4-0.3h2c0.2,0.1,0.4,0.1,0.6,0.2c0.1,0.1,0.2,0.3,0.4,0.3c0.2,0.2,0.4,0.4,0.6,0.5v0.1h0.1
					c0,0.1,0,0.1,0.1,0.1l0,0c0,0.2,0.1,0.3,0.3,0.4v0.2c0,0.1,0,0.3,0.2,0.3c0,0.1,0.1,0.2,0.1,0.4c0,0.1,0.1,0.2,0.2,0.3v0.8
					c-0.3,0.2-0.3,0.6-0.4,0.9c-0.2,0.3-0.5,0.6-0.9,0.7c-0.2,0-0.4,0-0.5,0.2h-1.2c-0.1-0.2-0.3-0.2-0.5-0.2
					c-0.5-0.1-0.7-0.5-1.2-0.7c0-0.1-0.1-0.3-0.2-0.3h-0.1c0-0.1,0-0.1-0.1-0.1c0-0.2-0.1-0.4-0.3-0.5c-0.1-0.3-0.1-0.6-0.2-0.8
					C2602.9,11794.5,2602.8,11794.1,2602.8,11793.6L2602.8,11793.6z"/>
				<path id="Path_49" class="st3" d="M2574,11792c0.2,0.1,0.4,0.2,0.6,0.2c0.1,0.2,0.2,0.3,0.4,0.3c0.1,0.2,0.2,0.3,0.2,0.5
					c0,0.1,0,0.3,0.2,0.3c0,0.1,0,0.3,0.1,0.4c-0.1,0.3-0.1,0.5,0,0.8c0,0.2-0.1,0.3-0.1,0.5c-0.2,0-0.2,0.2-0.2,0.3
					c-0.5,0.7-0.9,1.5-1.9,1.7c-0.2,0-0.4,0-0.6,0.2h-1.1c-0.1-0.2-0.3-0.2-0.5-0.2c-0.5-0.2-0.9-0.6-1-1.2v-1.5
					c0-0.5,0.3-1.1,0.7-1.4c0.1,0,0.3-0.1,0.3-0.2v-0.1l0.2-0.2c0.3-0.1,0.7-0.2,0.9-0.5h0.3C2573,11792,2573.5,11792,2574,11792z"
					/>
				<path id="Path_50" class="st2" d="M2539,11814.9c-0.1,0-0.1,0.1-0.2,0.1c-0.1,0-0.3,0-0.3,0.2c-0.2,0-0.3,0-0.5,0.1h-0.5
					c-0.2-0.1-0.3-0.1-0.5-0.2c-0.3-0.4-0.5-0.7-0.8-1.1c0-0.5,0.1-1.1,0.1-1.6c0.2-0.1,0.2-0.3,0.2-0.5c0-0.4,0.2-0.9,0.5-1.2
					c0.1,0,0.2-0.1,0.2-0.3l0.1-0.1c0.3-0.2,0.6-0.5,0.8-0.9c0.2-0.1,0.4-0.2,0.6-0.2c0.1,0,0.3,0,0.3-0.2h1.1
					c0,0.2,0.2,0.2,0.3,0.2h0.1c0.1,0.1,0.1,0.2,0.2,0.2c0.1,0.3,0.3,0.5,0.4,0.8v1.7c-0.1,0.2-0.2,0.5-0.2,0.7v0.1
					c-0.2,0.1-0.3,0.2-0.3,0.4c-0.1,0.2-0.3,0.3-0.2,0.6C2539.9,11814,2539.4,11814.5,2539,11814.9z"/>
				<path id="Path_51" class="st2" d="M2550.8,11801.6v0.5c-0.2,0.7-0.5,1.3-0.7,2l0,0l-0.1,0.1l-0.1,0.1l-0.2,0.2
					c-0.4,0.4-0.8,0.8-1.3,1.1c-0.2,0-0.4,0.1-0.4,0.3h-0.2c-0.5,0-1-0.1-1.5-0.3l-0.2-0.2c0-0.2-0.1-0.3-0.3-0.4
					c-0.1-0.5-0.1-0.9-0.2-1.4c0.2-0.3,0.4-0.7,0.4-1.1c0.6-1.7,2.2-2.7,4-2.5c0.1,0.2,0.2,0.4,0.4,0.4c0.1,0.2,0.1,0.3,0.2,0.5
					C2550.6,11801.3,2550.6,11801.5,2550.8,11801.6z"/>
				<path id="Path_52" class="st2" d="M2613.4,11887.4h1c0.1,0.2,0.3,0.2,0.5,0.2l0,0l0.1,0.1c0,0.1,0,0.1,0.1,0.1l0,0
					c0,0.2,0.1,0.2,0.2,0.2c0,0.1,0.1,0.1,0.1,0.2l0.2,0.2c0.2,0.7,0.2,1.3,0,2c-0.2,0.1-0.3,0.4-0.3,0.6c-0.1,0.1-0.1,0.2-0.2,0.3
					c-0.3,0.3-0.6,0.6-0.8,0.9c-0.4,0.1-0.7,0.5-1.1,0.5c-0.3,0-0.6-0.1-0.8,0.3h-0.2c-0.2-0.2-0.5-0.4-0.8-0.3
					c-0.2-0.1-0.4-0.2-0.5-0.4c-0.2-0.2-0.2-0.5-0.5-0.6c-0.1-0.7-0.1-1.3,0-2c0.2-0.1,0.3-0.2,0.3-0.4v-0.2
					c0.2-0.1,0.4-0.3,0.4-0.5c0.1-0.3,0.4-0.3,0.5-0.5c0.2,0,0.3-0.1,0.4-0.3c0.2-0.1,0.4-0.2,0.6-0.2
					C2613.1,11887.6,2613.3,11887.6,2613.4,11887.4z"/>
				<path id="Path_53" class="st2" d="M2563.3,11793.2c0.3-0.2,0.6-0.4,0.8-0.7c0.2,0,0.3-0.1,0.4-0.3c0.2-0.2,0.4-0.1,0.6-0.2h1.5
					c0.1,0,0.2,0,0.3,0.1c0.1,0.2,0.3,0.4,0.6,0.5c0.1,0.2,0.1,0.3,0.2,0.5v1.7c-0.3,1.1-1.1,2-2.2,2.4c-0.2,0-0.4,0-0.5,0.2h-1.2
					c-0.1-0.2-0.3-0.2-0.5-0.2c-0.3-0.3-0.7-0.5-0.7-1v-1.3c0.1-0.2,0.2-0.5,0.2-0.7c0.2-0.1,0.3-0.2,0.3-0.4l0,0
					C2563.2,11793.4,2563.3,11793.3,2563.3,11793.2z"/>
				<path id="Path_54" class="st2" d="M2591.2,11788.7c-0.2,0.1-0.3,0.3-0.5,0.4c-0.2,0-0.3,0.1-0.4,0.3c-1,0.3-2,0.1-2.8-0.5
					c-0.1-0.2-0.2-0.4-0.4-0.4c-0.1-0.2-0.2-0.4-0.2-0.6v-1.7c0.1-0.2,0.1-0.3,0.2-0.5l0.2-0.2c1-1.1,1.9-1.3,3.7-0.5
					c0.1,0.1,0.2,0.2,0.3,0.2l0,0c0,0.1,0.1,0.2,0.2,0.3l0,0c0,0.2,0.1,0.3,0.3,0.4c0.5,0.9,0.4,2-0.3,2.7
					C2591.2,11788.6,2591.2,11788.6,2591.2,11788.7z"/>
				<path id="Path_55" class="st2" d="M2612.7,11791.9c0.3,0.1,0.6,0.1,0.8,0.2c0.6,0.3,1.7,1.1,1.7,1.6c0.6,0.6,0.8,1.5,0.6,2.3
					c-0.2,0.1-0.2,0.3-0.2,0.5c-0.8,0.8-2,1.1-3.1,0.6c-0.3-0.3-0.6-0.5-1-0.7c-0.2-0.3-0.4-0.6-0.7-0.8v-0.1c0-0.2-0.1-0.4-0.3-0.4
					c-0.2-0.5-0.3-1.1-0.2-1.7c0.1-0.1,0.1-0.1,0.1-0.2c0.1,0,0.1,0,0.1-0.1c0.2-0.1,0.3-0.2,0.3-0.4c0.2-0.2,0.5-0.4,0.7-0.5
					C2611.9,11792.1,2612.3,11792,2612.7,11791.9z"/>
				<path id="Path_56" class="st2" d="M2595.4,11784.7c1.1-0.6,2,0,2.9,0.5c0,0.2,0.2,0.3,0.4,0.4c1,1.7,0.9,2.6-0.3,3.5
					c-0.1,0-0.1,0.1-0.2,0.1c-0.7,0.3-1.5,0.3-2.3,0.1c-0.1-0.2-0.2-0.3-0.4-0.3c-0.1-0.1-0.2-0.1-0.3-0.2c-0.1-0.2-0.2-0.3-0.4-0.3
					c0-0.4-0.6-0.6-0.5-1v-1.3c0-0.5,0.3-1,0.7-1.2C2595.2,11785,2595.3,11784.9,2595.4,11784.7z"/>
				<path id="Path_57" class="st2" d="M2556.6,11793.1c0.3-0.1,0.4-0.4,0.7-0.5c0.2,0,0.3-0.1,0.4-0.3c0.1,0,0.2-0.1,0.3-0.1
					c0.6-0.1,1.1-0.1,1.7-0.1c1.1,0.7,1.2,1.3,0.7,3c-0.1,0-0.1,0.1-0.1,0.2c-0.1,0.2-0.2,0.3-0.2,0.4c-0.3,0.3-0.6,0.6-0.8,0.9
					c-0.1,0-0.1,0-0.1,0.1c-0.2,0-0.2,0.1-0.3,0.3c-0.2,0.1-0.4,0.2-0.6,0.2c-0.2,0-0.4,0-0.5,0.2h-1.2c-0.1-0.2-0.2-0.2-0.3-0.2
					c-0.2-0.2-0.4-0.4-0.5-0.7v-1.8c0-0.1,0.1-0.1,0.1-0.2c0-0.1,0-0.2,0.1-0.3c0.2-0.1,0.3-0.2,0.3-0.4c0.1-0.1,0.1-0.2,0.2-0.3
					C2556.5,11793.4,2556.6,11793.3,2556.6,11793.1z"/>
				<path id="Path_58" class="st2" d="M2598.3,11895.6c0.2,0.1,0.4,0.3,0.6,0.5v0.1h0.1c0.4,0.8,0.4,1.6,0,2.4
					c-0.1,0.1-0.1,0.2-0.2,0.3c0,0.1-0.1,0.1-0.2,0.2c-0.1,0-0.3,0.1-0.3,0.2v0.1l0,0l-0.2,0.2l0,0c-0.2,0-0.4,0.1-0.4,0.3
					c-0.7,0.2-1.6,0.2-2.3,0c-0.5-0.3-0.9-0.7-1.1-1.3v-1.5c0.1-0.2,0.2-0.4,0.2-0.6c0.2-0.3,0.4-0.5,0.7-0.7
					c0.1-0.1,0.2-0.2,0.3-0.2s0.3,0,0.3-0.1c0.7-0.1,1.4-0.2,2.1-0.1C2598,11895.6,2598.2,11895.6,2598.3,11895.6L2598.3,11895.6z"
					/>
				<path id="Path_59" class="st2" d="M2542,11805.5c-0.3,0.1-0.5,0.2-0.8,0.4c-0.2-0.1-0.3-0.1-0.5,0.1h-0.3
					c-0.2-0.1-0.5-0.2-0.7-0.3l-0.2-0.2c0-0.2,0-0.4-0.2-0.5v-1.2c0.2-0.2,0.2-0.4,0.2-0.7c0.1-0.2,0.1-0.4,0.2-0.6
					c0.2-0.1,0.3-0.2,0.3-0.4c0.1-0.1,0.1-0.2,0.2-0.3c0.2-0.1,0.4-0.2,0.3-0.5l0.2-0.2c0.3,0,0.4-0.3,0.6-0.5h0.1
					c0.1,0,0.2-0.1,0.2-0.2c0.1,0,0.1,0,0.1-0.1c0.2,0,0.3,0,0.4-0.2c0.5,0,0.9-0.5,1.4,0c0.1,0.3,0.3,0.5,0.5,0.7v1.4
					c-0.1,0.3-0.1,0.6-0.2,0.8c-0.2,0.2-0.3,0.4-0.3,0.7c0,0.1,0,0.2-0.1,0.2c-0.3,0.2-0.5,0.4-0.5,0.7c-0.3,0-0.4,0.4-0.6,0.6
					C2542.2,11805.2,2542.1,11805.3,2542,11805.5z"/>
				<path id="Path_60" class="st2" d="M2602.4,11784.7c0.4-0.1,0.8-0.1,1.3-0.2c0.4,0.2,0.9,0.3,1.3,0.5l0,0c0.1,0,0.1,0.1,0.2,0.1
					l0.1,0.1c0.1,0.2,0.2,0.3,0.4,0.3l0,0c0.1,0.4,0.3,0.7,0.6,1c0,0.2,0.1,0.3,0.1,0.5v1c-0.3,1-1.3,1.6-2.3,1.4
					c-0.2,0-0.4-0.1-0.6-0.1c-0.1-0.2-0.2-0.3-0.4-0.3c-0.1-0.1-0.2-0.1-0.3-0.2c-0.1-0.1-0.2-0.3-0.4-0.3c0-0.1-0.1-0.2-0.2-0.2
					c0-0.1-0.1-0.3-0.2-0.3h-0.1v-0.1c0-0.2-0.1-0.3-0.3-0.4c-0.2-0.6-0.2-1.2,0-1.8c0.2-0.1,0.3-0.2,0.3-0.4l0.2-0.2
					C2602.2,11785,2602.4,11784.9,2602.4,11784.7z"/>
				<path id="Path_61" class="st2" d="M2606.3,11896.1c0,0.1,0.1,0.2,0.1,0.4v1.2c0,0.1,0,0.3-0.1,0.4c-0.1,0.1-0.1,0.2-0.2,0.2
					c-0.2,0.3-0.3,0.5-0.5,0.8c-0.2,0-0.3,0.2-0.4,0.4c-0.1,0.1-0.2,0.2-0.4,0.2c-0.1,0-0.1,0.1-0.2,0.1c-0.7,0.3-1.5,0.4-2.3,0.1
					c-0.1-0.2-0.2-0.3-0.4-0.3l-0.2-0.2c0-0.1,0-0.3-0.2-0.3c-0.3-0.6-0.3-1.3-0.1-1.9c0.2-0.1,0.3-0.2,0.3-0.4v-0.1l0.2-0.2
					c0.1-0.1,0.1-0.1,0.1-0.2l0.2-0.2l0,0l0.2-0.2c0.1,0,0.1-0.1,0.2-0.1l0.2-0.2h0.1c0.2,0,0.4-0.1,0.4-0.3c0.7,0,1.3,0,2,0
					l0.2,0.2c0.1,0,0.1,0.1,0.2,0.1C2605.9,11895.8,2606.1,11896,2606.3,11896.1L2606.3,11896.1z"/>
				<path id="Path_62" class="st2" d="M2550.6,11792.8c0.3-0.2,0.5-0.3,0.8-0.5c0.1-0.1,0.2-0.1,0.2-0.2c0.1,0,0.3,0,0.4-0.1h1
					c0.2,0.1,0.3,0.1,0.5,0.2c0,0.1,0,0.3,0.2,0.3c0.1,0.6,0.1,1.1,0,1.7c-0.2,0.1-0.2,0.2-0.1,0.3c-0.5,1.3-1.5,2.2-2.8,2.7
					c-0.7,0.2-1.5-0.1-1.8-0.7v-1.5c0.1-0.2,0.1-0.3,0.2-0.5c0.2-0.1,0.3-0.3,0.3-0.5c0.1-0.1,0.1-0.2,0.2-0.3
					c0.2-0.1,0.4-0.2,0.4-0.5c0.1,0,0.1-0.1,0.1-0.2C2550.5,11793.1,2550.6,11793,2550.6,11792.8z"/>
				<path id="Path_63" class="st2" d="M2566.2,11785.6L2566.2,11785.6c0.3,0,0.4-0.2,0.5-0.4c0.7-0.5,1.6-0.7,2.4-0.6
					c0.4,0.3,0.7,0.7,1,1.1c0,0.5,0,1-0.1,1.5c-0.2,0.1-0.3,0.2-0.3,0.4c-0.1,0.2-0.2,0.4-0.4,0.5c-0.1,0-0.1,0-0.1,0.1
					c-0.1,0.1-0.1,0.2-0.2,0.3c-0.2,0-0.3,0.1-0.4,0.3c-0.2,0-0.3,0.1-0.4,0.2c-0.2,0-0.4,0.1-0.4,0.3c-0.5,0.1-0.9,0.1-1.4,0.1
					c-0.1-0.1-0.3-0.2-0.5-0.2l-0.3-0.3c-0.1-0.2-0.1-0.4-0.3-0.5c-0.1-0.5,0-0.9,0.1-1.4c0.2-0.1,0.2-0.4,0.3-0.6
					c0.1-0.2,0.2-0.3,0.2-0.5C2566.1,11786,2566.2,11785.8,2566.2,11785.6z"/>
				<path id="Path_64" class="st2" d="M2628.5,11891.4C2628.5,11891.4,2628.4,11891.5,2628.5,11891.4L2628.5,11891.4
					c-0.3,0.1-0.4,0.3-0.5,0.5c-0.3,0.2-0.5,0.3-0.8,0.5l-0.2,0.2h-0.2c-0.6,0.1-1.1,0.1-1.7,0c-0.5-0.4-0.7-1.1-0.6-1.7
					c0.1-0.1,0.3-0.2,0.3-0.3c0.1-1.3,1-2,1.8-2.9c0.2-0.1,0.5-0.2,0.7-0.3h0.1c0,0,1.3,0.1,1.8,0.2c0.1,0.2,0.2,0.5,0.3,0.7v0.8
					c-0.1,0.7-0.6,1.1-0.7,1.8C2628.6,11891.1,2628.5,11891.2,2628.5,11891.4z"/>
				<path id="Path_65" class="st2" d="M2559,11789c-0.2-0.3-0.4-0.8-0.3-1.2c0-0.1,0.1-0.1,0.1-0.2l0,0c0.1,0,0.1,0,0.1-0.1
					c0.4-1,1.1-1.8,2-2.3c0.7-0.4,1.4-0.8,2.2-0.2s0.4,1.4,0.3,2.1c-0.2,0.1-0.3,0.2-0.3,0.4v0.1c0,0.1-0.1,0.1-0.2,0.2
					c-0.3,0.4-0.7,0.7-1,1.1c-0.2,0-0.3,0.1-0.3,0.2h-0.1c-0.4,0.1-0.7,0.1-0.9,0.4h-0.5c-0.2-0.1-0.5-0.3-0.7-0.2l-0.2-0.2
					L2559,11789z"/>
				<path id="Path_66" class="st2" d="M2634,11887.4c0.3,0,0.7,0,1,0.1l0,0c0.6,0.4,0.8,1.2,0.5,1.8c-0.2,0.5-0.2,1.1-0.7,1.4
					c-0.3,0.2-0.4,0.4-0.5,0.7c-0.6,0.5-1.2,0.9-1.8,1.2h-1.3l-0.1-0.1c0-0.2,0-0.4-0.2-0.4v-1.2c0.2-0.1,0.2-0.3,0.2-0.5v-0.3
					l0.2-0.2c0.1-0.1,0.1-0.2,0.2-0.3c0.1,0,0.1-0.1,0.1-0.2c0.4-0.4,0.7-0.8,1-1.3c0.2,0,0.5-0.1,0.5-0.4c0.2-0.1,0.4-0.2,0.6-0.2
					C2633.8,11887.6,2634,11887.6,2634,11887.4z"/>
				<path id="Path_67" class="st2" d="M2544.6,11797.3h-0.9c0-0.2-0.1-0.2-0.3-0.3c-0.6-0.7-0.2-1.4-0.1-2.1
					c0.2-0.1,0.2-0.2,0.2-0.4c0-0.1,0-0.2,0.1-0.2c0.2-0.2,0.4-0.3,0.5-0.6l1.2-1.2c0.2,0,0.3-0.1,0.4-0.3c0.2-0.1,0.4-0.1,0.6-0.2
					c1.4-0.1,1.5,0,1.7,1.4c0,0.2-0.1,0.3-0.1,0.5c-0.1,0.1-0.2,0.2-0.2,0.3v0.3c-0.3,0.3-0.5,0.6-0.7,1l-1,1
					c-0.2,0-0.3,0.1-0.4,0.3c-0.1,0.1-0.3,0.1-0.4,0.2C2544.9,11797.1,2544.7,11797.1,2544.6,11797.3z"/>
				<path id="Path_68" class="st2" d="M2623.6,11895.4c1.6-0.3,1.7-0.3,2.1,0.7l0,0v0.1c0,0.2-0.1,0.5-0.1,0.7
					c-0.2,0.1-0.2,0.3-0.2,0.5l-0.9,1.2c-0.1,0-0.1,0.1-0.2,0.2c-0.3,0.2-0.6,0.5-0.9,0.7c-0.1,0.1-0.1,0.1-0.2,0.1h-0.2
					c-0.2,0-0.3,0.1-0.4,0.3h-0.1c-0.6,0.2-1.2,0.4-1.6-0.1c-0.5-0.5-0.3-1.1-0.1-1.7c0-0.2,0.1-0.3,0.2-0.5c0.1,0,0.1-0.1,0.1-0.2
					c0.1-0.3,0.5-0.5,0.6-0.8c0.2,0,0.3-0.2,0.4-0.4c0.3-0.2,0.6-0.4,0.9-0.7C2623.5,11895.6,2623.6,11895.6,2623.6,11895.4z"/>
				<path id="Path_69" class="st2" d="M2593.7,11780.5v-1c0.1-0.1,0.1-0.2,0.1-0.3v-0.2l0.2-0.2c0.4-0.5,1.1-0.8,1.8-0.8
					c0.9,0.3,1.7,0.9,2.2,1.8c0.2,1.6-0.3,2.3-1.9,2.6c-0.7,0-1.3-0.3-1.8-0.8c0-0.1-0.1-0.2-0.2-0.2c-0.2-0.2-0.3-0.5-0.4-0.7
					C2593.8,11780.7,2593.8,11780.6,2593.7,11780.5z"/>
				<path id="Path_70" class="st2" d="M2587.3,11779.2l0.7-0.7c0.3,0,0.6-0.1,0.8-0.3c0.3,0,0.6-0.1,0.9-0.1
					c0.2,0.3,0.6,0.4,0.9,0.4c0.8,0.5,1.2,1.6,0.8,2.5c-0.4,0.8-1.3,1.4-2.2,1.4h-0.7c-0.3-0.1-0.5-0.2-0.8-0.3
					c-0.1-0.2-0.3-0.4-0.5-0.5v-0.1c0-0.1,0-0.3-0.2-0.3v-1.4C2587.2,11779.7,2587.4,11779.5,2587.3,11779.2z"/>
				<path id="Path_71" class="st2" d="M2556.1,11788.5c-0.4,0.1-0.6,0.4-1,0.6c-0.1,0-0.2,0.1-0.2,0.2c-0.4,0-0.7,0.1-1,0.3
					c-0.1-0.2-0.2-0.2-0.3-0.1c-0.2-0.2-0.4-0.3-0.5-0.4c0-0.1,0-0.3-0.2-0.3v-0.9c0.2-0.2,0.2-0.4,0.2-0.7c0.1-0.1,0.1-0.2,0.2-0.2
					c0.2-0.1,0.3-0.2,0.3-0.4l0,0c0.2-0.1,0.3-0.3,0.4-0.5c0.5-0.5,1.1-1,1.8-1.3c1.1-0.5,2.1-0.2,1.8,1.2v0.3
					c0,0.1-0.1,0.1-0.1,0.2c-0.1,0.1-0.1,0.3-0.1,0.4c-0.2,0.1-0.3,0.2-0.3,0.4c-0.1,0.1-0.2,0.2-0.3,0.4l-0.1,0.1
					c-0.1,0.1-0.1,0.2-0.2,0.3C2556.3,11788.2,2556.1,11788.3,2556.1,11788.5z"/>
				<path id="Path_72" class="st2" d="M2585.1,11779.6c-0.1,0.3-0.1,0.5,0,0.8c-0.2,0.1-0.3,0.2-0.3,0.4c-0.2,0.3-0.4,0.5-0.6,0.8
					l-0.2,0.2c-0.1,0.1-0.2,0.1-0.3,0.2c-0.2,0-0.5,0.1-0.6,0.3c-0.4-0.1-0.8,0.2-1.2,0.2c-0.1,0-0.1-0.1-0.2-0.1
					c-0.1-0.1-0.2-0.1-0.4-0.2c-0.1,0-0.1-0.1-0.2-0.1c-0.2-0.1-0.4-0.3-0.5-0.5c0-0.1,0-0.3-0.2-0.3v-1.2c0.2,0,0.2-0.2,0.2-0.3
					c0.2-0.5,0.6-0.9,1-1.2c0.2,0,0.4-0.1,0.4-0.3c0.6-0.1,1.1-0.1,1.7,0c0.1,0.2,0.2,0.3,0.4,0.3c0.2,0.2,0.3,0.4,0.5,0.5
					C2584.8,11779.2,2584.8,11779.5,2585.1,11779.6z"/>
				<path id="Path_73" class="st2" d="M2576.6,11782.3c-0.4,0-0.8,0.1-1.2,0.1c-0.5-0.2-0.9-0.5-1.2-1v-0.6c0.1-1,0.8-1.9,1.7-2.4
					c0.2,0,0.3-0.1,0.4-0.3c0.5-0.1,1-0.1,1.5,0c0.2,0.3,0.5,0.5,0.7,0.8c0.3,0.6,0,1.2-0.2,1.8c0,0.1,0,0.1-0.1,0.2l0,0l-0.1,0.1
					c-0.1,0-0.1,0-0.1,0.1l0,0l-0.2,0.2l0,0c-0.3,0.1-0.5,0.3-0.7,0.5h-0.2C2576.9,11782,2576.7,11782.1,2576.6,11782.3z"/>
				<path id="Path_74" class="st2" d="M2542.3,11792.1c0.5,0.6,0,1.2,0,1.9c-0.6,0.8-1.2,1.6-1.8,2.5c-0.1,0-0.1,0.1-0.2,0.1
					c-0.2,0-0.4,0.1-0.4,0.3c-0.3,0.1-0.6,0.2-0.9,0.4c-0.3,0.3-0.8,0.2-1-0.1l-0.1-0.1c0-0.2,0-0.4-0.2-0.5v-0.3
					c0.2-0.2,0.2-0.4,0.2-0.7c0-0.5,0.5-0.8,0.6-1.3c0.2-0.2,0.5-0.4,0.5-0.7c0.1,0,0.1,0,0.1-0.1c0.1,0,0.1,0,0.1-0.1l0.3-0.3
					c0.3-0.1,0.5-0.2,0.5-0.5c0.1,0,0.1,0,0.1-0.1c0.2,0,0.4-0.1,0.5-0.3c0.2-0.1,0.4-0.1,0.5-0.2
					C2541.5,11792,2541.9,11792,2542.3,11792.1z"/>
				<path id="Path_75" class="st2" d="M2571.8,11781.3c-0.5,0.4-1,0.8-1.6,1c-0.5,0.3-1.1,0.2-1.5-0.1c-0.5-0.4-0.7-1-0.4-1.6
					c0.5-1.3,1.6-2.3,3-2.6c0.6-0.1,1.3,0.3,1.4,1c0,0.1,0,0.2,0,0.3c0,0.4-0.1,0.7-0.2,1.1
					C2572.1,11780.6,2572,11781,2571.8,11781.3z"/>
				<path id="Path_76" class="st2" d="M2615.4,11900c-0.6-0.5-0.5-1.1-0.4-1.8c0-0.1,0.1-0.1,0.1-0.2c0.1,0,1.7-2.1,2.3-2.6
					c0.3,0,0.5,0,0.7-0.2c0.5,0.3,1.1,0.4,1.6,0.7c0.1,1-0.2,1.9-0.8,2.7c-0.3,0.2-0.5,0.5-0.7,0.8c-0.2,0.1-0.3,0.2-0.5,0.3
					c-0.2,0-0.4,0.1-0.4,0.3C2616.7,11900,2616,11900.4,2615.4,11900z"/>
				<path id="Path_77" class="st2" d="M2549.1,11789.3c-0.6,0.1-1.3,0.4-1.6-0.5v-0.5c0.1-0.3,0.2-0.6,0.2-0.9
					c0.2-0.1,0.3-0.2,0.3-0.4c0.2-0.3,0.5-0.6,0.7-0.9c0.2-0.1,0.3-0.2,0.4-0.4c0.2-0.1,0.4-0.1,0.5-0.4c0.2-0.1,0.4-0.1,0.5-0.3
					h0.2c0.2,0,0.3-0.1,0.4-0.3c0.5-0.1,0.9-0.3,1.4,0c0,0.1,0,0.3,0.2,0.3c0,0.2,0,0.3,0.1,0.5c-0.2,0.1-0.2,0.3-0.2,0.5v0.3
					c-0.2,0.2-0.3,0.4-0.4,0.6c0,0.1-0.1,0.1-0.1,0.2c0,0.1-0.1,0.1-0.1,0.2c-0.2,0.2-0.2,0.6-0.6,0.7c-0.2,0-0.3,0.1-0.4,0.3
					l-0.2,0.2c-0.2,0-0.3,0.1-0.4,0.3c-0.1,0.1-0.2,0.2-0.4,0.2C2549.5,11789.1,2549.3,11789.2,2549.1,11789.3z"/>
				<path id="Path_78" class="st2" d="M2562.6,11781.3c0-1.4,2.1-3.2,3.5-3.3c0.6,0,1,0.5,1,1.1c0,0.1,0,0.2,0,0.2
					c-0.5,1.6-1.7,2.7-3.3,3.1C2563,11782.5,2562.6,11782.1,2562.6,11781.3z"/>
				<path id="Path_79" class="st2" d="M2622.9,11889.3c0,0.2-0.1,0.4-0.1,0.6c-0.1,0.2-0.2,0.3-0.2,0.5c-0.1,0.1-1.2,1.5-1.4,1.7
					c-0.2,0-0.3,0.1-0.4,0.3c-0.2,0-0.4,0.1-0.6,0.2c-0.2,0-0.5-0.1-0.7,0.1h-0.3c-0.1-0.2-0.3-0.1-0.5-0.2c-0.1,0-0.2,0-0.3-0.1
					l-0.2-0.2l0,0c0-0.1-0.1-0.2-0.2-0.3l-0.1-0.1c0-0.6-0.1-1.2-0.1-1.8c0.1-0.2,0.1-0.5,0.2-0.7c0-0.1,0.1-0.1,0.1-0.2
					c0.3-0.5,0.7-1,1.2-1.4l0.1-0.1c0.3-0.2,0.6-0.3,0.9-0.4c0.3,0,0.6-0.1,0.9-0.1C2621.4,11887.6,2623.4,11887.6,2622.9,11889.3z"
					/>
				<path id="Path_80" class="st2" d="M2558.1,11782.4c-0.5,0-0.9-0.3-0.9-0.8c0-0.1,0-0.3,0.1-0.4c0.6-1.5,2-2.7,3.6-3.1
					c0.3-0.1,0.6,0,0.8,0.3s0.2,0.7,0,1c-0.5,1.1-1.3,2-2.4,2.6C2559,11782.3,2558.6,11782.4,2558.1,11782.4z"/>
				<path id="Path_81" class="st2" d="M2544.1,11789.3c-0.4,0-0.7,0.3-1.1,0l-0.3-0.3v-0.8c0.2-0.1,0.3-0.4,0.3-0.6
					c0.1-0.1,0.1-0.2,0.2-0.3c0-0.1,0.1-0.2,0.2-0.2c0.6-1,1.5-1.8,2.6-2.3c0.4-0.2,0.8-0.5,1.3-0.1s0.1,0.8,0.1,1.2
					c-0.3,0.1-0.3,0.3-0.3,0.6c-0.3,0.3-0.5,0.7-0.7,1c-0.2,0-0.3,0.2-0.3,0.4l-0.2,0.2c-0.2,0-0.3,0.1-0.4,0.3
					c-0.1,0.1-0.2,0.1-0.3,0.2c-0.1,0-0.2,0-0.2,0.1l0,0l-0.2,0.2c-0.1,0.1-0.2,0.1-0.3,0.2
					C2544.4,11789.1,2544.2,11789.2,2544.1,11789.3z"/>
				<path id="Path_82" class="st2" d="M2552.6,11781.6c0-0.2,0.1-0.3,0.2-0.4c0.8-1.4,2.1-2.4,3.6-3c0.3-0.1,0.6-0.2,0.8,0.1
					c0.3,0.3,0.2,0.6,0,0.9c-0.7,1.5-1.9,2.6-3.5,3.2C2552.9,11782.6,2552.6,11782.3,2552.6,11781.6z"/>
				<path id="Path_83" class="st2" d="M2593,11774.5c0.1-0.5-0.1-1.2,0.5-1.5c0.2,0,0.3-0.1,0.4-0.3c0.6-0.1,1.3,0,1.9,0.3
					c0.1,0.2,0.2,0.3,0.4,0.3c0.9,1.4,0.9,1.7,0,2.7c-0.2,0-0.3,0.1-0.4,0.3h-0.6c-0.6-0.1-1.2-0.4-1.7-0.8l-0.2-0.2
					C2593.3,11775,2593.1,11774.8,2593,11774.5z"/>
				<path id="Path_84" class="st2" d="M2577.8,11776.2c-1,0-1.4-0.8-1.1-1.8c0.5-1,1.4-1.7,2.5-1.8c0.6-0.1,1.2,0.4,1.2,1
					c0,0.1,0,0.3,0,0.4C2580.2,11775.3,2579.1,11776.2,2577.8,11776.2L2577.8,11776.2z"/>
				<path id="Path_85" class="st2" d="M2632.1,11882.9c-0.8,0.8-1.5,1.8-2.9,1.7c-1-0.3-1.4-0.6-1.4-1.8v-1c0.1-0.1,0.2-0.3,0.2-0.5
					c0.1-0.2,0.3-0.3,0.2-0.6c0.2-0.1,0.3-0.2,0.3-0.4c0-0.1,0.1-0.1,0.1-0.2c0.1,0,0.3-0.1,0.3-0.2c0,0,0,0,0-0.1l0.2-0.2h0.2
					c1.1-0.6,2.3-1,3-0.3C2633.6,11880.3,2632.1,11882.3,2632.1,11882.9z"/>
				<path id="Path_86" class="st2" d="M2582.4,11776c-0.1,0-0.1-0.1-0.2-0.2c0-0.2-0.1-0.3-0.3-0.4c-0.1-1,0.3-1.9,1.1-2.5
					c0.1,0,0.2,0,0.2-0.1c0.6-0.3,1.3-0.2,1.9,0.1c0.2,0.2,0.3,0.4,0.5,0.6c0.1,0.5,0,1-0.2,1.5c-0.2,0.1-0.3,0.2-0.3,0.4l0,0
					c-0.2,0-0.4,0.2-0.5,0.4l-0.2,0.2c-0.2,0-0.4,0-0.5,0.2c-0.4,0.1-0.9,0-1.3-0.1C2582.7,11776,2582.6,11776,2582.4,11776z"/>
				<path id="Path_87" class="st2" d="M2542.5,11786.9c-0.3,0.2-0.4,0.5-0.6,0.7l-0.1,0.1c-0.6,0.6-1.2,1.2-2,1.6
					c-0.3,0.1-0.6,0.3-0.9,0.1c0-0.1-0.1-0.1-0.1-0.2c-0.1-0.4,0.1-0.7,0.2-1.1c0-0.1,0.1-0.2,0.1-0.3c0,0,0.1-0.1,0-0.1
					c0.2-0.2,0.5-0.3,0.4-0.6c0.1-0.1,0.1-0.2,0.2-0.3c0.2-0.1,0.3-0.2,0.3-0.4l0,0c0.2-0.1,0.4-0.3,0.5-0.5c0.5-0.3,0.9-0.7,1.4-1
					c0.1,0,0.2,0,0.2-0.1c0.1-0.1,0.2-0.1,0.3-0.2c0.1,0,0.1,0,0.2-0.1h0.5c0.1,0.1,0.2,0.2,0.2,0.3v0.6c-0.2,0.1-0.3,0.2-0.3,0.4
					l-0.3,0.6C2542.6,11786.6,2542.5,11786.7,2542.5,11786.9z"/>
				<path id="Path_88" class="st2" d="M2548.4,11782.2c0-0.2-0.1-0.4-0.1-0.6c0.2-0.1,0.3-0.2,0.3-0.4c0.1-0.1,0.1-0.2,0.2-0.3
					c0.4-0.5,0.9-0.9,1.3-1.4c0.6-0.4,1.3-0.8,2-1.2c0.3-0.1,0.6-0.4,0.9-0.1c0.3,0.3,0.1,0.7-0.1,1.1l-1.5,1.8
					c-0.2,0-0.3,0.1-0.4,0.3l0,0c-0.1,0-0.1,0.1-0.2,0.1c-0.3,0.2-0.7,0.4-1,0.6c-0.2,0-0.4,0.1-0.4,0.3h-0.2
					c-0.1,0-0.2,0.1-0.3,0.1s-0.3-0.1-0.4-0.1C2548.5,11782.3,2548.4,11782.3,2548.4,11782.2z"/>
				<path id="Path_89" class="st2" d="M2597.9,11762.8h0.5c0.2,0.2,0.4,0.1,0.5-0.2h0.2c0.2,0.4,0.5,0.2,0.8,0.2
					c0.7,0.2,1.4,0.3,2.1,0.3c0.1,0.3,0.2,0.3,0.5,0.2c0.5,0,1,0.3,1.5,0.3v0.2h-1.9c-0.1-0.1-0.2-0.2-0.3,0c-0.1,0-0.1,0.1-0.2,0.1
					c-0.1-0.1-0.2-0.1-0.4-0.1s-0.4,0-0.6-0.1c-0.3-0.2-0.5-0.3-0.6,0.1c-0.4-0.1-0.9-0.2-1.3-0.3c-0.3,0-0.6,0.4-1,0.2
					c-0.1,0-0.2,0-0.3-0.1c-0.3-0.1-0.6-0.3-0.9-0.4c-0.1-0.1-0.4-0.1-0.4,0.1c0.2,0.6-0.2,0.3-0.4,0.3c-0.5,0-0.8-0.5-1.3-0.5
					c-0.1-0.2-0.2-0.2-0.4-0.2c0,0-0.1,0.1,0,0.1c0.1,0.1,0.2,0.1,0.4,0.2c0.1,0.2,0.1,0.4-0.3,0.4c-0.4,0-0.8-0.2-1.1-0.4l-0.6-0.6
					c0.6-0.3,1.2,0.3,1.9,0c0.7-0.1,1.3-0.1,2-0.1h0.5c0.2,0.4,0.6,0.5,1,0.4C2597.9,11762.9,2597.9,11762.9,2597.9,11762.8z"/>
				<path id="Path_90" class="st2" d="M2570.2,11774.8c0,0.1-0.1,0.1-0.2,0.2c-0.5,0.3-0.9,0.7-1.4,1h-0.1c-0.2,0-0.4,0-0.4,0.3
					h-0.3c-1-0.1-1.2-0.3-0.9-1.3c0.2-0.1,0.3-0.3,0.3-0.5l0.7-0.7c0.1,0,0.3-0.1,0.3-0.2c0,0,0,0,0-0.1l0,0c0.3,0,0.5-0.2,0.6-0.5
					c0.4-0.1,0.8-0.2,1.2-0.4c0.3-0.2,0.7,0,0.9,0.3c0.2,0.2,0.2,0.6,0,0.8c-0.1,0.2-0.2,0.5-0.3,0.7
					C2570.3,11774.5,2570.2,11774.6,2570.2,11774.8z"/>
				<path id="Path_91" class="st2" d="M2563.2,11774.2c0.1,0,0.1-0.1,0.2-0.2c0.2,0,0.3-0.1,0.4-0.3c0.6-0.5,1.3-0.9,2.1-1.1
					c0.5-0.2,0.7-0.1,0.9,0.4v0.3c-0.1,0.2-0.1,0.3-0.2,0.5c-0.2,0.1-0.3,0.3-0.3,0.5l0,0c-0.4,0.3-0.8,0.6-1.1,1
					c-0.6,0.3-1.1,0.6-1.7,0.9c-0.6,0.2-1.1,0.2-1.2-0.6c0.3-0.3,0.5-0.6,0.7-1l0,0C2563.1,11774.5,2563.2,11774.4,2563.2,11774.2z"
					/>
				<path id="Path_92" class="st2" d="M2539.3,11786.3c-0.3,0.1-0.4,0.5-0.6,0.7c-0.1,0-0.1,0.1-0.2,0.2c-0.1,0.1-0.1,0.2-0.2,0.3
					c-0.2,0-0.3,0.2-0.4,0.4c-0.1,0-0.1,0.1-0.2,0.1c-0.3,0-0.4,0.3-0.6,0.5c-0.6,0.3-1,0.9-1.7,1c-0.1-0.1-0.1-0.3-0.3-0.3v-0.4
					c0.2-0.1,0.2-0.2,0.2-0.3c0.1-0.2,0.2-0.3,0.2-0.5c0.2,0,0.3-0.2,0.3-0.4l0.1-0.1c0.4-0.2,0.5-0.5,0.7-0.8
					c0.2-0.1,0.4-0.3,0.5-0.5c0.2,0,0.2-0.1,0.2-0.2c0.3-0.1,0.5-0.3,0.6-0.5c0.2,0,0.3-0.2,0.4-0.3c0.1-0.1,0.2-0.1,0.3-0.2
					c0.2,0,0.3-0.1,0.4-0.3c1-0.2,1-0.2,0.7,0.7c-0.2,0.1-0.3,0.2-0.3,0.4v0.1C2539.4,11786.1,2539.3,11786.2,2539.3,11786.3z"/>
				<path id="Path_93" class="st2" d="M2561.6,11774.6c-0.7,0.6-1.5,1.1-2.3,1.4c-0.4,0.1-0.7,0.4-1,0.1c-0.4-0.4,0.1-0.6,0.2-1
					l1.2-1.2c0.1-0.1,0.2-0.1,0.3-0.2c0.2,0,0.2-0.1,0.3-0.3h0.1c0.2,0,0.4-0.1,0.4-0.3c0.3,0.1,0.4-0.1,0.6-0.2
					c0.2,0,0.4,0,0.4-0.3h0.2c0.3,0,0.6-0.2,0.8,0.1s-0.1,0.5-0.2,0.7c-0.1,0.1-0.2,0.3-0.3,0.4
					C2562.2,11774.2,2561.9,11774.4,2561.6,11774.6z"/>
				<path id="Path_94" class="st2" d="M2549.6,11778.8L2549.6,11778.8c-0.5,0.5-0.9,1-1.3,1.5c-0.2,0.1-0.3,0.2-0.4,0.4
					c-0.1,0-0.3,0.1-0.3,0.2c0,0,0,0,0,0.1l0,0c-0.2,0-0.3,0.1-0.4,0.3c-0.1,0.1-0.2,0.1-0.2,0.2c-0.2,0-0.4,0.1-0.5,0.3
					c-0.1,0-0.1,0.1-0.2,0.1c-0.2,0-0.4,0.1-0.5,0.3c-0.3,0-0.6,0-0.9,0.1c0-0.1-0.1-0.1-0.1-0.2v-0.5c0.7-0.9,1.5-1.8,2.4-2.5
					c0.4-0.2,0.8-0.4,1.1-0.7c0.3,0,0.6-0.2,0.9-0.4c0.1,0,0.1-0.1,0.2-0.1c0.1,0.1,0.2,0.1,0.3,0.1l0,0
					C2549.7,11778.3,2549.6,11778.6,2549.6,11778.8z"/>
				<path id="Path_95" class="st2" d="M2591.1,11769.4c-0.1,0.2-0.1,0.3,0,0.5c-0.3,0.4-0.5,0.7-0.8,1.1c-0.1,0-0.2,0-0.3,0.1
					c-0.7,0.1-1.5-0.1-2-0.7v-1.2l0.9-0.9h1.1c0.1,0.2,0.4,0.4,0.6,0.4c0.1,0.1,0.2,0.2,0.2,0.4
					C2590.9,11769.3,2591,11769.4,2591.1,11769.4z"/>
				<path id="Path_96" class="st2" d="M2546.5,11775c0.2,0,0.3,0,0.4-0.2c0.1,0,0.2-0.1,0.2-0.2c0.1,0,0.2-0.1,0.3-0.1
					c0.3,0,0.6-0.2,0.8-0.5h0.1c0.2,0,0.4-0.1,0.4-0.3c0.1-0.1,0.3-0.1,0.4-0.2c0.2,0,0.5,0,0.5-0.3c0.1,0,0.1-0.1,0.2-0.1
					c0.1,0.1,0.2,0.1,0.3-0.1h0.3c0.1,0.9,0.5,0.3,0.8,0.1c0.2-0.1,0.4-0.1,0.6-0.3c0.1,0,0.1-0.1,0.2-0.1c0.1,0.1,0.3,0.1,0.3,0.3
					l-0.2,0.2c-0.8,0.4-1.6,1-2.2,1.6c-0.2,0-0.3,0.1-0.3,0.2l0,0c-0.3,0-0.5,0-0.6,0.3l-0.2,0.2c-0.3,0-0.5,0-0.7,0.3
					c-0.4,0.1-0.7,0.3-1.1,0.4c0-0.2,0.1-0.4,0.2-0.5c0.3-0.2,0.6-0.3,0.8-0.7c-0.4-0.1-0.6,0.2-0.9,0.4c-0.1,0.1-0.3,0.1-0.4,0.3
					c-0.2,0.1-0.4,0.1-0.5,0.3c-0.1,0-0.3,0-0.3,0.1c-0.2,0-0.3,0-0.4-0.1c0.2-0.1,0.2-0.2,0-0.4l0.1-0.1
					C2546.1,11775.5,2546.3,11775.4,2546.5,11775z M2550.3,11773.5c-0.4-0.1-0.4,0.2-0.6,0.4
					C2550,11774,2550.1,11773.8,2550.3,11773.5z"/>
				<path id="Path_97" class="st2" d="M2583.8,11769.1c0.2-0.2,0.4-0.2,0.5-0.5c0.1-0.1,0.1-0.1,0.2-0.1l0,0c0.1,0,0.3,0,0.3-0.1
					c0.4-0.2,0.8-0.2,1.2-0.2c0.8,0.9,0.8,1.6-0.2,2.6c-0.2,0.1-0.3,0.1-0.5,0.2c-0.5,0.1-1,0-1.5-0.2l0,0c0-0.1,0-0.3-0.2-0.3v-0.8
					C2583.8,11769.6,2583.9,11769.4,2583.8,11769.1z"/>
				<path id="Path_98" class="st2" d="M2556.7,11773.7c0.6-0.1,0.9-0.6,1.4-0.7c0.2,0,0.4-0.1,0.4-0.3c0.2,0,0.4,0,0.6-0.1h0.2
					c0.5,0.3,0.1,0.5,0,0.8c-0.1,0-0.2,0.2-0.2,0.3l0,0c-0.5,0.3-0.9,0.7-1.2,1.2c-0.1,0.1-0.2,0.2-0.4,0.2s-0.3,0.1-0.4,0.3
					c-0.3,0.2-0.5,0.3-0.8,0.5c-0.1,0-0.1,0-0.1,0.1c-0.2,0.1-0.4,0.1-0.5,0.2c-0.1,0-0.3,0-0.3,0.2c-0.2-0.1-0.5,0.1-0.7-0.2
					c-0.1-0.3,0.1-0.5,0.3-0.7c0.1-0.1,0.2-0.3,0.4-0.4C2555.8,11774.6,2556.2,11774.1,2556.7,11773.7z"/>
				<path id="Path_99" class="st2" d="M2581.8,11770.3c-0.1,0.1-0.2,0.1-0.2,0.2c-0.2,0-0.2,0.1-0.3,0.3c-0.2,0.1-0.4,0.1-0.6,0.2
					h-1.2c-0.1-0.1-0.1-0.1-0.2-0.1c-0.4-0.4-0.1-0.9,0-1.3c0.2-0.1,0.3-0.2,0.3-0.4l0.2-0.2c0.2,0,0.3-0.1,0.4-0.3
					c0.1-0.1,0.3-0.1,0.4-0.2c0.2,0,0.3-0.1,0.4-0.3h0.8c0.1,0,0.1,0,0.2,0.1l0,0c0.1,0.2,0.2,0.3,0.3,0.5v0.6
					c-0.2,0.1-0.3,0.2-0.3,0.4c-0.1,0.1-0.1,0.2-0.2,0.3C2582,11770.1,2581.9,11770.2,2581.8,11770.3z"/>
				<path id="Path_100" class="st2" d="M2544.4,11779.3c0.4-0.3,0.8-0.6,1.2-0.8c0.2,0,0.4-0.1,0.5-0.3h0.2c0.1-0.1,0.3-0.1,0.5,0
					c0.1,0.1,0.1,0.3,0,0.4c-0.2,0-0.2,0.2-0.2,0.3l-0.1,0.1c-0.8,0.8-1.7,1.6-2.5,2.4c-0.4,0.2-0.8,0.4-1.1,0.7
					c-0.2,0-0.3,0.1-0.4,0.3c-0.2,0-0.4,0.1-0.6,0.1c0-0.1-0.1-0.1-0.1-0.2v-0.2c0.3-0.2,0.5-0.5,0.6-0.9l0.7-0.7
					C2543.6,11780.2,2544,11779.8,2544.4,11779.3z"/>
				<path id="Path_101" class="st2" d="M2534.5,11788.4l-1.2,0.9c-0.4,0.2-0.7,0.2-0.5-0.4c0.4-0.9,1.3-1.4,1.7-2.4l0,0
					c0.2,0,0.4-0.1,0.5-0.3c0.1-0.1,0.2-0.2,0-0.3l0,0c0.4,0.2,0.4-0.1,0.6-0.3c0.2,0,0.4-0.1,0.5-0.3c0.2-0.2,0.5-0.4,0.8-0.5
					c0.1,0,0.1-0.1,0.2-0.1c0.4,0.1,0.3,0.3,0.3,0.6c-0.2,0.1-0.3,0.2-0.3,0.4c-0.2,0.3-0.5,0.4-0.6,0.8c-0.3,0.2-0.5,0.3-0.5,0.7
					h-0.1l-0.2,0.2c-0.1,0.1-0.2,0.2-0.2,0.4l0,0c-0.3,0-0.4,0.3-0.6,0.4C2534.6,11788.1,2534.5,11788.2,2534.5,11788.4z"/>
				<path id="Path_102" class="st2" d="M2577.7,11770.3c-0.1,0.1-0.2,0.1-0.3,0.2c-0.3,0.1-0.5,0.2-0.7,0.4c-0.2,0-0.3,0.1-0.5,0.1
					c-0.3,0-0.7,0-1-0.1l0,0c0-0.3,0-0.5-0.1-0.8c0.4-0.4,0.7-0.8,1-1.2c0.2,0,0.3-0.1,0.4-0.3c0.5-0.3,1.2-0.5,1.8-0.5l0.3,0.3
					c-0.1,0.3-0.1,0.6-0.2,0.9c-0.2,0.1-0.3,0.2-0.3,0.4c-0.1,0-0.1,0.1-0.2,0.2C2577.8,11769.9,2577.7,11770.1,2577.7,11770.3z"/>
				<path id="Path_103" class="st2" d="M2573.1,11768.6c0.2-0.1,0.4-0.2,0.6-0.2c0.2,0,0.4,0,0.4-0.3c0.4,0.1,1.3-0.3,0.9,0.8
					c-0.2,0.1-0.3,0.3-0.4,0.5c-0.4,0.1-0.6,0.5-0.8,0.8l0,0c-0.1,0.1-0.3,0.1-0.4,0.2c-0.3,0.2-0.7,0.3-1,0.5h-1
					c-0.2-0.1-0.1-0.3-0.2-0.5c0.1-0.1,0.2-0.2,0.2-0.4c0.3-0.1,0.3-0.3,0.5-0.5C2572.4,11769.3,2572.8,11769,2573.1,11768.6z"/>
				<path id="Path_104" class="st2" d="M2554.5,11774.8c-0.3,0.2-0.5,0.3-0.8,0.5l-0.2,0.2h-0.1c-0.2,0-0.3,0.1-0.4,0.3
					c-0.2,0.1-0.4,0.2-0.6,0.2c-0.1,0-0.3,0-0.3,0.2h-0.5v-0.6c0.1-0.2,0.3-0.3,0.5-0.5c0.7-0.6,1.4-1.1,2.1-1.6
					c0.4,0,0.6-0.3,0.9-0.5c0.2,0,0.5,0,0.6-0.3h0.9c-0.1,0.4-0.3,0.7-0.6,0.9c-0.3,0.3-0.8,0.4-0.9,0.8c-0.1,0-0.1,0-0.1,0.1
					C2554.8,11774.5,2554.6,11774.6,2554.5,11774.8z"/>
				<path id="Path_105" class="st2" d="M2571,11768.2c0.3,0,0.8-0.2,1,0.3c0,0.1-0.1,0.1-0.1,0.2c-0.3,0.3-0.5,0.6-0.7,0.9
					c-0.2,0-0.3,0.1-0.4,0.3l-0.2,0.2c-0.2,0-0.4,0.1-0.4,0.3c-0.1,0.1-0.3,0.1-0.4,0.2c-0.2,0-0.4,0.1-0.4,0.3
					c-0.2,0.1-0.4,0.1-0.6,0.2h-1c-0.1-0.5,0.3-0.8,0.6-1.1c0.5-0.3,1-0.7,1.5-1.2c0.2,0,0.4-0.1,0.6-0.2
					C2570.6,11768.5,2570.8,11768.4,2571,11768.2z"/>
				<path id="Path_106" class="st2" d="M2566.7,11770.2c-0.1,0.1-0.3,0.1-0.4,0.2c-0.1,0-0.2,0-0.2,0.2c-0.4,0.1-0.7,0.3-1.1,0.4
					h-0.7c-0.1-0.2,0-0.3,0-0.4c0.2-0.1,0.3-0.2,0.4-0.4c0.2-0.1,0.4-0.3,0.6-0.4c0.1,0,0.1,0,0.1-0.1c0.1-0.1,0.2-0.1,0.4-0.2
					c0.1,0,0.2,0,0.2-0.1c0.6-0.3,1.1-0.6,1.7-0.9c0.2,0,0.4,0,0.5-0.3c0.3,0.1,0.7-0.2,0.9,0.3
					C2568.4,11769.2,2567.6,11769.7,2566.7,11770.2z"/>
				<path id="Path_107" class="st2" d="M2539.9,11782.3c-0.1,0-0.2,0.1-0.3,0.1c-0.1-0.1-0.1-0.3-0.2-0.4c0-0.1,0.1-0.1,0.1-0.2
					c0.1-0.1,0.1-0.2,0.2-0.3c0.1,0,0.3-0.1,0.3-0.2v-0.1c0.2-0.2,0.7-0.3,0.6-0.8l0,0c0.5,0,0.7-0.3,0.9-0.7l0,0
					c0.7-0.2,1.2-0.7,1.7-1.2c0.1-0.1,0.2-0.1,0.3-0.2c0.2,0,0.4-0.1,0.4-0.3c0.2,0.1,0.3-0.3,0.5,0c0.1,0.2,0,0.3-0.1,0.4
					c-0.2,0.2-0.3,0.4-0.5,0.6c-0.4,0.4-0.9,0.8-1.3,1.2c-0.1,0.1-0.2,0.1-0.2,0.2c-0.3,0.2-0.6,0.4-0.9,0.7
					c-0.1,0.1-0.2,0.1-0.3,0.2c-0.1,0-0.3,0-0.3,0.2c-0.2,0.1-0.4,0.2-0.5,0.4C2540.2,11782,2540,11782.2,2539.9,11782.3z"/>
				<path id="Path_108" class="st2" d="M2551.6,11775c-0.1,0-0.3,0-0.3,0.2c-0.1,0-0.1,0.1-0.2,0.1c-0.5,0.3-1.1,0.5-1.6,0.8
					c-0.2,0.1-0.4,0.2-0.5-0.1c0.2-0.1,0.2-0.2,0.2-0.3l0.2-0.2c0.3-0.1,0.5-0.2,0.3-0.5l0,0c0.2,0.2,0.4,0,0.5-0.2
					c0.8-0.4,1.5-0.9,2.1-1.5c0.3-0.1,0.5-0.2,0.8-0.3c0.2,0,0.4-0.1,0.4-0.3c0.2,0,0.4-0.1,0.6-0.1v0.4l0,0l-0.1,0.1l-0.1,0.1
					C2553.1,11773.8,2552.4,11774.4,2551.6,11775z"/>
				<path id="Path_109" class="st2" d="M2538.5,11781c0.4-0.3,0.8-0.6,1.2-1c0.3,0,0.4-0.1,0.4-0.3c0.3-0.2,0.6-0.5,0.9-0.7
					c0.4,0.2,0.7-0.2,1-0.1c-0.1,0.4-0.6,0.5-0.6,0.9l0,0c-0.5-0.1-0.7,0.3-0.9,0.7l0,0c-0.3,0-0.5,0.3-0.7,0.5
					c-0.3,0.1-0.4,0.3-0.6,0.5c-0.2,0-0.4,0.1-0.5,0.3c-0.3,0.1-0.5,0.5-0.9,0.5c0.1-0.2,0.1-0.4,0.2-0.6c0.1,0,0.2,0,0.2-0.1
					s0-0.1-0.1-0.1s-0.2,0-0.2,0.2c-0.1,0-0.2-0.1-0.3-0.1c0.2,0,0.2-0.1,0.3-0.3C2538.4,11781.3,2538.5,11781.2,2538.5,11781z"/>
				<path id="Path_110" class="st2" d="M2531,11789.4c0.9-1.4,2-2.6,3.2-3.7l0.6-0.6c0.2-0.2,0.4-0.3,0.6-0.5
					c0.2,0.4-0.2,0.6-0.2,0.9c-0.2,0.1-0.3,0.2-0.2,0.4l0,0c-0.1-0.1-0.2,0-0.2,0.1c-0.3,0.1-0.5,0.3-0.3,0.6l0,0
					c-0.1-0.1-0.3-0.1-0.4,0c-0.6,0.6-1.2,1.3-1.7,1.9h-0.1c-0.2,0-0.3,0.1-0.4,0.3c-0.1,0.1-0.2,0.1-0.3,0.2c-0.1,0-0.1,0-0.1,0.1
					c-0.1,0.1-0.2,0.1-0.4,0.2C2531.1,11789.4,2531.1,11789.4,2531,11789.4z"/>
				<path id="Path_111" class="st2" d="M2594.5,11764.9c0.3,0,0.5,0,0.8-0.1c0.5,0.1,0.8,0.6,1.3,0.8c0.1,0.3,0.3,0.5,0.5,0.7
					c-0.2,0.8-0.8,0.6-1.3,0.6c-0.1-0.2-0.2-0.2-0.4-0.2l0,0c0-0.2-0.2-0.3-0.4-0.3C2594.8,11765.9,2594.4,11765.6,2594.5,11764.9z"
					/>
				<path id="Path_112" class="st2" d="M2585.4,11765.6c0.2-0.1,0.4-0.2,0.4-0.5l0.6-0.3h0.8c0.2,0.3,0.3,0.7,0.2,1
					c-0.2,0.1-0.2,0.2-0.2,0.3c-0.1,0.1-0.2,0.2-0.2,0.3c-0.2,0.1-0.3,0.2-0.5,0.3h-0.3c-0.3,0-0.5,0-0.8-0.1
					c-0.1-0.2-0.2-0.3-0.2-0.5v-0.3C2585.3,11765.9,2585.4,11765.8,2585.4,11765.6z"/>
				<path id="Path_113" class="st2" d="M2583.8,11764.9c0.4,0.1,1.1-0.3,0.9,0.6l0,0l-0.2,0.2c0,0.1-0.1,0.1-0.1,0.2
					c-0.2,0-0.2,0.2-0.2,0.3c-0.1,0.1-0.2,0.1-0.2,0.2c-0.1,0-0.2,0.1-0.2,0.2c-0.1,0-0.2,0.1-0.3,0.2l-0.2,0.2h-0.9
					c-0.1,0-0.1-0.1-0.2-0.1c0-0.1-0.1-0.1-0.1-0.2c0.2-0.4,0.5-0.8,0.8-1.2C2583.2,11765.3,2583.5,11765,2583.8,11764.9z"/>
				<path id="Path_114" class="st2" d="M2597.7,11765.9h-0.1c-0.1-0.2-0.2-0.4-0.4-0.5c0-0.2-0.1-0.3-0.1-0.5h1.1
					c0.1,0.1,0.3,0.2,0.5,0.2c0.1,0.2,0.3,0.3,0.5,0.3c0.1,0.1,0.1,0.1,0.2,0.1l0.8,0.8l0,0c0,0.2,0,0.3-0.1,0.5h-0.3
					C2599.1,11766.7,2598.4,11766.4,2597.7,11765.9C2597.8,11766,2597.8,11765.9,2597.7,11765.9z"/>
				<path id="Path_115" class="st2" d="M2580.2,11766.8c-0.1,0-0.2,0.1-0.3,0.2h-0.7c-0.2,0-0.3-0.2-0.3-0.4c0.2-0.5,0.7-0.7,1-1.1
					c0.4-0.2,0.9-0.4,1.3-0.6h0.8c0,0.1,0,0.1,0.1,0.2c0,0.1-0.1,0.2-0.1,0.3l-0.8,0.8c-0.3,0.2-0.5,0.3-0.8,0.5
					C2580.3,11766.7,2580.3,11766.7,2580.2,11766.8z"/>
				<path id="Path_116" class="st2" d="M2600.4,11764.9c0.3,0.1,0.7,0.3,1,0.4l1.5,0.9l0.2,0.2h0.1c0,0.2,0,0.4-0.2,0.5h-0.5
					c-0.1,0-0.3,0-0.4-0.1c-0.1-0.2-0.3-0.3-0.5-0.3c-0.2-0.2-0.4-0.2-0.7-0.4c-0.4-0.3-0.9-0.7-1.3-1l-0.1-0.1
					C2599.7,11764.7,2600.1,11765,2600.4,11764.9z"/>
				<path id="Path_117" class="st2" d="M2578.2,11765.1c0.4-0.1,0.7-0.2,1.1-0.3c0.2,0,0.3,0,0.5,0.1c0,0.1-0.1,0.2-0.1,0.3
					c-0.5,0.3-0.9,0.6-1.3,1c-0.5,0.3-1.1,0.5-1.6,0.8h-0.5c-0.4-0.4,0.1-0.6,0.2-0.8c0.3-0.1,0.6-0.2,0.8-0.5
					c0.2-0.1,0.3-0.2,0.5-0.2C2577.9,11765.4,2578.1,11765.3,2578.2,11765.1z"/>
				<path id="Path_118" class="st2" d="M2572.1,11766.7c-0.3-0.1-0.4,0.1-0.6,0.2c-0.2,0-0.5-0.1-0.7-0.1c0.7-0.9,1.8-0.9,2.6-1.4
					c0.2,0,0.4,0,0.5-0.3c0.4-0.1,0.7-0.2,1.1-0.2c0.1,0,0.4,0,0.4,0.1c0.1,0.2-0.3,0.2-0.3,0.5l0,0c-0.4,0-0.7,0.2-0.9,0.5l0,0
					c-0.5-0.2-0.9,0.2-1.3,0.5h-0.3C2572.5,11766.4,2572.3,11766.5,2572.1,11766.7z"/>
				<path id="Path_119" class="st2" d="M2573.4,11766.9c-0.2-0.1,0-0.3,0-0.4c0.4,0,0.6-0.3,0.8-0.6l0,0c0.3-0.1,0.8,0,0.9-0.5l0,0
					c0.2,0.1,0.5,0.1,0.7-0.1c0.3-0.1,0.7-0.3,1-0.4c0.2,0,0.4,0,0.5-0.1c0.4,0.2,0,0.4,0,0.5c-0.4,0-0.8,0.2-1,0.5
					c-0.2-0.1-0.2,0.1-0.2,0.2l-0.2,0.2c-0.3-0.1-0.5,0.2-0.7,0.2s-0.3,0.1-0.4,0.3c-0.3,0.1-0.6,0.2-0.9,0.2L2573.4,11766.9
					L2573.4,11766.9z"/>
				<path id="Path_120" class="st2" d="M2604,11766.5l-0.6-0.3c-0.4-0.3-0.8-0.6-1.3-0.8c-0.1-0.1-0.3-0.2-0.2-0.4
					c0.1-0.1,0.3-0.1,0.5-0.1c0.3,0.1,0.6,0.2,0.9,0.2c0.7,0.5,1.5,1,2.4,1.3c0.1,0.1,0.1,0.2,0.2,0.3c-0.2,0.3-0.5,0.1-0.7,0.2
					c-0.2-0.1-0.5-0.3-0.7-0.2C2604.4,11766.5,2604.3,11766.4,2604,11766.5z"/>
				<path id="Path_121" class="st2" d="M2607.9,11766.9c-0.3-0.1-0.6-0.3-0.9-0.2c-0.1-0.2-0.3-0.3-0.5-0.3
					c-0.2-0.1-0.4-0.3-0.6-0.2c-0.6-0.5-1.5-0.6-2.2-1.3h0.6l0.9,0.3c0.8,0.5,1.6,0.8,2.5,1.1c0.2,0.1,0.3,0.3,0.6,0.2l0,0
					c-0.2,0.2,0,0.3,0,0.5C2608.2,11766.9,2608.1,11766.9,2607.9,11766.9z"/>
				<path id="Path_122" class="st2" d="M2608.7,11897.6c-0.1-0.3,0.3-0.4,0.2-0.7c0.3-0.3,0.5-0.6,0.8-0.9h0.2
					c0.1,0.4,0.9,0.6,0.2,1C2609.8,11897.3,2609.5,11898.2,2608.7,11897.6z"/>
				<path id="Path_123" class="st2" d="M2588.2,11763.7c-0.1,0.1-0.2,0.2-0.4,0.2c-0.3,0-0.5,0-0.8-0.1v-0.4
					c0.3-0.1,0.4-0.3,0.5-0.6c0.4,0,0.7-0.4,1.1,0C2588.6,11763.2,2588.3,11763.4,2588.2,11763.7z"/>
				<path id="Path_124" class="st2" d="M2590,11762.8c0.3,0.2,0.5,0.6,0.3,0.9c-0.2,0.4-0.6,0.3-0.9,0.3c-0.1-0.1-0.2-0.1-0.3-0.2
					c0-0.3,0-0.5,0.1-0.8C2589.4,11762.9,2589.6,11762.6,2590,11762.8z"/>
				<path id="Path_125" class="st2" d="M2586.9,11763.2l-0.3,0.3c-0.2,0-0.3,0.1-0.4,0.3c-0.2,0.1-0.4,0.1-0.6,0.2h-0.7v-0.3l0,0
					c0.1,0,0.1-0.1,0.2-0.1c0.1-0.1,0.3-0.1,0.4-0.3c0.3-0.1,0.5-0.2,0.8-0.3c0.1,0,0.3,0,0.4-0.1c0.1,0,0.2-0.1,0.3-0.1
					C2587.1,11762.8,2587,11763,2586.9,11763.2z"/>
				<path id="Path_126" class="st2" d="M2612.2,11895.3c-0.1,0.2-0.3,0.4-0.5,0.5c-0.6,0.5-0.7,0.4-0.9-0.4
					C2611.3,11895.3,2611.8,11895.1,2612.2,11895.3z"/>
				<path id="Path_127" class="st2" d="M2586.1,11882.6c0-0.4-0.1-0.8-0.1-1.2c0.1-0.1,0.1-0.2,0-0.3l0,0c0-0.1,0.1-0.2,0.1-0.4
					c0.2-0.1,0.2-0.2,0.2-0.3c0.5-0.9,1.4-1.5,2.4-1.6c0.3,0,0.5,0,0.8-0.1c0.2,0,0.4,0,0.5,0.1c0.1,0.2,0.3,0.2,0.5,0.2
					c0.1,0,0.2,0,0.3,0.1c0.1,0.2,0.2,0.3,0.4,0.3l0,0c0.1,0.1,0.1,0.1,0.2,0.1c0,0.1,0,0.1,0.1,0.1l0,0c0.2,0.3,0.4,0.7,0.7,1
					c0.1,0.3,0.1,0.5,0.2,0.8v0.2c-0.1,0.5-0.1,0.9-0.2,1.4c-0.3,0.2-0.6,0.5-0.8,0.9l-0.2,0.2c-0.4,0.1-0.7,0.3-1,0.5h-1.7
					c-0.3-0.1-0.6-0.2-0.9-0.2c0-0.1-0.1-0.2-0.3-0.3c-0.3-0.2-0.5-0.5-0.8-0.7c0.1-0.1,0-0.1-0.1-0.1c-0.1-0.1-0.1-0.3-0.2-0.4
					C2586.3,11882.8,2586.3,11882.7,2586.1,11882.6C2586.2,11882.6,2586.2,11882.6,2586.1,11882.6L2586.1,11882.6z"/>
				<path id="Path_128" class="st2" d="M2590.7,11892.4c-0.2,0.1-0.4,0.1-0.6,0.2h-1.8c-0.2-0.1-0.4-0.2-0.6-0.2
					c-0.1-0.1-0.2-0.3-0.4-0.3h-0.1l-0.3-0.3l-0.2-0.2c-0.1-0.3-0.3-0.6-0.5-0.9c-0.2-0.5-0.2-1.1,0-1.6c0.1-0.1,0.1-0.2,0.2-0.2
					v-0.1c0.1-0.1,0.3-0.2,0.3-0.4l0,0c0-0.1,0.1-0.1,0.1-0.2l0,0c0.1-0.1,0.3-0.1,0.3-0.3c0.1-0.1,0.2-0.1,0.3-0.2
					c0.1,0,0.1-0.1,0.2-0.1h0.3c0.2,0,0.4,0,0.5-0.2h1.1c0.2,0.3,0.4,0.2,0.6,0.2c0.7,0.2,1.2,0.7,1.5,1.4c0,0.2,0,0.4,0.2,0.5v1.2
					c-0.2,0.1-0.2,0.3-0.2,0.5c-0.1,0.2-0.1,0.3-0.2,0.5c-0.2,0-0.3,0.1-0.3,0.4l-0.2,0.2
					C2590.9,11892.1,2590.8,11892.3,2590.7,11892.4z"/>
				<path id="Path_129" class="st2" d="M2585.7,11840.8c0.2-0.7,0.8-1,1.2-1.5c0.3-0.1,0.7-0.2,0.9-0.5c0.2,0,0.4,0,0.6-0.1h1
					c0.6,0.1,1.3,0.3,1.8,0.7c0.3,0.3,0.6,0.6,0.8,0.9c0.5,0.9,0.6,2,0.4,3c-0.2,0.1-0.2,0.3-0.2,0.5c0,0.1,0,0.2-0.1,0.2
					c-0.2,0.1-0.4,0.3-0.4,0.6c-0.3,0.2-0.5,0.4-0.7,0.7c-0.9,0.5-1.9,0.6-2.9,0.5c-0.2,0-0.4,0-0.6-0.1c-0.1-0.1-0.2-0.1-0.3-0.2
					l0,0c-0.1-0.2-0.2-0.3-0.4-0.3c-0.2-0.2-0.4-0.4-0.6-0.5c0-0.1,0-0.3-0.2-0.3c-0.1-0.3-0.2-0.5-0.4-0.7c0-0.1,0-0.3-0.2-0.3
					c0-0.1-0.1-0.2-0.1-0.3c0.1-0.1,0.1-0.2-0.1-0.3v-1C2585.6,11841.6,2585.8,11841.2,2585.7,11840.8L2585.7,11840.8z"/>
				<path id="Path_130" class="st2" d="M2587.3,11856c-0.2-0.1-0.3-0.2-0.5-0.2c-0.1-0.2-0.3-0.4-0.5-0.5l0,0c0-0.2-0.1-0.4-0.3-0.5
					c-0.1-0.1-0.1-0.2-0.2-0.3c0-0.2,0-0.4-0.2-0.5c0-0.7,0-1.3-0.1-2c0.3-0.2,0.3-0.6,0.4-0.9c0.1-0.3,0.3-0.5,0.6-0.7
					c0.3,0,0.4-0.3,0.6-0.5c0.1,0,0.2-0.1,0.3-0.1c0.2,0,0.3-0.1,0.4-0.2c1.2-0.3,2.5-0.2,3.5,0.5c0.1,0.2,0.2,0.3,0.4,0.3
					c0.1,0.1,0.1,0.1,0.1,0.2c0,0.2,0.1,0.4,0.3,0.4c0.1,0.2,0.2,0.4,0.2,0.6c0,0.1,0,0.3,0.1,0.3c0.1,0.7,0.1,1.3,0,2
					c-0.2,0.1-0.2,0.2-0.1,0.3c-0.1,0.2-0.2,0.4-0.2,0.6c-0.2,0.1-0.3,0.2-0.3,0.4l0,0l-0.2,0.2l0,0c-0.2,0-0.3,0.1-0.4,0.3
					c-0.1,0.1-0.3,0.1-0.4,0.2c-0.3,0-0.5,0.1-0.7,0.3c-0.7,0.1-1.5,0.2-2.2,0.2c-0.1,0-0.1-0.1-0.2-0.1c0-0.1,0-0.1-0.1-0.1l0,0
					C2587.6,11856.1,2587.5,11856,2587.3,11856z"/>
				<path id="Path_131" class="st2" d="M2570,11825c-0.2,0-0.5,0-0.7,0.1c-0.2-0.2-0.4-0.1-0.7,0c-0.2-0.1-0.3-0.1-0.5-0.1
					c0-0.2-0.2-0.2-0.3-0.2c-0.2-0.1-0.4-0.2-0.6-0.2c-0.1-0.2-0.2-0.3-0.4-0.4c-0.1-0.1-0.2-0.2-0.2-0.4l-0.1-0.1
					c-0.1-0.3-0.4-0.6-0.4-1v-1.8c0.1-0.1,0.2-0.2,0.2-0.4v-0.1c0.2-0.1,0.3-0.2,0.3-0.4l0.2-0.2c0.2-0.1,0.3-0.2,0.4-0.4
					c0.1,0,0.1,0,0.1-0.1l0,0c0.1,0,0.3-0.1,0.3-0.2c0,0,0,0,0-0.1c0.2-0.1,0.3-0.2,0.5-0.2s0.3-0.1,0.4-0.2c0.5,0,0.9-0.1,1.4-0.1
					h0.6c0.1,0.2,0.2,0.3,0.4,0.3h0.1c0.1,0.2,0.2,0.3,0.4,0.3l0.4,0.4c0,0.2,0.1,0.3,0.3,0.4v0.1c0,0.2,0.1,0.4,0.3,0.4v0.2
					c-0.1,0.2-0.1,0.4,0.1,0.6h0.1c-0.1,0.5-0.2,1.1-0.3,1.6c-0.2,0.1-0.2,0.2-0.2,0.3v0.2l-0.2,0.2c-0.3,0.4-0.7,0.7-1,1.1
					c-0.2,0-0.3,0.1-0.4,0.3h-0.1C2570.3,11824.8,2570.1,11824.7,2570,11825z"/>
				<path id="Path_132" class="st2" d="M2560.7,11825c-0.2,0-0.3,0.1-0.5,0.1c-0.2-0.1-0.3-0.1-0.5,0c-0.2,0-0.4-0.1-0.7-0.1
					c-0.1-0.2-0.2-0.2-0.3-0.2s-0.2,0-0.2-0.1c-0.2-0.2-0.3-0.5-0.6-0.5l0,0c-0.1-0.1-0.1-0.2-0.2-0.3c0-0.1,0-0.1-0.1-0.2l-0.1-0.1
					c0-0.1-0.1-0.2-0.1-0.3l0,0c0-0.1,0-0.1-0.1-0.1c-0.1-0.2-0.1-0.5-0.2-0.7v-0.8c-0.1-0.8,0.4-1.3,0.7-2c0.2,0,0.3-0.2,0.3-0.4
					l0,0c0-0.1,0.1-0.1,0.2-0.2l0,0c0.2,0,0.3-0.1,0.4-0.3c0.2-0.1,0.3-0.2,0.5-0.2c0.1,0,0.3,0,0.3-0.2c0.1,0,0.2-0.1,0.4-0.1
					c0.2,0.1,0.3,0,0.4-0.1c0.4,0.1,0.8,0.1,1.2,0.2c0.1,0.1,0.2,0.3,0.4,0.3c0.3,0.2,0.6,0.5,0.9,0.7c0,0.2,0.1,0.3,0.3,0.4
					c0.1,0.3,0.2,0.6,0.2,0.9v1.3c-0.1,0.3-0.2,0.6-0.2,0.9c-0.2,0.1-0.3,0.2-0.3,0.4c-0.1,0.1-0.1,0.2-0.2,0.3
					c-0.2,0-0.3,0.1-0.3,0.4l-0.1,0.1c-0.2,0-0.4,0.2-0.5,0.4c-0.2,0.1-0.3,0.1-0.4,0.2C2561,11824.8,2560.7,11824.7,2560.7,11825z"
					/>
				<path id="Path_133" class="st2" d="M2610.9,11899.9c-0.5-0.1-1-0.6-1.1-1.1c-0.3-0.6,0.5-0.8,0.8-1.1c0.1-0.2,0.3-0.3,0.5-0.2
					c0.1,0,0.2,0.1,0.2,0.2c0.3,0.4,0.5,0.9,1,1.1C2612,11899.4,2611.5,11899.8,2610.9,11899.9z"/>
				<path id="Path_134" class="st2" d="M2612.8,11898.3c-0.1-0.3-0.3-0.6-0.6-0.8c-0.5-0.4-0.5-0.8,0.1-1.1c0.5-0.2-0.2-0.9,0.5-0.8
					C2613.5,11896.4,2613.5,11897.6,2612.8,11898.3z"/>
				<path id="Path_135" class="st2" d="M2558.5,11845.8c-0.4-0.4-0.4-1,0-1.4c0.1-0.1,0.2-0.1,0.3-0.2c0.4-0.2,0.8-0.2,1.1,0.2
					s-0.1,0.6-0.3,0.8s-0.4,0.3-0.5,0.6C2558.9,11845.9,2558.7,11845.8,2558.5,11845.8z"/>
			</g>
		</g>
		<path id="Path_136" class="st2" d="M2609.5,11896.1c-1,0.9-1.2,2.3-0.4,3.4c1.1,0.8,2.6,0.6,3.4-0.4c1-0.6,1.3-2,0.7-3
			s-2-1.3-3-0.7C2610,11895.6,2609.7,11895.8,2609.5,11896.1z"/>
	</g>
	<path id="Path_137" class="st4" d="M2759.4,11808l-32.5,112.8h-51.8l57.8-161.5h53.8l57.9,161.4h-52.7L2759.4,11808"/>
	<path id="Path_138" class="st5" d="M2758.9,11808l-32.5,112.8h-51.8l57.9-161.5h53.8l57.8,161.4h-52.7L2758.9,11808"/>
	<path id="Path_139" class="st5" d="M2849.6,11797.6c-40.4,30.7-85.8,55.5-136.2,74.3s-96.5,27.4-138.2,28.2
		c-37.3,0.7-61.4-12.1-67.7-40.8c54.4,0,98-5.9,139.9-18.6c41.9-12.7,62.9-27.3,62.9-43.7c0-10-7.5-18-22.6-24s-35.1-9-60.2-9
		c-4.5,0-8.9,0.1-13.2,0.2c13.4,4.8,22.7,10.9,29.9,17.3c0,0,9.3,8.1,9.3,13.8c-0.1,13.1-14.5,24.7-43.6,34.7s-62.9,15.3-103.6,16.3
		c-0.4-34.2,15.1-57.2,36.2-72.1c-16.6,4.3-32.8,10.4-48.1,18.2c-37,19.1-55.5,42-55.5,68.6c0,18.5,10.2,33.1,30.5,43.7
		c20.3,10.7,48,16,83,16c54.6,0,112.4-11,173.4-33.1s110.5-50,148.6-83.6L2849.6,11797.6z"/>
	<path id="Path_140" class="st4" d="M2882.9,11784.8l-17.7,40.4l-25.7-33.6L2882.9,11784.8z"/>
	<path id="Path_141" class="st4" d="M2759.4,11807.7l-32.5,112.8h-51.8l57.8-161.5L2759.4,11807.7"/>
	<path id="Path_142" class="st5" d="M2759.4,11807.7L2759.4,11807.7l-32.5,112.8h-51.8l57.8-161.5"/>
</g>
</svg>
