<svg xmlns="http://www.w3.org/2000/svg" viewBox="427.07 -207.03 454.011 166.16">
  <defs>
    <style>
      .cls-1, .cls-5, .cls-6 {
        fill: #0e4194;
      }

      .cls-1, .cls-6 {
        stroke: #fff;
      }

      .cls-1 {
        stroke-linecap: round;
        stroke-width: 9.319px;
      }

      .cls-2 {
        fill: #5192c5;
      }

      .cls-3 {
        fill: #fff;
      }

      .cls-4 {
        fill: #be1e2d;
      }

      .cls-6 {
        stroke-width: 4.66px;
      }
    </style>
  </defs>
  <g id="EA_Logo" data-name="EA Logo" transform="translate(-2009.5 -11964)">
    <path id="Path_1" class="cls-1" d="M2882.9,11784.8l-17.7,40.4-25.7-33.6Z"/>
    <g id="Group_3">
      <g id="Group_2">
        <path id="Path_2" class="cls-2" d="M2508.3,11842.9a80.234,80.234,0,1,0,23.5-56.8A80.277,80.277,0,0,0,2508.3,11842.9Z"/>
        <g id="Group_1">
          <path id="Path_3" class="cls-3" d="M2602.7,11853.9a5.376,5.376,0,0,1-1,1.6c-.2,0-.3.1-.4.3a4.272,4.272,0,0,1-2.9.6,1.8,1.8,0,0,0-.9-.4,1.787,1.787,0,0,1-.7-.5c0-.1-.1-.1-.1-.2s-.1-.1-.1-.2l-.2-.2h0a.711.711,0,0,0-.3-.6v-.1c-.1-.1-.1-.1-.1-.2a7.066,7.066,0,0,1,.2-2.5c.2-.1.3-.2.3-.4.1-.1.1-.2.2-.3.2-.1.3-.2.3-.4h0c.2,0,.3-.2.4-.3s.2-.1.3-.2a1.051,1.051,0,0,0,.9-.5,5.835,5.835,0,0,1,2.3.2c.1.2.2.3.4.3h.1a1.2,1.2,0,0,0,.5.5h0a.663.663,0,0,0,.4.5c0,.1,0,.1.1.1h0c.1.3.1.6.4.7,0,.7.4,1.4,0,2.1h0C2602.6,11853.8,2602.7,11853.8,2602.7,11853.9Z"/>
          <path id="Path_4" class="cls-4" d="M2592.3,11820.3v.3c0,.2,0,.4.2.5v1.3c-.2.1-.2.3-.2.5a1.423,1.423,0,0,0-.2.6c-.3.2-.4.5-.7.7a3.854,3.854,0,0,1-4.1.5c0-.1-.1-.3-.2-.3h-.1c-.1-.1-.2-.1-.3-.2s-.1-.2-.2-.2a1.389,1.389,0,0,0-.3-.4,6.128,6.128,0,0,1-.5-1.2v-1.5c.2-.1.2-.3.2-.5v-.1l.2-.2s.1-.1,0-.1a4.691,4.691,0,0,1,2.7-1.6c.5,0,1,.1,1.4.1.2.1.3.3.6.3a2.085,2.085,0,0,1,.6.4l.5.5c0,.1.1.1.1.2A1.375,1.375,0,0,0,2592.3,11820.3Z"/>
          <path id="Path_5" class="cls-3" d="M2567.2,11855.9h-.2l-.2-.2c-.1-.2-.2-.4-.4-.4-.1-.1-.2-.2-.2-.3s0-.1-.1-.2c0-.1-.1-.1-.1-.2-.1-.3-.4-.6-.4-1,0-.2.1-.5-.2-.7v-.7c.3-.4.2-.9.4-1.3,0-.1.1-.1.1-.2.1,0,.1-.1.1-.2.1-.1.1-.2.2-.3.2,0,.3-.1.4-.3.1-.1.2-.1.3-.2.1,0,.1-.1.2-.1a3.188,3.188,0,0,1,3,0c0,.1.1.1.2.1.3.2.6.5.9.7,0,.1.1.3.2.3h.1c.1.2.1.3.2.5.1.3.1.7.4.9a13.572,13.572,0,0,1-.2,2c-.2.1-.3.2-.3.4v.1a2.7,2.7,0,0,0-.7.8c-.2.1-.3.2-.5.3a.55.55,0,0,0-.5.3h0c-.1,0-.2.1-.3.1H2568c-.1,0-.2-.1-.3-.1h-.2c-.1,0-.2-.1-.3-.1Z"/>
          <path id="Path_6" class="cls-3" d="M2565.6,11830.8v-.2a.762.762,0,0,0,.2-.5h0c.2-.1.3-.2.3-.4h.1v-.1l.4-.4h.1v-.1c.1-.1.2-.1.3-.2s.1-.1.2-.1h.2c.3-.1.7-.1.9-.4h1.3a1.087,1.087,0,0,0,.9.4h.1c.1.2.2.3.4.3l.2.2a1.2,1.2,0,0,0,.5.5v.1c0,.1,0,.3.1.3,0,.1.1.2.1.3-.1.2,0,.2.2.3a4.092,4.092,0,0,0,.1,1.1,6.664,6.664,0,0,1-.9,2.1l-.3.3-.2.2c-.1.1-.2.1-.2.2a4.025,4.025,0,0,1-2.4.5c-.3-.1-.6-.2-1-.3,0-.2-.2-.2-.4-.2a2.34,2.34,0,0,1-.7-.7c0-.1,0-.3-.2-.3a3.574,3.574,0,0,0-.4-.9.9.9,0,0,0-.1-.5v-1.2C2565.7,11831.2,2565.6,11831,2565.6,11830.8Z"/>
          <path id="Path_7" class="cls-3" d="M2596.3,11861.1l.1-.1c.1,0,.3-.1.3-.2v-.1c.2-.1.3-.3.5-.4a3.6,3.6,0,0,1,3.2-.4,3.068,3.068,0,0,1,2,2.4v1.6c-.1.1-.2.2-.1.3a4.7,4.7,0,0,1-.9,1.2c-.1,0-.2,0-.2.1a2.518,2.518,0,0,1-.7.4c-.2,0-.3.1-.4.3-.1,0-.3.1-.4.1s-.1,0-.2.1h-1a2.218,2.218,0,0,0-1.1-.5c-.7-.5-1.5-1-1.5-2v-2a.519.519,0,0,0,.2-.4c.2-.1.2-.2.2-.4Z"/>
          <path id="Path_8" class="cls-3" d="M2580.6,11818.7a3.744,3.744,0,0,1,1.3,1.2c0,.2.1.3.3.4a1.264,1.264,0,0,0,.1.6v1.5a2.35,2.35,0,0,0-.2.8c-.2.1-.3.2-.3.4v.1a.642.642,0,0,0-.5.5h0a.55.55,0,0,0-.5.3,4.249,4.249,0,0,1-2.7.5.712.712,0,0,0-.6-.3h-.1c-.1-.2-.2-.3-.4-.3l-.2-.2v-.1h-.1l-.3-.3-.1-.1h0c0-.2-.1-.3-.3-.4a2.35,2.35,0,0,1-.2-.8v-1.5c.1-.3,0-.6.2-.9l.2-.2c0-.1,0-.1.1-.2.2-.1.2-.2.2-.3h.1c0-.1.1-.1.2-.2h0a.55.55,0,0,0,.5-.3c.2-.1.3-.2.5-.2a2.1,2.1,0,0,0,1.1-.4h.5c.2.2.4.3.6.2.1,0,.2.1.4.1C2580.3,11818.7,2580.4,11818.7,2580.6,11818.7Z"/>
          <path id="Path_9" class="cls-3" d="M2582.3,11864.3c-.1,0-.1.1,0,0-.1.2-.1.3-.2.3a2.7,2.7,0,0,1-.7.8.215.215,0,0,0-.2.2,2.518,2.518,0,0,1-.7.4,2.1,2.1,0,0,0-1.1.4h-.8c-.1-.2-.2-.2-.4-.2-.1,0-.2-.1-.4-.1,0-.1-.2-.2-.3-.2-.1-.1-.3-.1-.4-.2-.1-.2-.2-.3-.4-.3h0l-.2-.2h0c0-.1-.1-.3-.2-.3h-.1c0-.1,0-.1-.1-.1a.549.549,0,0,0-.3-.5h0c0-.1,0-.3-.1-.3a.9.9,0,0,0-.1-.5v-1.2a1.264,1.264,0,0,1,.1-.6,1.02,1.02,0,0,0,.5-.8h0c.2-.1.3-.2.3-.3l.2-.2c.4-.2.9-.5,1.3-.7.5,0,1.1-.1,1.6-.1.1.2.2.3.4.3a1.426,1.426,0,0,0,.6.2c.1.2.2.3.4.3l.2.2.3.3c.1.1.1.2.2.2,0,.2.1.3.3.4.1.3.1.5.2.8a14.068,14.068,0,0,1,.1,2Z"/>
          <path id="Path_10" class="cls-3" d="M2556.6,11830.4a1.423,1.423,0,0,0,.2-.6c.2-.1.3-.2.3-.4,0-.1.1-.1.2-.2.2,0,.3-.1.4-.3a10.133,10.133,0,0,0,1.5-.7h.1l.1-.1c.5.1.9.1,1.4.2.1.2.2.3.4.3h.1a4.73,4.73,0,0,0,1,1v.1c0,.1,0,.3.2.3a4.573,4.573,0,0,1,.1,2.6c-.2.1-.3.2-.3.4a7.888,7.888,0,0,1-1.2,1.5,1.9,1.9,0,0,0-1,.5,3.725,3.725,0,0,1-1.8-.2l-.9-.6c-.2-.4-.6-.6-.7-1.1a.521.521,0,0,0-.2-.4v-.3c.1-.2.1-.3-.1-.5v-.7c.1-.1.1-.2.1-.4s.1-.3.1-.5C2556.6,11830.7,2556.6,11830.6,2556.6,11830.4Z"/>
          <path id="Path_11" class="cls-3" d="M2556.6,11851.2a3.634,3.634,0,0,1,2.7-1.9,2.21,2.21,0,0,1,.8.1,1.623,1.623,0,0,0,.9.5,4.612,4.612,0,0,1,1.5,4.4c-.4.3-.4.7-.7,1.1a2.631,2.631,0,0,1-.6.5,1.622,1.622,0,0,0-.9.5,8.636,8.636,0,0,1-1.6-.1c-.1-.1-.2-.2-.4-.1h0l-.1-.1c-.2-.1-.3-.2-.5-.2,0-.1-.1-.3-.2-.3h-.1l-.2-.2c0-.2-.1-.3-.3-.4-.1-.2-.1-.4-.2-.6,0-.2,0-.4-.2-.4v-.4a3.3,3.3,0,0,0,0-1.4c0-.2.1-.3.1-.5Z"/>
          <path id="Path_12" class="cls-3" d="M2586.5,11814.2c-.1-.2-.2-.3-.3-.5a1.616,1.616,0,0,0-.4-.7v-1.5c.1-.3.1-.6.2-.9l.2-.2c0-.1,0-.1.1-.2a1.2,1.2,0,0,0,.5-.5,3.523,3.523,0,0,1,3-.7c.1.2.3.2.5.2a1.426,1.426,0,0,0,.6.2c.1.2.2.3.4.3h0c.1,0,.1.1.2.1l.2.2c0,.1.1.1.1.2h0c0,.2.1.3.3.4a2.913,2.913,0,0,1,.2.9v1.3a1.853,1.853,0,0,0-.2.7c-.3.1-.3.4-.5.6h0c-.2,0-.3.1-.4.3h0a5.4,5.4,0,0,0-1.3.7h-1.5a7.761,7.761,0,0,1-1.6-.7C2586.8,11814.3,2586.7,11814.2,2586.5,11814.2Z"/>
          <path id="Path_13" class="cls-3" d="M2547.3,11842.5v-.9a.845.845,0,0,0,.2-.7v-.5c.1-.1.1-.1.1-.2a1,1,0,0,0,.4-.5.642.642,0,0,0,.5-.5h0c.1,0,.3,0,.3-.2a2.446,2.446,0,0,1,2.6-.1c.1.3.3.3.6.4v.1c0,.1.1.3.2.3h.1c.1.1.1.2.2.3,0,.2.1.3.3.4.1.3.1.5.2.8v2.3c0,.1-.1.1-.1.2,0,0-.1,0,0,.1h-.1c-.1.1-.1.3-.2.4-.2,0-.2.2-.2.3-.2.2-.4.5-.6.7-.2,0-.3.1-.4.3a1.426,1.426,0,0,1-.6.2h-1.3a3.684,3.684,0,0,1-1.1-.5c0-.1,0-.2-.1-.2l-.2-.2-.2-.2h0c0-.2-.1-.4-.3-.4a.845.845,0,0,1-.2-.7c0-.2.1-.5-.2-.7C2547.3,11842.9,2547.3,11842.7,2547.3,11842.5Z"/>
          <path id="Path_14" class="cls-3" d="M2598.3,11815.2a3.194,3.194,0,0,1-2.8-2.4,1.078,1.078,0,0,0-.2-.8c.1-.4.2-.9.3-1.3,0-.1.1-.1.1-.2a2.946,2.946,0,0,1,1.5-1.4c.2,0,.5,0,.6-.3h1.3a.827.827,0,0,0,.8.3c.5.4.9.8,1.4,1.2,0,.2.1.3.3.4a2.913,2.913,0,0,1,.2.9v1.5c0,.1,0,.1-.1.2,0,.1-.1.2-.1.3-.2.1-.3.2-.3.4a3.742,3.742,0,0,1-2,1.2Z"/>
          <path id="Path_15" class="cls-3" d="M2551.5,11835.1h0a5.874,5.874,0,0,1-1.3.2c-.3-.1-.7-.1-1-.2h-.1c0-.2-.2-.3-.4-.3-.4-.2-.5-.6-.7-1,0-.2-.1-.3-.3-.4v-.2a.845.845,0,0,0-.2-.7c.1-.6.1-1.2.2-1.7.2-.1.3-.2.3-.4.2-.7.8-1,1.2-1.5a.518.518,0,0,0,.4-.2,2.568,2.568,0,0,1,2.1-.1,1.615,1.615,0,0,0,.7.4c.2.3.5.6.7.9a2.094,2.094,0,0,0,.4,1.1v1.5c-.3.2-.3.6-.4.9-.1.2-.1.3-.2.5,0,.1-.1.1-.1.2l-.9.9C2551.7,11834.8,2551.6,11834.9,2551.5,11835.1Z"/>
          <path id="Path_16" class="cls-3" d="M2580.2,11815.2h-1.7a3.118,3.118,0,0,0-1-.5,2.4,2.4,0,0,1-1.2-2v-1c.2-.5.2-1.1.7-1.5.3-.3.6-.5.9-.8.2-.1.4-.1.6-.2.2,0,.4,0,.5-.2a6.888,6.888,0,0,1,2.5.4c.1.2.2.3.4.3h0c0,.1.1.1.2.2l.2.2.2.2v.1c0,.3.2.4.3.6a4.11,4.11,0,0,1,0,2.2c-.3.4-.5.7-.8,1.1h0a1.2,1.2,0,0,0-.5.5h-.1c-.2,0-.3.1-.4.3h-.2C2580.3,11815.1,2580.3,11815.1,2580.2,11815.2Z"/>
          <path id="Path_17" class="cls-3" d="M2600.8,11875a7.991,7.991,0,0,0-1.6.8,8.636,8.636,0,0,1-1.6-.1c-.1-.3-.4-.2-.6-.3a8.934,8.934,0,0,1-1-.9,2.826,2.826,0,0,1-.6-2.5c.1-.3.4-.7.4-1a3.044,3.044,0,0,0,.5-.7,1.787,1.787,0,0,1,.7-.5,3.077,3.077,0,0,0,1.2-.5,3.545,3.545,0,0,1,3.2,1.2c0,.2.1.3.3.4a2.913,2.913,0,0,1,.2.9,8.59,8.59,0,0,1-.1,1.6c-.1.3-.9,1.4-1,1.6C2600.5,11875.2,2600.9,11874.8,2600.8,11875Z"/>
          <path id="Path_18" class="cls-3" d="M2605.4,11813.7a.549.549,0,0,0-.3-.5l-.2-.2c.1-.6-.3-1.2,0-1.8.6-1.8,1.3-2.3,3.2-2.2h.4c.1.2.3.2.5.2.1.1.2.3.5.2.1.2.2.3.4.3.1.1.2.2.3.2l.2.2c.1.1.1.2.2.2,0,.2.1.3.3.4,0,.1.1.2.1.3s.1.1.1.2v2.5l-.2.2v.1l-.2.2-.6.6c-.2,0-.3.1-.4.3a1.977,1.977,0,0,1-1.1.2h-.5c-.3-.1-.6-.1-.9-.2-.1-.1-.2-.3-.4-.3h-.2c-.1-.1-.2-.2-.3-.2,0-.1-.1-.3-.2-.3h-.1C2605.7,11814,2605.6,11813.8,2605.4,11813.7Z"/>
          <path id="Path_19" class="cls-3" d="M2610.1,11870.1c.1.2.3.3.4.5.1.1.1.2.2.2h0c.1.1.1.2.2.2a.6.6,0,0,0,.1.4v1.7c0,.3-.3.5-.2.8-.2.1-.3.2-.3.4l-.7.7c-.2,0-.3.1-.4.3-.2.1-.3.1-.5.2-.2,0-.4,0-.5.2-.5,0-1,.1-1.4.1a.712.712,0,0,0-.6-.3.521.521,0,0,0-.4-.2c-.1-.3-.3-.3-.5-.4v-.1a1.626,1.626,0,0,0-.5-.9,3.348,3.348,0,0,1,.7-3.3,1.2,1.2,0,0,0,.5-.5h.1c.1,0,.1-.1.2-.1h.2c.2,0,.3-.1.4-.3a4.479,4.479,0,0,1,2.3,0,2.488,2.488,0,0,1,.7.4Z"/>
          <path id="Path_20" class="cls-3" d="M2567.7,11810.5c.1-.1.1-.2.2-.3.2,0,.3-.1.3-.4a2.406,2.406,0,0,1,1.2-.7c.2,0,.4,0,.5-.2h1.4c.1.2.3.2.5.2a2.584,2.584,0,0,1,1.5,2v1.3a8.165,8.165,0,0,1-1.2,2,1.622,1.622,0,0,0-.9.5,3.871,3.871,0,0,1-2.6,0c-.1-.2-.2-.3-.4-.3h0l-.1-.1c-.1-.1-.2-.3-.4-.4a2.08,2.08,0,0,0-.4-.6c0-.2-.1-.3-.1-.5v-1.5a.6.6,0,0,1,.1-.4c.1-.1.1-.2.2-.2,0-.1.1-.2.2-.4C2567.6,11810.7,2567.7,11810.6,2567.7,11810.5Z"/>
          <path id="Path_21" class="cls-3" d="M2551.3,11818.4a2.928,2.928,0,0,1,1.6.1.55.55,0,0,0,.5.3c.1,0,.1.1.2.1,0,.2.1.3.3.4.1.1.1.2.2.3,0,.2,0,.4.2.5,0,.1.1.2.1.4-.1.1-.1.2.1.3v1a.367.367,0,0,0-.1.3c0,.1-.1.2-.1.4-.3.2-.2.5-.3.7,0,.1-.1.1-.2.2-.2.1-.3.2-.3.4h0c0,.1-.1.1-.1.2l-.2.2c-.1,0-.1,0-.1.1a1.787,1.787,0,0,0-.7.5c-.2,0-.4,0-.5.2-.2,0-.5.1-.7.1a.456.456,0,0,0-.5,0c-.1,0-.2-.1-.3-.1,0-.2-.2-.2-.3-.2a1,1,0,0,1-.5-.4c0-.1,0-.1-.1-.1a1,1,0,0,0-.4-.5c0-.1,0-.3-.2-.3,0-.1-.1-.2-.1-.3.2-.2-.1-.3-.2-.4.1-.5-.1-1.1.2-1.6a.713.713,0,0,0,.3-.6v-.2c0-.1.1-.1.1-.2a4.094,4.094,0,0,1,1.6-1.6C2551,11818.7,2551.1,11818.5,2551.3,11818.4Z"/>
          <path id="Path_22" class="cls-4" d="M2542.1,11828.3c1.7-.1,2.6.7,3,2.5v1.5c-.1.4-.1.7-.2,1.1-.2.1-.3.2-.3.4-.2.1-.2.2-.2.4a6.9,6.9,0,0,0-1.3,1.1h0a4.119,4.119,0,0,0-1.1.1h-.3c-.3-.2-.5-.5-.8-.5-.4-.3-.4-.8-.7-1.2,0-.2,0-.4-.2-.5a2.771,2.771,0,0,0-.1-.9v-.3c0-.3.1-.6.1-.9a.845.845,0,0,0,.2-.7v-.1a1.8,1.8,0,0,0,.5-.7c.1-.1.1-.2.2-.3.2,0,.3-.1.4-.3.1-.1.2-.1.3-.2C2541.6,11828.7,2541.9,11828.5,2542.1,11828.3Z"/>
          <path id="Path_23" class="cls-3" d="M2558.4,11812.9v-.5c.3-.2.2-.5.2-.8s.3-.4.2-.7c.2,0,.3-.2.3-.4,0-.1.1-.1.1-.2.2,0,.3-.1.3-.4l.2-.2c.2,0,.3-.1.4-.3a1.426,1.426,0,0,1,.6-.2c.2,0,.4-.1.4-.3h1.3c.1.2.2.3.4.3.5.4,1.1.7,1.2,1.4,0,.2,0,.4.2.5v1.2c-.2.1-.1.3-.1.5v.3c0,.1-.1.1-.1.2-.2.3-.5.7-.7,1a.215.215,0,0,0-.2.2c-.2.1-.3.3-.5.4a.675.675,0,0,0-.6.4c-.2,0-.5.1-.7.1h-1.2a4.035,4.035,0,0,0-.9-.5l-.2-.2c0-.2-.1-.3-.3-.4-.1-.2-.1-.3-.2-.5C2558.6,11813.4,2558.7,11813.1,2558.4,11812.9Z"/>
          <path id="Path_24" class="cls-3" d="M2589.6,11800.1a4.269,4.269,0,0,0,1.1.2.265.265,0,0,0,.3.3,2.832,2.832,0,0,1,.9,1l.1.1a3.2,3.2,0,0,1,.3,1.9c0,.1-.1.1-.1.2s-.1.2-.1.3c-.1.1-.3.2-.2.4a2.7,2.7,0,0,1-.7.8c-.2,0-.3.1-.4.3h-.1c-.2,0-.4,0-.5.2-.2,0-.3.1-.5.1a2.447,2.447,0,0,0-1.2,0c-.1,0-.2-.1-.3-.1-.1-.1-.2-.2-.3-.2-.2-.1-.3-.1-.5-.2-.1-.1-.1-.1-.2-.1a2.631,2.631,0,0,0-.6-.5l-.1-.1c-.1-.1-.1-.2-.2-.4,0-.1,0-.3-.2-.3,0-.1-.1-.2-.1-.3a1.7,1.7,0,0,0,0-1,2.532,2.532,0,0,1,1-1.8,1.373,1.373,0,0,0,.8-.5,1.977,1.977,0,0,1,1.1-.2A1.94,1.94,0,0,1,2589.6,11800.1Z"/>
          <path id="Path_25" class="cls-3" d="M2619.7,11871.3a4.276,4.276,0,0,1-.6,2.9c-.2,0-.2.2-.2.3l-.2.2c-.2.2-.5.4-.7.6l-.6.3c-.1,0-.3,0-.3.2h-1.7c-.1-.2-.2-.2-.3-.2h-.1a1.2,1.2,0,0,0-.5-.5c0-.1-.1-.1-.1-.2v-.1h-.1a2.014,2.014,0,0,0-.4-.8v-1.7a4.185,4.185,0,0,1,.4-1c.1,0,.1-.1.1-.2s0-.1.1-.2l.2-.2.5-.5c.2,0,.3-.1.4-.3a3.3,3.3,0,0,1,2.9-.3c.1.2.2.3.4.3.2.3.5.6.7.9C2619.5,11871,2619.5,11871.2,2619.7,11871.3Z"/>
          <path id="Path_26" class="cls-3" d="M2579.4,11835.3a4.249,4.249,0,0,1-2.7-.5c-.8-1-1.7-1.9-1.5-3.3a3.541,3.541,0,0,1,2.2-2.8.215.215,0,0,0,.2-.2c.3-.1.6-.1.9-.2.3,0,.7.1,1,.1.1,0,.1.1.2.1.1.1.2.2.4.1l.1.1c0,.1.1.1.2.1a3.155,3.155,0,0,1,1.4,1.4.909.909,0,0,0,.3.7,4.888,4.888,0,0,1-.1,2.4c-.2,0-.2.2-.2.3a2.182,2.182,0,0,0-.5.8.665.665,0,0,0-.5.4l-.2.2A2.674,2.674,0,0,0,2579.4,11835.3Z"/>
          <path id="Path_27" class="cls-3" d="M2600.1,11805.5h-.1c-.1,0-.1.1-.2.1h-.2c-.2,0-.4,0-.5.2a3.415,3.415,0,0,0-1,.1.188.188,0,0,0-.3,0h0a3.356,3.356,0,0,1-1.4-.5c-.1-.2-.2-.3-.4-.3h0a1,1,0,0,0-.4-.5c-.1-.2-.3-.5-.4-.7,0-.2,0-.4-.2-.5a2.874,2.874,0,0,0-.1-1.3c.2-.1.3-.2.2-.4a1.423,1.423,0,0,0,.2-.6.779.779,0,0,0,.4-.4c.2-.1.4-.3.6-.4.2,0,.4-.1.4-.2a1.274,1.274,0,0,0,.6-.1h.8a1.274,1.274,0,0,1,.6.1c.1,0,.1,0,.2.1,0,0,.1.1.1,0a1.373,1.373,0,0,0,.8.5c.2.3.5.6.8,1,0,.2.1.4.3.4,0,.4.1.8.1,1.3a.44.44,0,0,0-.1.5c0,.1-.1.2-.1.3-.2,0-.2.2-.2.3-.2.2-.3.4-.5.6C2600.3,11805.3,2600.2,11805.4,2600.1,11805.5Z"/>
          <path id="Path_28" class="cls-3" d="M2579.2,11805.9c-.2,0-.3-.1-.5-.1-.1-.2-.2-.2-.3-.1h-.1c0-.2-.2-.3-.4-.3l-.2-.2c0-.2-.1-.3-.3-.4h0l-.2-.2v-.3c0-.2,0-.5-.3-.6v-1c.3-.1.3-.4.3-.6.1-.2,0-.4.2-.5.1,0,.3-.1.3-.2v-.1l.2-.2.1-.1h0c.1-.1.1-.1.2-.1l.2-.2c.2,0,.3,0,.4-.2.1,0,.1,0,.1-.1h0c.2,0,.4,0,.5-.2h1.3a2.933,2.933,0,0,0,.9.2c.1.3.6.3.8.6h0c.1.1.1.1.1.2a4.678,4.678,0,0,1,.5,2.6c-.2.1-.3.2-.2.4-.1.2-.1.3-.2.5-.3,0-.3.3-.4.5h-.1c-.2,0-.3.1-.4.3-.2.1-.3.1-.4.2-.2,0-.5,0-.6.3h-.4a3.7,3.7,0,0,0-1.1-.1Z"/>
          <path id="Path_29" class="cls-3" d="M2596.3,11879.4c.1,0,.1-.1.2-.1h.1v-.1c.1-.1.3-.1.4-.2.6-.1,1.2-.2,1.9-.3.2,0,.3.1.5.1.1.2.2.2.3.1.2.1.3.1.5.2l.2.2c.2.2.3.4.5.6,0,.2.1.4.3.4a2.771,2.771,0,0,0,.1.9.9.9,0,0,0-.1.5,3.578,3.578,0,0,1-.4,1.1c-.2.1-.3.2-.2.4a3.87,3.87,0,0,1-1.9,1.2h-1.3c-.2,0-.3-.1-.5-.1-.4-.3-.9-.7-1.3-1-.1-.1-.1-.3-.2-.4,0-.2,0-.4-.2-.5v-1.5c.2-.1.1-.2.1-.3.1-.1.1-.3.2-.4h.1c0-.1.1-.1.2-.2.1,0,.1-.1.1-.2.1-.1.3-.2.4-.4Z"/>
          <path id="Path_30" class="cls-3" d="M2607.4,11884.6h-.3a9.738,9.738,0,0,1-1.7-.1h0a.55.55,0,0,0-.5-.3h0c-.3-.4-.6-.9-.9-1.3a4.082,4.082,0,0,1,.1-1.9c.1-.1.2-.2.1-.3.2-.1.3-.4.4-.7.1,0,.3-.1.3-.2v-.1c.2-.4.7-.5,1-.7.2,0,.4,0,.5-.2.2,0,.3-.1.5-.1a.857.857,0,0,0,.7,0,.752.752,0,0,1,.5.1c.1.2.3.2.5.2.1.1.2.1.3.2,0,.2.2.2.3.3s.1.2.2.2c0,.2.1.4.3.4a11.006,11.006,0,0,1,.2,1.8c-.1.1-.1.2-.2.3v.2c-.2.1-.3.2-.3.4a1,1,0,0,1-.4.5c0,.1-.1.1-.1.2-.2.2-.4.3-.5.5-.1,0-.2.1-.3.1a.215.215,0,0,0-.2.2C2607.7,11884.4,2607.5,11884.4,2607.4,11884.6Z"/>
          <path id="Path_31" class="cls-4" d="M2606.9,11800.1c.3.1.6.1.9.2.1.2.2.3.4.3.2.1.3.3.5.4.2.2.3.4.5.6l.2.2c0,.2.1.4.3.4a4.484,4.484,0,0,1,0,2.3c-.2.1-.3.2-.3.4-.3.2-.6.5-.9.7-.1,0-.3,0-.3.2-.1,0-.2.1-.4.1a2.447,2.447,0,0,0-1.2,0h-.2a.712.712,0,0,0-.6-.3.521.521,0,0,0-.4-.2c-.1-.2-.2-.3-.4-.3h-.1c0-.4-.3-.5-.5-.7v-.1c0-.1,0-.2-.2-.2a2.8,2.8,0,0,1,0-2.8c0-.1.1-.1.1-.2.1-.3.5-.4.7-.7a.55.55,0,0,0,.5-.3Z"/>
          <path id="Path_32" class="cls-3" d="M2555.4,11813.5l-.1.1a.215.215,0,0,0-.2.2c-.1.1-.1.2-.2.3-.2,0-.3.2-.4.4-.1.1-.2.1-.3.2-.1,0-.3,0-.3.2a5.661,5.661,0,0,1-1.2.4h-.7c-.2-.1-.4-.1-.6-.2a4.3,4.3,0,0,0-.7-.6,1.423,1.423,0,0,1-.2-.6c0-.2,0-.4-.2-.5v-1c.3-.2.2-.4.2-.7a6.128,6.128,0,0,0,.5-1.2l1.1-1.1h0a.761.761,0,0,0,.5-.2h.2c.1,0,.3,0,.3-.2h1.4c.1.2.3.2.5.2.1.1.3.2.4.3l.1.1a3.936,3.936,0,0,1,.6,2.1c-.2.1-.2.2-.1.4v.4c-.2.1-.3.2-.3.4v.2C2555.6,11813.2,2555.5,11813.4,2555.4,11813.5Z"/>
          <path id="Path_33" class="cls-3" d="M2573.5,11800.6h0c.1.2.2.5.5.6a2.913,2.913,0,0,1,.2.9v1.5c-.1.1-.2.2-.2.3v.1c-.2.1-.3.2-.3.4-.4.4-.8.7-1.2,1.1-.2.1-.5,0-.7.3a4.444,4.444,0,0,1-2.3-.2,2.188,2.188,0,0,1-.9-1c0-.1,0-.3-.1-.3,0-.4-.1-.9-.1-1.3.1-.2.3-.4.2-.7a1.423,1.423,0,0,0,.2-.6c.2-.1.3-.2.3-.4,0-.1.1-.1.2-.2.2,0,.3-.1.4-.3.1-.1.2-.1.3-.2.1,0,.2,0,.2-.1.1,0,.1,0,.1-.1h0c.2.1.3,0,.4-.2.2,0,.4-.1.6-.1h.8a2.933,2.933,0,0,0,.9.2C2573.2,11800.5,2573.3,11800.6,2573.5,11800.6Z"/>
          <path id="Path_34" class="cls-3" d="M2541.9,11824.6l-.2-.2c0-.1-.1-.1-.1-.2h0c0-.2-.1-.3-.3-.4a2.872,2.872,0,0,1-.2-2.4c.1,0,.1-.1,0-.1a.762.762,0,0,0,.2-.5c.2-.1.3-.2.2-.4.1-.2.2-.3.2-.5.3-.1.4-.4.5-.7h0c.2,0,.3-.1.4-.3.3-.1.5-.3.8-.4a.752.752,0,0,0,.5-.1h.7c.3.1.5.3.8.4.2.3.5.7.7,1,0,.2,0,.4.2.5v1.7c-.2.6-.5,1.1-.7,1.7-.5.4-.8,1-1.5,1.2-.1,0-.3,0-.3.2a.6.6,0,0,0-.4.1h-.3a.752.752,0,0,1-.5-.1c-.1-.2-.3-.2-.5-.2h0C2542,11824.7,2541.9,11824.7,2541.9,11824.6Z"/>
          <path id="Path_35" class="cls-3" d="M2612.4,11803.4v-1.8a1.423,1.423,0,0,0,.2-.6c.2-.1.3-.2.3-.4.1,0,.3-.1.3-.2.1,0,.1-.1.2-.1a2.748,2.748,0,0,1,2-.2c.1,0,.1.1.2.1s.2.1.3.1c.1.2.2.3.4.3h.1c0,.2.2.3.4.3l.3.3c0,.2.1.3.3.4h0a.711.711,0,0,0,.3.6h0a.521.521,0,0,0,.2.4v1.7a2.439,2.439,0,0,1-1,1.4c-.2,0-.3.1-.4.3a8.636,8.636,0,0,1-1.6-.1c-.1-.2-.3-.2-.5-.2a1.2,1.2,0,0,1-1-.7c0-.1-.1-.3-.2-.3h-.1c0-.1-.1-.1-.1-.2,0-.2-.1-.4-.3-.4v-.2A2.2,2.2,0,0,1,2612.4,11803.4Z"/>
          <path id="Path_36" class="cls-3" d="M2612.4,11881.6a4.185,4.185,0,0,1,.4-1c.1,0,.1-.1.1-.2a2.7,2.7,0,0,1,.7-.8c.3,0,.4-.2.6-.4.1,0,.1,0,.1-.1.1,0,.1,0,.1-.1h.2c.1,0,.3,0,.3-.2a3.231,3.231,0,0,1,1.7.1,1.961,1.961,0,0,1,1.3,1.6v1a2.913,2.913,0,0,0-.2.9.713.713,0,0,0-.3.6,1.375,1.375,0,0,0-.3.4l-.1.1a1.382,1.382,0,0,1-.4.3l-.2.2h0c-.1,0-.3,0-.3.2-.1,0-.1.1-.2.1a.761.761,0,0,0-.5.2h-1.5c-.2-.1-.3-.1-.5-.2a1,1,0,0,0-.5-.4c-.1-.4-.5-.7-.5-1.1C2612.4,11882.5,2612.4,11882,2612.4,11881.6Z"/>
          <path id="Path_37" class="cls-4" d="M2536.4,11818.4h1.3l.2.2c.3.2.4.5.6.7,0,.1,0,.3.2.3a19.264,19.264,0,0,0,.1,2.4c-.2.1-.3.2-.3.4a2.014,2.014,0,0,1-.4.8c-.1,0-.1.1-.1.2a2.7,2.7,0,0,1-.7.8c-.3.3-.7.3-.9.6h-1c-.1-.2-.2-.3-.4-.3l-.1-.1-.2-.2c-.1-.2-.2-.3-.3-.5,0-.1,0-.1-.1-.2-.3-.4-.1-.9-.2-1.3v-1.1c0-.1.1-.2.1-.3v-.4c.1,0,.3-.1.2-.3a.367.367,0,0,1,.1-.3c.2-.1.2-.2.2-.4l.1-.1a.215.215,0,0,0,.2-.2c.1-.1.1-.2.2-.3.2,0,.3-.2.4-.4a.521.521,0,0,1,.4-.2C2536.2,11818.7,2536.3,11818.6,2536.4,11818.4Z"/>
          <path id="Path_38" class="cls-3" d="M2560.3,11803a1.3,1.3,0,0,1,.5-1.3c.2-.1.3-.2.3-.4,0-.1.1-.1.2-.2.2,0,.3-.1.4-.3a3.289,3.289,0,0,1,1.6-.7,2.3,2.3,0,0,1,2.5,1.5v1.5c-.2.1-.2.3-.2.5-.1.3-.3.5-.4.8h0c0,.1-.1.1-.1.2a1.2,1.2,0,0,0-.5.5c-.4.1-.6.5-1,.5-.1,0-.3,0-.3.2-.2,0-.4.1-.7.1a.456.456,0,0,0-.5,0c-.3-.1-.6-.2-1-.3a1.2,1.2,0,0,0-.5-.5v-.1c-.1-.3-.2-.5-.3-.8v-.9q.15,0,0-.3Z"/>
          <path id="Path_39" class="cls-3" d="M2546,11815a4.269,4.269,0,0,1-1.1.2h-.3c-.2,0-.3,0-.4-.1-.1-.2-.2-.3-.4-.3-.2-.2-.3-.4-.5-.5-.1-.1-.1-.2-.2-.3a.6.6,0,0,0-.1-.4v-1.8a3.125,3.125,0,0,0,.5-1v-.1c.3-.1.4-.3.5-.6.4-.3.8-.7,1.2-1,.2,0,.4,0,.5-.2,1.1-.1,2.1.1,2.4,1.4v1.7c-.1.2-.1.5-.2.7a.866.866,0,0,0-.3.6,17.487,17.487,0,0,0-1.2,1.4C2546.2,11814.7,2546,11814.8,2546,11815Z"/>
          <path id="Path_40" class="cls-3" d="M2587.1,11796.6a1.375,1.375,0,0,1-.3-.4c0-.2-.2-.3-.3-.4v-.1c-.1-.1-.1-.2-.2-.4a4.136,4.136,0,0,1,.2-1.9c.2-.1.3-.2.3-.4a1.375,1.375,0,0,0,.3-.4l.1-.1h0c.2,0,.3-.1.4-.3.2-.2.4-.1.6-.2h1.7c.2.1.4.1.6.2a2.1,2.1,0,0,0,.6.4l.2.2c0,.2.1.3.3.4a.521.521,0,0,0,.2.4c0,.2,0,.5.3.6a4.092,4.092,0,0,1-.1,1.1c-.2.1-.2.3-.2.5-.1.1-.1.3-.2.4l-.1.1c-.1,0-.2.2-.2.3-.2,0-.3.1-.4.3l-.6.3c-.2,0-.4,0-.5.2h-1.4c-.1-.2-.3-.2-.5-.2a1.606,1.606,0,0,1-.7-.4C2587.2,11796.7,2587.2,11796.7,2587.1,11796.6Z"/>
          <path id="Path_41" class="cls-3" d="M2552.8,11805a3.05,3.05,0,0,1,0-2.3,4.2,4.2,0,0,0,.9-1.4l.1-.1c.3,0,.4-.2.5-.5.3,0,.4-.2.6-.4a4.674,4.674,0,0,1,1.7-.2c.2.1.3.1.5.2a1,1,0,0,0,.5.4,3.44,3.44,0,0,1,.2,2.8c-.1,0-.1,0-.1.1h0c0,.1-.1.1-.1.2-.1.1-.1.3-.2.4-.2.1-.3.2-.3.4h0l-.2.2-.3.3c-.2,0-.3.1-.4.3-.1.1-.3.1-.4.2-.2,0-.4,0-.5.2-.1,0-.2.1-.4.1a1.392,1.392,0,0,0-.9,0c-.3-.2-.6-.3-.9-.5C2553.1,11805.2,2553,11805.1,2552.8,11805Z"/>
          <path id="Path_42" class="cls-3" d="M2581.2,11797.4c-.5,0-1-.1-1.4-.1-.1-.2-.2-.2-.3-.2-.7,0-.9-.6-1.2-1,0-.2,0-.4-.2-.5v-1.2c.2-.1.2-.3.2-.5a3.151,3.151,0,0,1,2-1.9h1.5a.9.9,0,0,1,.5.1l.2.2c.1,0,.2,0,.2.1s0,.1.1.1a5.011,5.011,0,0,1,.8,1.2.733.733,0,0,0,.2.6c.1.5-.2.9-.2,1.3-.2.1-.2.2-.2.3-.1.1-.1.3-.2.4l-.2.2c-.1.1-.2.2-.3.2-.2,0-.3.1-.4.3-.2.1-.3.1-.5.2C2581.5,11797.1,2581.3,11797.1,2581.2,11797.4Z"/>
          <path id="Path_43" class="cls-3" d="M2594.8,11889.4a3.075,3.075,0,0,1,1-1.5c.2-.1.4-.1.5-.4h.3c.2,0,.4,0,.5-.2.4,0,.7-.1,1.1-.1.1.3.4.3.6.3.1.1.2.3.5.2a6.411,6.411,0,0,1,.8.9,4.953,4.953,0,0,1,.2,1.7c0,.1-.1.1-.1.2a.6.6,0,0,0-.1.4c-.2.1-.3.2-.3.4a4.424,4.424,0,0,1-1.5,1.2c-.2,0-.5-.1-.7.2a1.066,1.066,0,0,0-.8.1c-.1-.3-.4-.3-.6-.3a2.254,2.254,0,0,1-1.5-1.5A4.206,4.206,0,0,0,2594.8,11889.4Z"/>
          <path id="Path_44" class="cls-3" d="M2557.7,11839l.9-.3h1.5c.1.1.1.1.2.1h.2a6.507,6.507,0,0,0,.9.8c0,.1.1.1.1.2s0,.3.2.3c0,.1.1.1.1.2-.1.3-.4.4-.6.7a1.549,1.549,0,0,0-.2,2.1c.2.3.5.6.7.9-.1.2-.2.3-.2.5l-.3.3a3.581,3.581,0,0,0-.7-1c-.9-1.1-1.8-1-2.8,0-.3.4-.4.9-.7,1.2,0-.2-.1-.3-.4-.3-.1-.1-.1-.2-.2-.3,0-.1,0-.2-.2-.2a4.185,4.185,0,0,0-.4-1v-2a.6.6,0,0,1,.1-.4C2556.6,11840.2,2557.1,11839.6,2557.7,11839Z"/>
          <path id="Path_45" class="cls-3" d="M2625.7,11880.4v1.1c-.2.1-.2.3-.2.5a4.058,4.058,0,0,1-2.7,2.7h-1.2a1.426,1.426,0,0,0-.6-.2.783.783,0,0,0-.4-.4c-.1-.1-.1-.3-.2-.4,0-.2,0-.5-.2-.6v-.9c.2-.1.2-.3.2-.5a.6.6,0,0,1,.1-.4c.1-.1.1-.2.2-.2a3.512,3.512,0,0,1,.5-.8c.1,0,.3-.1.3-.2v-.1l.2-.2c.2,0,.4-.1.4-.3a1.426,1.426,0,0,1,.6-.2c.1,0,.3,0,.3-.2.2,0,.3-.1.5-.1a.456.456,0,0,0,.5,0c.2,0,.3.1.5.1,0,.2.2.2.3.2s.1,0,.2.1a.642.642,0,0,0,.5.5v.3C2625.5,11880.1,2625.5,11880.3,2625.7,11880.4Z"/>
          <path id="Path_46" class="cls-3" d="M2596.7,11797.1a3.118,3.118,0,0,1-1-.5l-.3-.3c0-.1-.1-.1-.1-.2l-.2-.2v-.1c-.1-.1-.1-.1-.1-.2v-1.9a1.616,1.616,0,0,1,.4-.7l.1-.1c.4-.2.6-.6,1.1-.7h1.7a2.363,2.363,0,0,0,.8.2c.1.2.2.3.4.3a1.382,1.382,0,0,0,.4.3l.1.1c.1.1.1.2.2.4,0,.1,0,.2.1.2.1.1.1.1.1.2-.1.2,0,.3.2.4a4.136,4.136,0,0,1-.2,1.9c-.2.1-.3.2-.3.4l-.2.2c-.2,0-.3.1-.4.3-.2.1-.3.1-.5.2-.2,0-.5,0-.6.2h-1C2597.1,11797.1,2596.9,11797.1,2596.7,11797.1Z"/>
          <path id="Path_47" class="cls-3" d="M2602.8,11889.9a2.35,2.35,0,0,0,.2-.8c.2-.1.3-.2.3-.4l.1-.1a1.2,1.2,0,0,0,.5-.5c.1,0,.1,0,.1-.1h0c.2,0,.2-.1.3-.3.2-.1.4-.1.6-.2.2,0,.4,0,.5-.2h1.2a.843.843,0,0,0,.7.2c.1.1.2.1.3.2.1.2.2.3.4.3a3.324,3.324,0,0,1,.3,2.4c-.2.1-.3.2-.3.4v.2a1,1,0,0,0-.4.5c-.2.2-.5.4-.7.6a1.606,1.606,0,0,0-.7.4h-2.3c-.1-.2-.2-.3-.4-.3h0c-.1,0-.1-.1-.2-.2h0c0-.2-.2-.3-.3-.4a1.423,1.423,0,0,1-.2-.6C2602.8,11890.7,2602.8,11890.3,2602.8,11889.9Z"/>
          <path id="Path_48" class="cls-3" d="M2602.8,11793.6a1.423,1.423,0,0,0,.2-.6c0-.1,0-.1.1-.2h0c0-.1.1-.1.2-.2l.2-.2c.2,0,.3-.1.4-.3h2c.2.1.4.1.6.2.1.1.2.3.4.3a2.631,2.631,0,0,0,.6.5v.1h.1c0,.1,0,.1.1.1h0c0,.2.1.3.3.4v.2c0,.1,0,.3.2.3,0,.1.1.2.1.4,0,.1.1.2.2.3v.8c-.3.2-.3.6-.4.9a1.6,1.6,0,0,1-.9.7c-.2,0-.4,0-.5.2h-1.2c-.1-.2-.3-.2-.5-.2-.5-.1-.7-.5-1.2-.7,0-.1-.1-.3-.2-.3h-.1c0-.1,0-.1-.1-.1a.549.549,0,0,0-.3-.5c-.1-.3-.1-.6-.2-.8,0-.4-.1-.8-.1-1.3Z"/>
          <path id="Path_49" class="cls-4" d="M2574,11792a1.426,1.426,0,0,0,.6.2c.1.2.2.3.4.3.1.2.2.3.2.5,0,.1,0,.3.2.3a.6.6,0,0,0,.1.4,1.1,1.1,0,0,0,0,.8c0,.2-.1.3-.1.5-.2,0-.2.2-.2.3-.5.7-.9,1.5-1.9,1.7a.735.735,0,0,0-.6.2h-1.1c-.1-.2-.3-.2-.5-.2a1.548,1.548,0,0,1-1-1.2v-1.5a1.912,1.912,0,0,1,.7-1.4c.1,0,.3-.1.3-.2v-.1l.2-.2a1.622,1.622,0,0,0,.9-.5h.3A7.529,7.529,0,0,0,2574,11792Z"/>
          <path id="Path_50" class="cls-3" d="M2539,11814.9c-.1,0-.1.1-.2.1s-.3,0-.3.2a.9.9,0,0,0-.5.1h-.5c-.2-.1-.3-.1-.5-.2-.3-.4-.5-.7-.8-1.1,0-.5.1-1.1.1-1.6.2-.1.2-.3.2-.5a1.844,1.844,0,0,1,.5-1.2c.1,0,.2-.1.2-.3l.1-.1a2.36,2.36,0,0,0,.8-.9,1.426,1.426,0,0,1,.6-.2c.1,0,.3,0,.3-.2h1.1c0,.2.2.2.3.2h.1c.1.1.1.2.2.2.1.3.3.5.4.8v1.7a1.853,1.853,0,0,0-.2.7v.1c-.2.1-.3.2-.3.4-.1.2-.3.3-.2.6A8.021,8.021,0,0,0,2539,11814.9Z"/>
          <path id="Path_51" class="cls-3" d="M2550.8,11801.6v.5c-.2.7-.5,1.3-.7,2h0l-.1.1-.1.1-.2.2a6.859,6.859,0,0,1-1.3,1.1c-.2,0-.4.1-.4.3h-.2a4.008,4.008,0,0,1-1.5-.3l-.2-.2c0-.2-.1-.3-.3-.4-.1-.5-.1-.9-.2-1.4a2.1,2.1,0,0,0,.4-1.1,3.721,3.721,0,0,1,4-2.5c.1.2.2.4.4.4.1.2.1.3.2.5C2550.6,11801.3,2550.6,11801.5,2550.8,11801.6Z"/>
          <path id="Path_52" class="cls-3" d="M2613.4,11887.4h1c.1.2.3.2.5.2h0l.1.1c0,.1,0,.1.1.1h0c0,.2.1.2.2.2,0,.1.1.1.1.2l.2.2a3.409,3.409,0,0,1,0,2,.713.713,0,0,0-.3.6c-.1.1-.1.2-.2.3a6.411,6.411,0,0,0-.8.9c-.4.1-.7.5-1.1.5-.3,0-.6-.1-.8.3h-.2a.827.827,0,0,0-.8-.3,1,1,0,0,1-.5-.4c-.2-.2-.2-.5-.5-.6a6.7,6.7,0,0,1,0-2c.2-.1.3-.2.3-.4v-.2a.663.663,0,0,0,.4-.5c.1-.3.4-.3.5-.5.2,0,.3-.1.4-.3a1.426,1.426,0,0,1,.6-.2C2613.1,11887.6,2613.3,11887.6,2613.4,11887.4Z"/>
          <path id="Path_53" class="cls-3" d="M2563.3,11793.2a2.7,2.7,0,0,0,.8-.7c.2,0,.3-.1.4-.3.2-.2.4-.1.6-.2h1.5a.368.368,0,0,1,.3.1,1.023,1.023,0,0,0,.6.5c.1.2.1.3.2.5v1.7a3.526,3.526,0,0,1-2.2,2.4c-.2,0-.4,0-.5.2h-1.2c-.1-.2-.3-.2-.5-.2-.3-.3-.7-.5-.7-1v-1.3a1.853,1.853,0,0,0,.2-.7c.2-.1.3-.2.3-.4h0C2563.2,11793.4,2563.3,11793.3,2563.3,11793.2Z"/>
          <path id="Path_54" class="cls-3" d="M2591.2,11788.7c-.2.1-.3.3-.5.4-.2,0-.3.1-.4.3a3.1,3.1,0,0,1-2.8-.5c-.1-.2-.2-.4-.4-.4a1.423,1.423,0,0,1-.2-.6v-1.7c.1-.2.1-.3.2-.5l.2-.2c1-1.1,1.9-1.3,3.7-.5.1.1.2.2.3.2h0c0,.1.1.2.2.3h0c0,.2.1.3.3.4a2.253,2.253,0,0,1-.3,2.7C2591.2,11788.6,2591.2,11788.6,2591.2,11788.7Z"/>
          <path id="Path_55" class="cls-3" d="M2612.7,11791.9c.3.1.6.1.8.2.6.3,1.7,1.1,1.7,1.6a2.438,2.438,0,0,1,.6,2.3c-.2.1-.2.3-.2.5a2.743,2.743,0,0,1-3.1.6,3.6,3.6,0,0,0-1-.7,2.7,2.7,0,0,0-.7-.8v-.1c0-.2-.1-.4-.3-.4a3.209,3.209,0,0,1-.2-1.7c.1-.1.1-.1.1-.2.1,0,.1,0,.1-.1.2-.1.3-.2.3-.4a3.021,3.021,0,0,1,.7-.5Z"/>
          <path id="Path_56" class="cls-3" d="M2595.4,11784.7c1.1-.6,2,0,2.9.5,0,.2.2.3.4.4,1,1.7.9,2.6-.3,3.5-.1,0-.1.1-.2.1a3.6,3.6,0,0,1-2.3.1c-.1-.2-.2-.3-.4-.3-.1-.1-.2-.1-.3-.2-.1-.2-.2-.3-.4-.3,0-.4-.6-.6-.5-1v-1.3a1.388,1.388,0,0,1,.7-1.2C2595.2,11785,2595.3,11784.9,2595.4,11784.7Z"/>
          <path id="Path_57" class="cls-3" d="M2556.6,11793.1c.3-.1.4-.4.7-.5.2,0,.3-.1.4-.3.1,0,.2-.1.3-.1a9.74,9.74,0,0,1,1.7-.1c1.1.7,1.2,1.3.7,3-.1,0-.1.1-.1.2-.1.2-.2.3-.2.4a6.411,6.411,0,0,0-.8.9c-.1,0-.1,0-.1.1-.2,0-.2.1-.3.3a1.426,1.426,0,0,1-.6.2c-.2,0-.4,0-.5.2h-1.2c-.1-.2-.2-.2-.3-.2a1.8,1.8,0,0,1-.5-.7v-1.8c0-.1.1-.1.1-.2a.367.367,0,0,1,.1-.3c.2-.1.3-.2.3-.4.1-.1.1-.2.2-.3C2556.5,11793.4,2556.6,11793.3,2556.6,11793.1Z"/>
          <path id="Path_58" class="cls-3" d="M2598.3,11895.6a2.641,2.641,0,0,1,.6.5v.1h.1a2.551,2.551,0,0,1,0,2.4c-.1.1-.1.2-.2.3,0,.1-.1.1-.2.2-.1,0-.3.1-.3.2v.1h0l-.2.2h0c-.2,0-.4.1-.4.3a4.479,4.479,0,0,1-2.3,0,2.366,2.366,0,0,1-1.1-1.3v-1.5a1.423,1.423,0,0,0,.2-.6,2.34,2.34,0,0,1,.7-.7c.1-.1.2-.2.3-.2s.3,0,.3-.1a7.405,7.405,0,0,1,2.1-.1.4.4,0,0,0,.4.2Z"/>
          <path id="Path_59" class="cls-3" d="M2542,11805.5a2.979,2.979,0,0,0-.8.4c-.2-.1-.3-.1-.5.1h-.3c-.2-.1-.5-.2-.7-.3l-.2-.2c0-.2,0-.4-.2-.5v-1.2a.845.845,0,0,0,.2-.7c.1-.2.1-.4.2-.6.2-.1.3-.2.3-.4.1-.1.1-.2.2-.3.2-.1.4-.2.3-.5l.2-.2c.3,0,.4-.3.6-.5h.1a.215.215,0,0,0,.2-.2c.1,0,.1,0,.1-.1.2,0,.3,0,.4-.2.5,0,.9-.5,1.4,0a1.8,1.8,0,0,0,.5.7v1.4c-.1.3-.1.6-.2.8a.909.909,0,0,0-.3.7c0,.1,0,.2-.1.2-.3.2-.5.4-.5.7-.3,0-.4.4-.6.6Q2542.15,11805.2,2542,11805.5Z"/>
          <path id="Path_60" class="cls-3" d="M2602.4,11784.7c.4-.1.8-.1,1.3-.2.4.2.9.3,1.3.5h0c.1,0,.1.1.2.1l.1.1c.1.2.2.3.4.3h0a2.073,2.073,0,0,0,.6,1c0,.2.1.3.1.5v1a2,2,0,0,1-2.3,1.4c-.2,0-.4-.1-.6-.1-.1-.2-.2-.3-.4-.3-.1-.1-.2-.1-.3-.2s-.2-.3-.4-.3a.216.216,0,0,0-.2-.2c0-.1-.1-.3-.2-.3h-.1v-.1c0-.2-.1-.3-.3-.4a2.775,2.775,0,0,1,0-1.8c.2-.1.3-.2.3-.4l.2-.2C2602.2,11785,2602.4,11784.9,2602.4,11784.7Z"/>
          <path id="Path_61" class="cls-3" d="M2606.3,11896.1c0,.1.1.2.1.4v1.2a.6.6,0,0,1-.1.4c-.1.1-.1.2-.2.2-.2.3-.3.5-.5.8-.2,0-.3.2-.4.4a.521.521,0,0,1-.4.2c-.1,0-.1.1-.2.1a3.035,3.035,0,0,1-2.3.1c-.1-.2-.2-.3-.4-.3l-.2-.2c0-.1,0-.3-.2-.3a2.511,2.511,0,0,1-.1-1.9c.2-.1.3-.2.3-.4v-.1l.2-.2c.1-.1.1-.1.1-.2l.2-.2h0l.2-.2c.1,0,.1-.1.2-.1l.2-.2h.1c.2,0,.4-.1.4-.3h2l.2.2c.1,0,.1.1.2.1a2.63,2.63,0,0,0,.6.5Z"/>
          <path id="Path_62" class="cls-3" d="M2550.6,11792.8c.3-.2.5-.3.8-.5.1-.1.2-.1.2-.2a.6.6,0,0,0,.4-.1h1c.2.1.3.1.5.2,0,.1,0,.3.2.3a4.851,4.851,0,0,1,0,1.7c-.2.1-.2.2-.1.3a4.671,4.671,0,0,1-2.8,2.7,1.561,1.561,0,0,1-1.8-.7v-1.5c.1-.2.1-.3.2-.5a.549.549,0,0,0,.3-.5c.1-.1.1-.2.2-.3.2-.1.4-.2.4-.5.1,0,.1-.1.1-.2C2550.5,11793.1,2550.6,11793,2550.6,11792.8Z"/>
          <path id="Path_63" class="cls-3" d="M2566.2,11785.6h0c.3,0,.4-.2.5-.4a3.474,3.474,0,0,1,2.4-.6,5.253,5.253,0,0,1,1,1.1,7.561,7.561,0,0,1-.1,1.5c-.2.1-.3.2-.3.4a1,1,0,0,1-.4.5c-.1,0-.1,0-.1.1-.1.1-.1.2-.2.3-.2,0-.3.1-.4.3a.518.518,0,0,0-.4.2c-.2,0-.4.1-.4.3a6.626,6.626,0,0,1-1.4.1.766.766,0,0,0-.5-.2l-.3-.3c-.1-.2-.1-.4-.3-.5a3.328,3.328,0,0,1,.1-1.4c.2-.1.2-.4.3-.6s.2-.3.2-.5C2566.1,11786,2566.2,11785.8,2566.2,11785.6Z"/>
          <path id="Path_64" class="cls-3" d="M2628.5,11891.4h0a.82.82,0,0,0-.5.5c-.3.2-.5.3-.8.5l-.2.2h-.2a4.873,4.873,0,0,1-1.7,0,1.832,1.832,0,0,1-.6-1.7c.1-.1.3-.2.3-.3.1-1.3,1-2,1.8-2.9.2-.1.5-.2.7-.3h.1s1.3.1,1.8.2c.1.2.2.5.3.7v.8c-.1.7-.6,1.1-.7,1.8C2628.6,11891.1,2628.5,11891.2,2628.5,11891.4Z"/>
          <path id="Path_65" class="cls-3" d="M2559,11789a1.677,1.677,0,0,1-.3-1.2c0-.1.1-.1.1-.2h0c.1,0,.1,0,.1-.1a4.521,4.521,0,0,1,2-2.3c.7-.4,1.4-.8,2.2-.2s.4,1.4.3,2.1c-.2.1-.3.2-.3.4v.1c0,.1-.1.1-.2.2-.3.4-.7.7-1,1.1-.2,0-.3.1-.3.2h-.1c-.4.1-.7.1-.9.4h-.5c-.2-.1-.5-.3-.7-.2l-.2-.2Z"/>
          <path id="Path_66" class="cls-3" d="M2634,11887.4a3.415,3.415,0,0,1,1,.1h0a1.436,1.436,0,0,1,.5,1.8c-.2.5-.2,1.1-.7,1.4a1.159,1.159,0,0,0-.5.7,9.384,9.384,0,0,1-1.8,1.2h-1.3l-.1-.1c0-.2,0-.4-.2-.4v-1.2c.2-.1.2-.3.2-.5v-.3l.2-.2c.1-.1.1-.2.2-.3.1,0,.1-.1.1-.2a6.435,6.435,0,0,0,1-1.3c.2,0,.5-.1.5-.4a1.426,1.426,0,0,1,.6-.2C2633.8,11887.6,2634,11887.6,2634,11887.4Z"/>
          <path id="Path_67" class="cls-3" d="M2544.6,11797.3h-.9c0-.2-.1-.2-.3-.3-.6-.7-.2-1.4-.1-2.1.2-.1.2-.2.2-.4,0-.1,0-.2.1-.2.2-.2.4-.3.5-.6l1.2-1.2c.2,0,.3-.1.4-.3.2-.1.4-.1.6-.2,1.4-.1,1.5,0,1.7,1.4,0,.2-.1.3-.1.5-.1.1-.2.2-.2.3v.3a3.581,3.581,0,0,0-.7,1l-1,1c-.2,0-.3.1-.4.3-.1.1-.3.1-.4.2C2544.9,11797.1,2544.7,11797.1,2544.6,11797.3Z"/>
          <path id="Path_68" class="cls-3" d="M2623.6,11895.4c1.6-.3,1.7-.3,2.1.7h0v.1c0,.2-.1.5-.1.7-.2.1-.2.3-.2.5l-.9,1.2c-.1,0-.1.1-.2.2-.3.2-.6.5-.9.7-.1.1-.1.1-.2.1h-.2c-.2,0-.3.1-.4.3h-.1c-.6.2-1.2.4-1.6-.1-.5-.5-.3-1.1-.1-1.7,0-.2.1-.3.2-.5.1,0,.1-.1.1-.2.1-.3.5-.5.6-.8.2,0,.3-.2.4-.4a5.508,5.508,0,0,0,.9-.7C2623.5,11895.6,2623.6,11895.6,2623.6,11895.4Z"/>
          <path id="Path_69" class="cls-3" d="M2593.7,11780.5v-1a.367.367,0,0,0,.1-.3v-.2l.2-.2a2.342,2.342,0,0,1,1.8-.8,3.888,3.888,0,0,1,2.2,1.8c.2,1.6-.3,2.3-1.9,2.6a2.5,2.5,0,0,1-1.8-.8.216.216,0,0,0-.2-.2,2.5,2.5,0,0,1-.4-.7C2593.8,11780.7,2593.8,11780.6,2593.7,11780.5Z"/>
          <path id="Path_70" class="cls-3" d="M2587.3,11779.2l.7-.7a1.134,1.134,0,0,0,.8-.3c.3,0,.6-.1.9-.1a1.087,1.087,0,0,0,.9.4,2.053,2.053,0,0,1,.8,2.5,2.58,2.58,0,0,1-2.2,1.4h-.7c-.3-.1-.5-.2-.8-.3a1.2,1.2,0,0,0-.5-.5v-.1c0-.1,0-.3-.2-.3v-1.4A.488.488,0,0,0,2587.3,11779.2Z"/>
          <path id="Path_71" class="cls-3" d="M2556.1,11788.5c-.4.1-.6.4-1,.6a.215.215,0,0,0-.2.2,1.688,1.688,0,0,0-1,.3c-.1-.2-.2-.2-.3-.1-.2-.2-.4-.3-.5-.4,0-.1,0-.3-.2-.3v-.9a.845.845,0,0,0,.2-.7c.1-.1.1-.2.2-.2.2-.1.3-.2.3-.4h0a1,1,0,0,0,.4-.5,5.933,5.933,0,0,1,1.8-1.3c1.1-.5,2.1-.2,1.8,1.2v.3c0,.1-.1.1-.1.2a.6.6,0,0,0-.1.4c-.2.1-.3.2-.3.4a1.375,1.375,0,0,0-.3.4l-.1.1c-.1.1-.1.2-.2.3C2556.3,11788.2,2556.1,11788.3,2556.1,11788.5Z"/>
          <path id="Path_72" class="cls-3" d="M2585.1,11779.6a1.1,1.1,0,0,0,0,.8c-.2.1-.3.2-.3.4-.2.3-.4.5-.6.8l-.2.2c-.1.1-.2.1-.3.2a.712.712,0,0,0-.6.3c-.4-.1-.8.2-1.2.2-.1,0-.1-.1-.2-.1-.1-.1-.2-.1-.4-.2-.1,0-.1-.1-.2-.1a1.2,1.2,0,0,1-.5-.5c0-.1,0-.3-.2-.3v-1.2c.2,0,.2-.2.2-.3a2.94,2.94,0,0,1,1-1.2c.2,0,.4-.1.4-.3a4.873,4.873,0,0,1,1.7,0c.1.2.2.3.4.3.2.2.3.4.5.5S2584.8,11779.5,2585.1,11779.6Z"/>
          <path id="Path_73" class="cls-3" d="M2576.6,11782.3c-.4,0-.8.1-1.2.1a2.336,2.336,0,0,1-1.2-1v-.6a3.239,3.239,0,0,1,1.7-2.4c.2,0,.3-.1.4-.3a3.8,3.8,0,0,1,1.5,0c.2.3.5.5.7.8.3.6,0,1.2-.2,1.8,0,.1,0,.1-.1.2h0l-.1.1c-.1,0-.1,0-.1.1h0l-.2.2h0a1.787,1.787,0,0,0-.7.5h-.2C2576.9,11782,2576.7,11782.1,2576.6,11782.3Z"/>
          <path id="Path_74" class="cls-3" d="M2542.3,11792.1c.5.6,0,1.2,0,1.9-.6.8-1.2,1.6-1.8,2.5-.1,0-.1.1-.2.1-.2,0-.4.1-.4.3a3.529,3.529,0,0,0-.9.4.668.668,0,0,1-1-.1l-.1-.1c0-.2,0-.4-.2-.5v-.3a.845.845,0,0,0,.2-.7c0-.5.5-.8.6-1.3.2-.2.5-.4.5-.7.1,0,.1,0,.1-.1.1,0,.1,0,.1-.1l.3-.3c.3-.1.5-.2.5-.5.1,0,.1,0,.1-.1a.55.55,0,0,0,.5-.3c.2-.1.4-.1.5-.2A4.791,4.791,0,0,1,2542.3,11792.1Z"/>
          <path id="Path_75" class="cls-3" d="M2571.8,11781.3a5.368,5.368,0,0,1-1.6,1,1.358,1.358,0,0,1-1.5-.1,1.254,1.254,0,0,1-.4-1.6,4.157,4.157,0,0,1,3-2.6,1.224,1.224,0,0,1,1.4,1v.3a4.249,4.249,0,0,1-.2,1.1C2572.1,11780.6,2572,11781,2571.8,11781.3Z"/>
          <path id="Path_76" class="cls-3" d="M2615.4,11900c-.6-.5-.5-1.1-.4-1.8,0-.1.1-.1.1-.2.1,0,1.7-2.1,2.3-2.6a.843.843,0,0,0,.7-.2c.5.3,1.1.4,1.6.7a3.767,3.767,0,0,1-.8,2.7,2.7,2.7,0,0,0-.7.8c-.2.1-.3.2-.5.3-.2,0-.4.1-.4.3C2616.7,11900,2616,11900.4,2615.4,11900Z"/>
          <path id="Path_77" class="cls-3" d="M2549.1,11789.3c-.6.1-1.3.4-1.6-.5v-.5a2.913,2.913,0,0,0,.2-.9c.2-.1.3-.2.3-.4.2-.3.5-.6.7-.9a.779.779,0,0,0,.4-.4c.2-.1.4-.1.5-.4.2-.1.4-.1.5-.3h.2c.2,0,.3-.1.4-.3.5-.1.9-.3,1.4,0,0,.1,0,.3.2.3a.9.9,0,0,0,.1.5c-.2.1-.2.3-.2.5v.3a2.1,2.1,0,0,0-.4.6c0,.1-.1.1-.1.2s-.1.1-.1.2c-.2.2-.2.6-.6.7-.2,0-.3.1-.4.3l-.2.2c-.2,0-.3.1-.4.3a.521.521,0,0,1-.4.2A2.112,2.112,0,0,1,2549.1,11789.3Z"/>
          <path id="Path_78" class="cls-3" d="M2562.6,11781.3c0-1.4,2.1-3.2,3.5-3.3a1.028,1.028,0,0,1,1,1.1v.2a4.5,4.5,0,0,1-3.3,3.1C2563,11782.5,2562.6,11782.1,2562.6,11781.3Z"/>
          <path id="Path_79" class="cls-3" d="M2622.9,11889.3c0,.2-.1.4-.1.6-.1.2-.2.3-.2.5-.1.1-1.2,1.5-1.4,1.7-.2,0-.3.1-.4.3a1.415,1.415,0,0,0-.6.2c-.2,0-.5-.1-.7.1h-.3c-.1-.2-.3-.1-.5-.2a.368.368,0,0,1-.3-.1l-.2-.2h0c0-.1-.1-.2-.2-.3l-.1-.1c0-.6-.1-1.2-.1-1.8.1-.2.1-.5.2-.7,0-.1.1-.1.1-.2a5.271,5.271,0,0,1,1.2-1.4l.1-.1a3.571,3.571,0,0,1,.9-.4c.3,0,.6-.1.9-.1C2621.4,11887.6,2623.4,11887.6,2622.9,11889.3Z"/>
          <path id="Path_80" class="cls-3" d="M2558.1,11782.4a.817.817,0,0,1-.9-.8.6.6,0,0,1,.1-.4,5.339,5.339,0,0,1,3.6-3.1.671.671,0,0,1,.8.3.909.909,0,0,1,0,1,5.5,5.5,0,0,1-2.4,2.6A1.6,1.6,0,0,1,2558.1,11782.4Z"/>
          <path id="Path_81" class="cls-3" d="M2544.1,11789.3c-.4,0-.7.3-1.1,0l-.3-.3v-.8a.713.713,0,0,0,.3-.6c.1-.1.1-.2.2-.3a.216.216,0,0,1,.2-.2,5.823,5.823,0,0,1,2.6-2.3c.4-.2.8-.5,1.3-.1s.1.8.1,1.2c-.3.1-.3.3-.3.6a6.064,6.064,0,0,0-.7,1c-.2,0-.3.2-.3.4l-.2.2c-.2,0-.3.1-.4.3-.1.1-.2.1-.3.2-.1,0-.2,0-.2.1h0l-.2.2c-.1.1-.2.1-.3.2A.742.742,0,0,0,2544.1,11789.3Z"/>
          <path id="Path_82" class="cls-3" d="M2552.6,11781.6a.521.521,0,0,1,.2-.4,7.084,7.084,0,0,1,3.6-3c.3-.1.6-.2.8.1.3.3.2.6,0,.9a6.136,6.136,0,0,1-3.5,3.2C2552.9,11782.6,2552.6,11782.3,2552.6,11781.6Z"/>
          <path id="Path_83" class="cls-3" d="M2593,11774.5c.1-.5-.1-1.2.5-1.5.2,0,.3-.1.4-.3a3.2,3.2,0,0,1,1.9.3c.1.2.2.3.4.3.9,1.4.9,1.7,0,2.7-.2,0-.3.1-.4.3h-.6a3.806,3.806,0,0,1-1.7-.8l-.2-.2C2593.3,11775,2593.1,11774.8,2593,11774.5Z"/>
          <path id="Path_84" class="cls-3" d="M2577.8,11776.2c-1,0-1.4-.8-1.1-1.8a3.128,3.128,0,0,1,2.5-1.8,1.055,1.055,0,0,1,1.2,1v.4a2.59,2.59,0,0,1-2.6,2.2Z"/>
          <path id="Path_85" class="cls-3" d="M2632.1,11882.9c-.8.8-1.5,1.8-2.9,1.7-1-.3-1.4-.6-1.4-1.8v-1a.762.762,0,0,0,.2-.5c.1-.2.3-.3.2-.6.2-.1.3-.2.3-.4,0-.1.1-.1.1-.2.1,0,.3-.1.3-.2v-.1l.2-.2h.2c1.1-.6,2.3-1,3-.3C2633.6,11880.3,2632.1,11882.3,2632.1,11882.9Z"/>
          <path id="Path_86" class="cls-3" d="M2582.4,11776c-.1,0-.1-.1-.2-.2,0-.2-.1-.3-.3-.4a2.709,2.709,0,0,1,1.1-2.5c.1,0,.2,0,.2-.1a2.127,2.127,0,0,1,1.9.1c.2.2.3.4.5.6a2.621,2.621,0,0,1-.2,1.5c-.2.1-.3.2-.3.4h0a.665.665,0,0,0-.5.4l-.2.2c-.2,0-.4,0-.5.2a2.89,2.89,0,0,1-1.3-.1C2582.7,11776,2582.6,11776,2582.4,11776Z"/>
          <path id="Path_87" class="cls-3" d="M2542.5,11786.9c-.3.2-.4.5-.6.7l-.1.1a7.826,7.826,0,0,1-2,1.6c-.3.1-.6.3-.9.1,0-.1-.1-.1-.1-.2-.1-.4.1-.7.2-1.1,0-.1.1-.2.1-.3,0,0,.1-.1,0-.1.2-.2.5-.3.4-.6.1-.1.1-.2.2-.3.2-.1.3-.2.3-.4h0a1.2,1.2,0,0,0,.5-.5c.5-.3.9-.7,1.4-1,.1,0,.2,0,.2-.1.1-.1.2-.1.3-.2.1,0,.1,0,.2-.1h.5c.1.1.2.2.2.3v.6c-.2.1-.3.2-.3.4l-.3.6C2542.6,11786.6,2542.5,11786.7,2542.5,11786.9Z"/>
          <path id="Path_88" class="cls-3" d="M2548.4,11782.2c0-.2-.1-.4-.1-.6.2-.1.3-.2.3-.4.1-.1.1-.2.2-.3.4-.5.9-.9,1.3-1.4.6-.4,1.3-.8,2-1.2.3-.1.6-.4.9-.1s.1.7-.1,1.1l-1.5,1.8c-.2,0-.3.1-.4.3h0c-.1,0-.1.1-.2.1-.3.2-.7.4-1,.6-.2,0-.4.1-.4.3h-.2c-.1,0-.2.1-.3.1s-.3-.1-.4-.1C2548.5,11782.3,2548.4,11782.3,2548.4,11782.2Z"/>
          <path id="Path_89" class="cls-3" d="M2597.9,11762.8h.5c.2.2.4.1.5-.2h.2c.2.4.5.2.8.2a7.6,7.6,0,0,0,2.1.3c.1.3.2.3.5.2.5,0,1,.3,1.5.3v.2h-1.9c-.1-.1-.2-.2-.3,0-.1,0-.1.1-.2.1-.1-.1-.2-.1-.4-.1a1.274,1.274,0,0,1-.6-.1c-.3-.2-.5-.3-.6.1-.4-.1-.9-.2-1.3-.3-.3,0-.6.4-1,.2a.368.368,0,0,1-.3-.1c-.3-.1-.6-.3-.9-.4-.1-.1-.4-.1-.4.1.2.6-.2.3-.4.3-.5,0-.8-.5-1.3-.5-.1-.2-.2-.2-.4-.2,0,0-.1.1,0,.1.1.1.2.1.4.2.1.2.1.4-.3.4a2.1,2.1,0,0,1-1.1-.4l-.6-.6c.6-.3,1.2.3,1.9,0a13.454,13.454,0,0,1,2-.1h.5a.819.819,0,0,0,1,.4C2597.9,11762.9,2597.9,11762.9,2597.9,11762.8Z"/>
          <path id="Path_90" class="cls-3" d="M2570.2,11774.8c0,.1-.1.1-.2.2-.5.3-.9.7-1.4,1h-.1c-.2,0-.4,0-.4.3h-.3c-1-.1-1.2-.3-.9-1.3a.549.549,0,0,0,.3-.5l.7-.7c.1,0,.3-.1.3-.2v-.1h0a.634.634,0,0,0,.6-.5,5.606,5.606,0,0,0,1.2-.4.686.686,0,0,1,.9.3.608.608,0,0,1,0,.8c-.1.2-.2.5-.3.7C2570.3,11774.5,2570.2,11774.6,2570.2,11774.8Z"/>
          <path id="Path_91" class="cls-3" d="M2563.2,11774.2c.1,0,.1-.1.2-.2.2,0,.3-.1.4-.3a5.281,5.281,0,0,1,2.1-1.1c.5-.2.7-.1.9.4v.3c-.1.2-.1.3-.2.5a.549.549,0,0,0-.3.5h0a5.23,5.23,0,0,0-1.1,1c-.6.3-1.1.6-1.7.9-.6.2-1.1.2-1.2-.6a3.581,3.581,0,0,0,.7-1h0A.524.524,0,0,0,2563.2,11774.2Z"/>
          <path id="Path_92" class="cls-3" d="M2539.3,11786.3c-.3.1-.4.5-.6.7-.1,0-.1.1-.2.2s-.1.2-.2.3c-.2,0-.3.2-.4.4-.1,0-.1.1-.2.1-.3,0-.4.3-.6.5-.6.3-1,.9-1.7,1-.1-.1-.1-.3-.3-.3v-.4c.2-.1.2-.2.2-.3.1-.2.2-.3.2-.5.2,0,.3-.2.3-.4l.1-.1c.4-.2.5-.5.7-.8a1.2,1.2,0,0,0,.5-.5c.2,0,.2-.1.2-.2a1.023,1.023,0,0,0,.6-.5c.2,0,.3-.2.4-.3s.2-.1.3-.2c.2,0,.3-.1.4-.3,1-.2,1-.2.7.7-.2.1-.3.2-.3.4v.1C2539.4,11786.1,2539.3,11786.2,2539.3,11786.3Z"/>
          <path id="Path_93" class="cls-3" d="M2561.6,11774.6a7.92,7.92,0,0,1-2.3,1.4c-.4.1-.7.4-1,.1-.4-.4.1-.6.2-1l1.2-1.2c.1-.1.2-.1.3-.2.2,0,.2-.1.3-.3h.1c.2,0,.4-.1.4-.3.3.1.4-.1.6-.2.2,0,.4,0,.4-.3h.2c.3,0,.6-.2.8.1s-.1.5-.2.7c-.1.1-.2.3-.3.4A1.384,1.384,0,0,1,2561.6,11774.6Z"/>
          <path id="Path_94" class="cls-3" d="M2549.6,11778.8h0a17.409,17.409,0,0,0-1.3,1.5.779.779,0,0,0-.4.4c-.1,0-.3.1-.3.2v.1h0c-.2,0-.3.1-.4.3-.1.1-.2.1-.2.2a.55.55,0,0,0-.5.3c-.1,0-.1.1-.2.1a.55.55,0,0,0-.5.3,2.778,2.778,0,0,0-.9.1c0-.1-.1-.1-.1-.2v-.5a14.2,14.2,0,0,1,2.4-2.5,4.142,4.142,0,0,0,1.1-.7,1.8,1.8,0,0,0,.9-.4c.1,0,.1-.1.2-.1a.368.368,0,0,0,.3.1h0C2549.7,11778.3,2549.6,11778.6,2549.6,11778.8Z"/>
          <path id="Path_95" class="cls-3" d="M2591.1,11769.4a.454.454,0,0,0,0,.5c-.3.4-.5.7-.8,1.1a.368.368,0,0,0-.3.1,2.195,2.195,0,0,1-2-.7v-1.2l.9-.9h1.1a.822.822,0,0,0,.6.4.519.519,0,0,1,.2.4Q2590.95,11769.4,2591.1,11769.4Z"/>
          <path id="Path_96" class="cls-3" d="M2546.5,11775c.2,0,.3,0,.4-.2a.215.215,0,0,0,.2-.2c.1,0,.2-.1.3-.1a1.02,1.02,0,0,0,.8-.5h.1c.2,0,.4-.1.4-.3.1-.1.3-.1.4-.2.2,0,.5,0,.5-.3.1,0,.1-.1.2-.1.1.1.2.1.3-.1h.3c.1.9.5.3.8.1.2-.1.4-.1.6-.3.1,0,.1-.1.2-.1.1.1.3.1.3.3l-.2.2a8.9,8.9,0,0,0-2.2,1.6c-.2,0-.3.1-.3.2h0c-.3,0-.5,0-.6.3l-.2.2c-.3,0-.5,0-.7.3-.4.1-.7.3-1.1.4a.763.763,0,0,1,.2-.5c.3-.2.6-.3.8-.7-.4-.1-.6.2-.9.4-.1.1-.3.1-.4.3-.2.1-.4.1-.5.3-.1,0-.3,0-.3.1-.2,0-.3,0-.4-.1.2-.1.2-.2,0-.4l.1-.1C2546.1,11775.5,2546.3,11775.4,2546.5,11775Zm3.8-1.5c-.4-.1-.4.2-.6.4C2550,11774,2550.1,11773.8,2550.3,11773.5Z"/>
          <path id="Path_97" class="cls-3" d="M2583.8,11769.1c.2-.2.4-.2.5-.5.1-.1.1-.1.2-.1h0c.1,0,.3,0,.3-.1a2.534,2.534,0,0,1,1.2-.2c.8.9.8,1.6-.2,2.6-.2.1-.3.1-.5.2a2.624,2.624,0,0,1-1.5-.2h0c0-.1,0-.3-.2-.3v-.8A.446.446,0,0,0,2583.8,11769.1Z"/>
          <path id="Path_98" class="cls-3" d="M2556.7,11773.7c.6-.1.9-.6,1.4-.7.2,0,.4-.1.4-.3a1.274,1.274,0,0,0,.6-.1h.2c.5.3.1.5,0,.8-.1,0-.2.2-.2.3h0a3.446,3.446,0,0,0-1.2,1.2.521.521,0,0,1-.4.2c-.2,0-.3.1-.4.3-.3.2-.5.3-.8.5-.1,0-.1,0-.1.1-.2.1-.4.1-.5.2-.1,0-.3,0-.3.2-.2-.1-.5.1-.7-.2-.1-.3.1-.5.3-.7.1-.1.2-.3.4-.4A8.614,8.614,0,0,1,2556.7,11773.7Z"/>
          <path id="Path_99" class="cls-3" d="M2581.8,11770.3c-.1.1-.2.1-.2.2-.2,0-.2.1-.3.3-.2.1-.4.1-.6.2h-1.2c-.1-.1-.1-.1-.2-.1-.4-.4-.1-.9,0-1.3.2-.1.3-.2.3-.4l.2-.2c.2,0,.3-.1.4-.3.1-.1.3-.1.4-.2.2,0,.3-.1.4-.3h.8c.1,0,.1,0,.2.1h0c.1.2.2.3.3.5v.6c-.2.1-.3.2-.3.4-.1.1-.1.2-.2.3C2582,11770.1,2581.9,11770.2,2581.8,11770.3Z"/>
          <path id="Path_100" class="cls-3" d="M2544.4,11779.3a8.372,8.372,0,0,1,1.2-.8.55.55,0,0,0,.5-.3h.2a.448.448,0,0,1,.5,0,.3.3,0,0,1,0,.4c-.2,0-.2.2-.2.3l-.1.1c-.8.8-1.7,1.6-2.5,2.4a4.142,4.142,0,0,0-1.1.7c-.2,0-.3.1-.4.3-.2,0-.4.1-.6.1,0-.1-.1-.1-.1-.2v-.2a1.457,1.457,0,0,0,.6-.9l.7-.7A4.864,4.864,0,0,0,2544.4,11779.3Z"/>
          <path id="Path_101" class="cls-3" d="M2534.5,11788.4l-1.2.9c-.4.2-.7.2-.5-.4.4-.9,1.3-1.4,1.7-2.4h0a.55.55,0,0,0,.5-.3c.1-.1.2-.2,0-.3h0c.4.2.4-.1.6-.3a.55.55,0,0,0,.5-.3,2.169,2.169,0,0,1,.8-.5c.1,0,.1-.1.2-.1.4.1.3.3.3.6-.2.1-.3.2-.3.4-.2.3-.5.4-.6.8-.3.2-.5.3-.5.7h-.1l-.2.2a.519.519,0,0,0-.2.4h0c-.3,0-.4.3-.6.4C2534.6,11788.1,2534.5,11788.2,2534.5,11788.4Z"/>
          <path id="Path_102" class="cls-3" d="M2577.7,11770.3c-.1.1-.2.1-.3.2a1.606,1.606,0,0,0-.7.4c-.2,0-.3.1-.5.1a3.415,3.415,0,0,1-1-.1h0a2.2,2.2,0,0,0-.1-.8,10.609,10.609,0,0,0,1-1.2c.2,0,.3-.1.4-.3a3.745,3.745,0,0,1,1.8-.5l.3.3c-.1.3-.1.6-.2.9-.2.1-.3.2-.3.4-.1,0-.1.1-.2.2C2577.8,11769.9,2577.7,11770.1,2577.7,11770.3Z"/>
          <path id="Path_103" class="cls-3" d="M2573.1,11768.6a1.426,1.426,0,0,1,.6-.2c.2,0,.4,0,.4-.3.4.1,1.3-.3.9.8a1,1,0,0,0-.4.5c-.4.1-.6.5-.8.8h0c-.1.1-.3.1-.4.2-.3.2-.7.3-1,.5h-1c-.2-.1-.1-.3-.2-.5a.519.519,0,0,0,.2-.4c.3-.1.3-.3.5-.5A2.722,2.722,0,0,0,2573.1,11768.6Z"/>
          <path id="Path_104" class="cls-3" d="M2554.5,11774.8c-.3.2-.5.3-.8.5l-.2.2h-.1c-.2,0-.3.1-.4.3a1.426,1.426,0,0,1-.6.2c-.1,0-.3,0-.3.2h-.5v-.6c.1-.2.3-.3.5-.5.7-.6,1.4-1.1,2.1-1.6.4,0,.6-.3.9-.5.2,0,.5,0,.6-.3h.9a1.457,1.457,0,0,1-.6.9c-.3.3-.8.4-.9.8-.1,0-.1,0-.1.1A.547.547,0,0,0,2554.5,11774.8Z"/>
          <path id="Path_105" class="cls-3" d="M2571,11768.2c.3,0,.8-.2,1,.3,0,.1-.1.1-.1.2a5.451,5.451,0,0,0-.7.9c-.2,0-.3.1-.4.3l-.2.2c-.2,0-.4.1-.4.3-.1.1-.3.1-.4.2-.2,0-.4.1-.4.3-.2.1-.4.1-.6.2h-1c-.1-.5.3-.8.6-1.1a7.88,7.88,0,0,0,1.5-1.2,1.415,1.415,0,0,0,.6-.2C2570.6,11768.5,2570.8,11768.4,2571,11768.2Z"/>
          <path id="Path_106" class="cls-3" d="M2566.7,11770.2c-.1.1-.3.1-.4.2-.1,0-.2,0-.2.2-.4.1-.7.3-1.1.4h-.7c-.1-.2,0-.3,0-.4a.779.779,0,0,0,.4-.4c.2-.1.4-.3.6-.4.1,0,.1,0,.1-.1.1-.1.2-.1.4-.2.1,0,.2,0,.2-.1.6-.3,1.1-.6,1.7-.9.2,0,.4,0,.5-.3.3.1.7-.2.9.3A10.382,10.382,0,0,1,2566.7,11770.2Z"/>
          <path id="Path_107" class="cls-3" d="M2539.9,11782.3c-.1,0-.2.1-.3.1-.1-.1-.1-.3-.2-.4,0-.1.1-.1.1-.2.1-.1.1-.2.2-.3.1,0,.3-.1.3-.2v-.1c.2-.2.7-.3.6-.8h0c.5,0,.7-.3.9-.7h0a4.074,4.074,0,0,0,1.7-1.2c.1-.1.2-.1.3-.2.2,0,.4-.1.4-.3.2.1.3-.3.5,0,.1.2,0,.3-.1.4-.2.2-.3.4-.5.6-.4.4-.9.8-1.3,1.2-.1.1-.2.1-.2.2a5.508,5.508,0,0,0-.9.7c-.1.1-.2.1-.3.2-.1,0-.3,0-.3.2a1,1,0,0,0-.5.4Z"/>
          <path id="Path_108" class="cls-3" d="M2551.6,11775c-.1,0-.3,0-.3.2-.1,0-.1.1-.2.1-.5.3-1.1.5-1.6.8-.2.1-.4.2-.5-.1.2-.1.2-.2.2-.3l.2-.2c.3-.1.5-.2.3-.5h0c.2.2.4,0,.5-.2a8.027,8.027,0,0,0,2.1-1.5c.3-.1.5-.2.8-.3.2,0,.4-.1.4-.3.2,0,.4-.1.6-.1v.4h0l-.1.1-.1.1C2553.1,11773.8,2552.4,11774.4,2551.6,11775Z"/>
          <path id="Path_109" class="cls-3" d="M2538.5,11781a10.53,10.53,0,0,0,1.2-1c.3,0,.4-.1.4-.3.3-.2.6-.5.9-.7.4.2.7-.2,1-.1-.1.4-.6.5-.6.9h0c-.5-.1-.7.3-.9.7h0c-.3,0-.5.3-.7.5-.3.1-.4.3-.6.5a.55.55,0,0,0-.5.3c-.3.1-.5.5-.9.5.1-.2.1-.4.2-.6.1,0,.2,0,.2-.1s0-.1-.1-.1-.2,0-.2.2c-.1,0-.2-.1-.3-.1.2,0,.2-.1.3-.3C2538.4,11781.3,2538.5,11781.2,2538.5,11781Z"/>
          <path id="Path_110" class="cls-3" d="M2531,11789.4a18.934,18.934,0,0,1,3.2-3.7l.6-.6c.2-.2.4-.3.6-.5.2.4-.2.6-.2.9-.2.1-.3.2-.2.4h0c-.1-.1-.2,0-.2.1-.3.1-.5.3-.3.6h0a.3.3,0,0,0-.4,0c-.6.6-1.2,1.3-1.7,1.9h-.1c-.2,0-.3.1-.4.3-.1.1-.2.1-.3.2-.1,0-.1,0-.1.1-.1.1-.2.1-.4.2C2531.1,11789.4,2531.1,11789.4,2531,11789.4Z"/>
          <path id="Path_111" class="cls-3" d="M2594.5,11764.9a2.21,2.21,0,0,0,.8-.1c.5.1.8.6,1.3.8a1.8,1.8,0,0,0,.5.7c-.2.8-.8.6-1.3.6-.1-.2-.2-.2-.4-.2h0c0-.2-.2-.3-.4-.3C2594.8,11765.9,2594.4,11765.6,2594.5,11764.9Z"/>
          <path id="Path_112" class="cls-3" d="M2585.4,11765.6c.2-.1.4-.2.4-.5l.6-.3h.8a1.231,1.231,0,0,1,.2,1c-.2.1-.2.2-.2.3-.1.1-.2.2-.2.3-.2.1-.3.2-.5.3h-.3a2.21,2.21,0,0,1-.8-.1c-.1-.2-.2-.3-.2-.5v-.3C2585.3,11765.9,2585.4,11765.8,2585.4,11765.6Z"/>
          <path id="Path_113" class="cls-3" d="M2583.8,11764.9c.4.1,1.1-.3.9.6h0l-.2.2c0,.1-.1.1-.1.2-.2,0-.2.2-.2.3-.1.1-.2.1-.2.2a.215.215,0,0,0-.2.2c-.1,0-.2.1-.3.2l-.2.2h-.9c-.1,0-.1-.1-.2-.1,0-.1-.1-.1-.1-.2a8.335,8.335,0,0,1,.8-1.2A4.62,4.62,0,0,1,2583.8,11764.9Z"/>
          <path id="Path_114" class="cls-3" d="M2597.7,11765.9h-.1a1,1,0,0,0-.4-.5c0-.2-.1-.3-.1-.5h1.1a.766.766,0,0,0,.5.2.55.55,0,0,0,.5.3c.1.1.1.1.2.1l.8.8h0a.9.9,0,0,1-.1.5h-.3a4.784,4.784,0,0,1-2.1-.9C2597.8,11766,2597.8,11765.9,2597.7,11765.9Z"/>
          <path id="Path_115" class="cls-3" d="M2580.2,11766.8c-.1,0-.2.1-.3.2h-.7c-.2,0-.3-.2-.3-.4.2-.5.7-.7,1-1.1.4-.2.9-.4,1.3-.6h.8c0,.1,0,.1.1.2,0,.1-.1.2-.1.3l-.8.8c-.3.2-.5.3-.8.5C2580.3,11766.7,2580.3,11766.7,2580.2,11766.8Z"/>
          <path id="Path_116" class="cls-3" d="M2600.4,11764.9c.3.1.7.3,1,.4l1.5.9.2.2h.1c0,.2,0,.4-.2.5h-.5a.6.6,0,0,1-.4-.1.55.55,0,0,0-.5-.3c-.2-.2-.4-.2-.7-.4-.4-.3-.9-.7-1.3-1l-.1-.1C2599.7,11764.7,2600.1,11765,2600.4,11764.9Z"/>
          <path id="Path_117" class="cls-3" d="M2578.2,11765.1c.4-.1.7-.2,1.1-.3a.9.9,0,0,1,.5.1c0,.1-.1.2-.1.3a6.4,6.4,0,0,0-1.3,1c-.5.3-1.1.5-1.6.8h-.5c-.4-.4.1-.6.2-.8a1.373,1.373,0,0,0,.8-.5c.2-.1.3-.2.5-.2C2577.9,11765.4,2578.1,11765.3,2578.2,11765.1Z"/>
          <path id="Path_118" class="cls-3" d="M2572.1,11766.7c-.3-.1-.4.1-.6.2-.2,0-.5-.1-.7-.1.7-.9,1.8-.9,2.6-1.4.2,0,.4,0,.5-.3a4.269,4.269,0,0,1,1.1-.2c.1,0,.4,0,.4.1.1.2-.3.2-.3.5h0a1.051,1.051,0,0,0-.9.5h0c-.5-.2-.9.2-1.3.5h-.3C2572.5,11766.4,2572.3,11766.5,2572.1,11766.7Z"/>
          <path id="Path_119" class="cls-3" d="M2573.4,11766.9c-.2-.1,0-.3,0-.4.4,0,.6-.3.8-.6h0c.3-.1.8,0,.9-.5h0a.618.618,0,0,0,.7-.1c.3-.1.7-.3,1-.4a.752.752,0,0,0,.5-.1c.4.2,0,.4,0,.5a1.231,1.231,0,0,0-1,.5c-.2-.1-.2.1-.2.2l-.2.2c-.3-.1-.5.2-.7.2s-.3.1-.4.3a2.933,2.933,0,0,1-.9.2Z"/>
          <path id="Path_120" class="cls-3" d="M2604,11766.5l-.6-.3a5.681,5.681,0,0,0-1.3-.8c-.1-.1-.3-.2-.2-.4a.752.752,0,0,1,.5-.1,2.933,2.933,0,0,0,.9.2,9.2,9.2,0,0,0,2.4,1.3c.1.1.1.2.2.3-.2.3-.5.1-.7.2-.2-.1-.5-.3-.7-.2C2604.4,11766.5,2604.3,11766.4,2604,11766.5Z"/>
          <path id="Path_121" class="cls-3" d="M2607.9,11766.9c-.3-.1-.6-.3-.9-.2a.55.55,0,0,0-.5-.3c-.2-.1-.4-.3-.6-.2-.6-.5-1.5-.6-2.2-1.3h.6l.9.3a11.169,11.169,0,0,0,2.5,1.1c.2.1.3.3.6.2h0c-.2.2,0,.3,0,.5C2608.2,11766.9,2608.1,11766.9,2607.9,11766.9Z"/>
          <path id="Path_122" class="cls-3" d="M2608.7,11897.6c-.1-.3.3-.4.2-.7.3-.3.5-.6.8-.9h.2c.1.4.9.6.2,1C2609.8,11897.3,2609.5,11898.2,2608.7,11897.6Z"/>
          <path id="Path_123" class="cls-3" d="M2588.2,11763.7a.521.521,0,0,1-.4.2,2.21,2.21,0,0,1-.8-.1v-.4c.3-.1.4-.3.5-.6.4,0,.7-.4,1.1,0C2588.6,11763.2,2588.3,11763.4,2588.2,11763.7Z"/>
          <path id="Path_124" class="cls-3" d="M2590,11762.8a.687.687,0,0,1,.3.9c-.2.4-.6.3-.9.3-.1-.1-.2-.1-.3-.2a2.2,2.2,0,0,1,.1-.8C2589.4,11762.9,2589.6,11762.6,2590,11762.8Z"/>
          <path id="Path_125" class="cls-3" d="M2586.9,11763.2l-.3.3c-.2,0-.3.1-.4.3-.2.1-.4.1-.6.2h-.7v-.3h0c.1,0,.1-.1.2-.1.1-.1.3-.1.4-.3.3-.1.5-.2.8-.3a.6.6,0,0,0,.4-.1c.1,0,.2-.1.3-.1S2587,11763,2586.9,11763.2Z"/>
          <path id="Path_126" class="cls-3" d="M2612.2,11895.3a1.2,1.2,0,0,1-.5.5c-.6.5-.7.4-.9-.4C2611.3,11895.3,2611.8,11895.1,2612.2,11895.3Z"/>
          <path id="Path_127" class="cls-3" d="M2586.1,11882.6c0-.4-.1-.8-.1-1.2a.187.187,0,0,0,0-.3h0c0-.1.1-.2.1-.4.2-.1.2-.2.2-.3a3.115,3.115,0,0,1,2.4-1.6,2.21,2.21,0,0,0,.8-.1.752.752,0,0,1,.5.1c.1.2.3.2.5.2a.368.368,0,0,1,.3.1c.1.2.2.3.4.3h0c.1.1.1.1.2.1,0,.1,0,.1.1.1h0a6.064,6.064,0,0,0,.7,1c.1.3.1.5.2.8v.2c-.1.5-.1.9-.2,1.4a2.36,2.36,0,0,0-.8.9l-.2.2a3.118,3.118,0,0,0-1,.5h-1.7a2.933,2.933,0,0,0-.9-.2c0-.1-.1-.2-.3-.3-.3-.2-.5-.5-.8-.7.1-.1,0-.1-.1-.1-.1-.1-.1-.3-.2-.4.1-.1.1-.2-.1-.3Z"/>
          <path id="Path_128" class="cls-3" d="M2590.7,11892.4c-.2.1-.4.1-.6.2h-1.8a1.426,1.426,0,0,0-.6-.2c-.1-.1-.2-.3-.4-.3h-.1l-.3-.3-.2-.2a4.083,4.083,0,0,0-.5-.9,2.208,2.208,0,0,1,0-1.6c.1-.1.1-.2.2-.2v-.1c.1-.1.3-.2.3-.4h0c0-.1.1-.1.1-.2h0c.1-.1.3-.1.3-.3.1-.1.2-.1.3-.2.1,0,.1-.1.2-.1h.3c.2,0,.4,0,.5-.2h1.1c.2.3.4.2.6.2a2.318,2.318,0,0,1,1.5,1.4c0,.2,0,.4.2.5v1.2c-.2.1-.2.3-.2.5-.1.2-.1.3-.2.5-.2,0-.3.1-.3.4l-.2.2C2590.9,11892.1,2590.8,11892.3,2590.7,11892.4Z"/>
          <path id="Path_129" class="cls-3" d="M2585.7,11840.8c.2-.7.8-1,1.2-1.5a1.622,1.622,0,0,0,.9-.5,1.274,1.274,0,0,0,.6-.1h1a3.987,3.987,0,0,1,1.8.7,6.411,6.411,0,0,1,.8.9,4.45,4.45,0,0,1,.4,3c-.2.1-.2.3-.2.5,0,.1,0,.2-.1.2a.674.674,0,0,0-.4.6,2.34,2.34,0,0,0-.7.7,4.862,4.862,0,0,1-2.9.5,1.274,1.274,0,0,1-.6-.1c-.1-.1-.2-.1-.3-.2h0c-.1-.2-.2-.3-.4-.3a2.631,2.631,0,0,0-.6-.5c0-.1,0-.3-.2-.3a1.616,1.616,0,0,0-.4-.7c0-.1,0-.3-.2-.3,0-.1-.1-.2-.1-.3.1-.1.1-.2-.1-.3v-1a.88.88,0,0,0,.5-1Z"/>
          <path id="Path_130" class="cls-3" d="M2587.3,11856c-.2-.1-.3-.2-.5-.2a1.2,1.2,0,0,0-.5-.5h0a.549.549,0,0,0-.3-.5c-.1-.1-.1-.2-.2-.3,0-.2,0-.4-.2-.5a13.389,13.389,0,0,0-.1-2c.3-.2.3-.6.4-.9a1.347,1.347,0,0,1,.6-.7c.3,0,.4-.3.6-.5.1,0,.2-.1.3-.1a.518.518,0,0,0,.4-.2,4.282,4.282,0,0,1,3.5.5c.1.2.2.3.4.3.1.1.1.1.1.2,0,.2.1.4.3.4a1.423,1.423,0,0,1,.2.6c0,.1,0,.3.1.3a6.7,6.7,0,0,1,0,2c-.2.1-.2.2-.1.3a1.423,1.423,0,0,0-.2.6c-.2.1-.3.2-.3.4h0l-.2.2h0c-.2,0-.3.1-.4.3-.1.1-.3.1-.4.2a.907.907,0,0,0-.7.3,16.416,16.416,0,0,1-2.2.2c-.1,0-.1-.1-.2-.1,0-.1,0-.1-.1-.1h0C2587.6,11856.1,2587.5,11856,2587.3,11856Z"/>
          <path id="Path_131" class="cls-3" d="M2570,11825a1.708,1.708,0,0,0-.7.1c-.2-.2-.4-.1-.7,0a.9.9,0,0,0-.5-.1c0-.2-.2-.2-.3-.2a1.426,1.426,0,0,0-.6-.2.783.783,0,0,0-.4-.4.519.519,0,0,1-.2-.4l-.1-.1c-.1-.3-.4-.6-.4-1v-1.8a.519.519,0,0,0,.2-.4v-.1c.2-.1.3-.2.3-.4l.2-.2a.779.779,0,0,0,.4-.4c.1,0,.1,0,.1-.1h0c.1,0,.3-.1.3-.2v-.1c.2-.1.3-.2.5-.2a.518.518,0,0,0,.4-.2c.5,0,.9-.1,1.4-.1h.6c.1.2.2.3.4.3h.1c.1.2.2.3.4.3l.4.4c0,.2.1.3.3.4v.1c0,.2.1.4.3.4v.2a.47.47,0,0,0,.1.6h.1c-.1.5-.2,1.1-.3,1.6-.2.1-.2.2-.2.3v.2l-.2.2c-.3.4-.7.7-1,1.1-.2,0-.3.1-.4.3h-.1C2570.3,11824.8,2570.1,11824.7,2570,11825Z"/>
          <path id="Path_132" class="cls-3" d="M2560.7,11825c-.2,0-.3.1-.5.1a.456.456,0,0,0-.5,0c-.2,0-.4-.1-.7-.1-.1-.2-.2-.2-.3-.2s-.2,0-.2-.1c-.2-.2-.3-.5-.6-.5h0c-.1-.1-.1-.2-.2-.3,0-.1,0-.1-.1-.2l-.1-.1c0-.1-.1-.2-.1-.3h0c0-.1,0-.1-.1-.1-.1-.2-.1-.5-.2-.7v-.8c-.1-.8.4-1.3.7-2,.2,0,.3-.2.3-.4h0c0-.1.1-.1.2-.2h0c.2,0,.3-.1.4-.3.2-.1.3-.2.5-.2.1,0,.3,0,.3-.2.1,0,.2-.1.4-.1.2.1.3,0,.4-.1.4.1.8.1,1.2.2.1.1.2.3.4.3.3.2.6.5.9.7,0,.2.1.3.3.4a2.913,2.913,0,0,1,.2.9v1.3a2.913,2.913,0,0,0-.2.9c-.2.1-.3.2-.3.4-.1.1-.1.2-.2.3-.2,0-.3.1-.3.4l-.1.1a.665.665,0,0,0-.5.4c-.2.1-.3.1-.4.2C2561,11824.8,2560.7,11824.7,2560.7,11825Z"/>
          <path id="Path_133" class="cls-3" d="M2610.9,11899.9a1.531,1.531,0,0,1-1.1-1.1c-.3-.6.5-.8.8-1.1a.366.366,0,0,1,.5-.2.215.215,0,0,1,.2.2c.3.4.5.9,1,1.1A1.935,1.935,0,0,1,2610.9,11899.9Z"/>
          <path id="Path_134" class="cls-3" d="M2612.8,11898.3a1.557,1.557,0,0,0-.6-.8c-.5-.4-.5-.8.1-1.1.5-.2-.2-.9.5-.8A2,2,0,0,1,2612.8,11898.3Z"/>
          <path id="Path_135" class="cls-3" d="M2558.5,11845.8a.967.967,0,0,1,0-1.4c.1-.1.2-.1.3-.2a.8.8,0,0,1,1.1.2c.3.4-.1.6-.3.8s-.4.3-.5.6C2558.9,11845.9,2558.7,11845.8,2558.5,11845.8Z"/>
        </g>
      </g>
      <path id="Path_136" class="cls-3" d="M2609.5,11896.1a2.181,2.181,0,1,0,3,3,2.178,2.178,0,0,0-2.3-3.7A4.64,4.64,0,0,0,2609.5,11896.1Z"/>
    </g>
    <path id="Path_137" class="cls-5" d="M2759.4,11808l-32.5,112.8h-51.8l57.8-161.5h53.8l57.9,161.4h-52.7l-32.5-112.7"/>
    <path id="Path_138" class="cls-6" d="M2758.9,11808l-32.5,112.8h-51.8l57.9-161.5h53.8l57.8,161.4h-52.7l-32.5-112.7"/>
    <path id="Path_139" class="cls-6" d="M2849.6,11797.6q-60.6,46.05-136.2,74.3c-50.4,18.8-96.5,27.4-138.2,28.2-37.3.7-61.4-12.1-67.7-40.8,54.4,0,98-5.9,139.9-18.6s62.9-27.3,62.9-43.7c0-10-7.5-18-22.6-24s-35.1-9-60.2-9c-4.5,0-8.9.1-13.2.2,13.4,4.8,22.7,10.9,29.9,17.3,0,0,9.3,8.1,9.3,13.8-.1,13.1-14.5,24.7-43.6,34.7s-62.9,15.3-103.6,16.3c-.4-34.2,15.1-57.2,36.2-72.1a236.833,236.833,0,0,0-48.1,18.2q-55.5,28.649-55.5,68.6,0,27.75,30.5,43.7,30.45,16.05,83,16,81.9,0,173.4-33.1,91.5-33.149,148.6-83.6Z"/>
    <path id="Path_140" class="cls-5" d="M2882.9,11784.8l-17.7,40.4-25.7-33.6Z"/>
    <path id="Path_141" class="cls-5" d="M2759.4,11807.7l-32.5,112.8h-51.8l57.8-161.5,26.5,48.7"/>
    <path id="Path_142" class="cls-6" d="M2759.4,11807.7h0l-32.5,112.8h-51.8l57.8-161.5"/>
  </g>
</svg>
