<svg id="Group_2" data-name="Group 2" xmlns="http://www.w3.org/2000/svg" viewBox="132 212 144 79.475">
  <defs>
    <style>
      .cls-1, .cls-3 {
        fill: #fff;
      }

      .cls-2, .cls-5 {
        fill: none;
      }

      .cls-2 {
        stroke: #fff;
        stroke-width: 2.5px;
      }

      .cls-3 {
        stroke: rgba(0,0,0,0);
      }

      .cls-4 {
        stroke: none;
      }
    </style>
  </defs>
  <rect id="Rectangle_1" data-name="Rectangle 1" class="cls-1" width="23" height="79" transform="translate(132 212)"/>
  <path id="Path_1" data-name="Path 1" class="cls-1" d="M165.82,118H191.1l13.414,55.783L219.648,118h25.27l-25.27,79.475H191.1Z" transform="translate(0 94)"/>
  <g id="Group_1" data-name="Group 1" transform="translate(-14 50)">
    <g id="Ellipse_1" data-name="Ellipse 1" class="cls-2" transform="translate(259 162)">
      <circle class="cls-4" cx="15.5" cy="15.5" r="15.5"/>
      <circle class="cls-5" cx="15.5" cy="15.5" r="14.25"/>
    </g>
    <path id="Path_2" data-name="Path 2" class="cls-3" d="M5.424-9.384v-4.824H9.552a2.892,2.892,0,0,1,1.944.564,2.284,2.284,0,0,1,.648,1.812A2.391,2.391,0,0,1,11.5-9.96a2.85,2.85,0,0,1-1.944.576ZM1.656-17.136V0H5.424V-6.7H9.192a2.8,2.8,0,0,1,2.04.624A3.4,3.4,0,0,1,12.048-4.1q.144,1.032.216,2.16A6.644,6.644,0,0,0,12.648,0h3.768a2.522,2.522,0,0,1-.4-.876,7.567,7.567,0,0,1-.192-1.092q-.06-.576-.084-1.128t-.048-.96a10.3,10.3,0,0,0-.18-1.3A4.358,4.358,0,0,0,15.1-6.54a3.26,3.26,0,0,0-.744-.936A2.906,2.906,0,0,0,13.2-8.064v-.048a4,4,0,0,0,2.076-1.68,5.152,5.152,0,0,0,.636-2.616,4.808,4.808,0,0,0-.348-1.836,4.428,4.428,0,0,0-1.008-1.5,4.778,4.778,0,0,0-1.584-1.02,5.516,5.516,0,0,0-2.076-.372Z" transform="translate(266 187)"/>
  </g>
</svg>
